<?xml version="1.0" standalone="no"?>
<!DOCTYPE svg PUBLIC "-//W3C//DTD SVG 1.1//EN" "http://www.w3.org/Graphics/SVG/1.1/DTD/svg11.dtd" >
<svg>
<metadata>
Created by FontForge 20090622 at Tue Apr  3 17:25:08 2018
 By deploy user
Copyright (C) 2001, 2011 Hoefler &#38; Co. http://www.typography.com
</metadata>
<defs>
<font id="GothamCondensed-Ultra" horiz-adv-x="500" >
  <font-face 
    font-family="Gotham Condensed Ultra"
    font-weight="500"
    font-stretch="condensed"
    units-per-em="1000"
    panose-1="0 0 0 0 0 0 0 0 0 0"
    ascent="800"
    descent="-200"
    x-height="546"
    cap-height="700"
    bbox="-141 -223 828 952"
    underline-thickness="50"
    underline-position="-50"
    unicode-range="U+0020-U+FB04"
  />
<missing-glyph 
d="M0 -200v1000h500v-1000h-500zM71 750l179 -390l179 390h-358zM50 -76l172 376l-172 376v-752zM450 676l-172 -376l172 -376v752zM250 240l-179 -390h358z" />
    <glyph glyph-name="f_f" unicode="ff" horiz-adv-x="544" 
d="M36 0v407h-29v139h29v9q0 82 41 123q39 39 114 39q42 0 79 -7v-129q-15 3 -28 3q-36 0 -36 -34v-6h64v-137h-61v-407h-173zM308 0v407h-29v137h29v11q0 82 41 123q39 39 114 39q42 0 79 -7v-129q-15 3 -28 3q-36 0 -36 -34v-6h64v-137h-61v-407h-173z" />
    <glyph glyph-name="fi" unicode="fi" horiz-adv-x="486" 
d="M36 0v407h-29v139h29v9q0 82 41 123q39 39 114 39q42 0 79 -7v-129q-15 3 -28 3q-36 0 -36 -34v-6h64v-137h-61v-407h-173zM292 0v546h174v-546h-174zM291 576v139h176v-139h-176z" />
    <glyph glyph-name="fl" unicode="fl" horiz-adv-x="486" 
d="M36 0v407h-29v139h29v9q0 82 41 123q39 39 114 39q42 0 79 -7v-129q-15 3 -28 3q-36 0 -36 -34v-6h64v-137h-61v-407h-173zM292 0v715h174v-715h-174z" />
    <glyph glyph-name="f_f_i" unicode="ffi" horiz-adv-x="758" 
d="M36 0v407h-29v139h29v9q0 82 41 123q39 39 114 39q42 0 79 -7v-129q-15 3 -28 3q-36 0 -36 -34v-6h64v-137h-61v-407h-173zM308 0v407h-29v137h29v11q0 82 41 123q39 39 114 39q42 0 79 -7v-129q-15 3 -28 3q-36 0 -36 -34v-6h64v-137h-61v-407h-173zM564 0v546h174v-546
h-174zM563 576v139h176v-139h-176z" />
    <glyph glyph-name="f_f_l" unicode="ffl" horiz-adv-x="758" 
d="M36 0v407h-29v139h29v9q0 82 41 123q39 39 114 39q42 0 79 -7v-129q-15 3 -28 3q-36 0 -36 -34v-6h64v-137h-61v-407h-173zM308 0v407h-29v137h29v11q0 82 41 123q39 39 114 39q42 0 79 -7v-129q-15 3 -28 3q-36 0 -36 -34v-6h64v-137h-61v-407h-173zM564 0v715h174v-715
h-174z" />
    <glyph glyph-name=".notdef" 
d="M0 -200v1000h500v-1000h-500zM71 750l179 -390l179 390h-358zM50 -76l172 376l-172 376v-752zM450 676l-172 -376l172 -376v752zM250 240l-179 -390h358z" />
    <glyph glyph-name=".null" horiz-adv-x="0" 
 />
    <glyph glyph-name="nonmarkingreturn" horiz-adv-x="333" 
 />
    <glyph glyph-name="space" unicode=" " horiz-adv-x="140" 
 />
    <glyph glyph-name="exclam" unicode="!" horiz-adv-x="240" 
d="M76 230l-67 458v12h222v-12l-67 -458h-88zM24 0v179h192v-179h-192z" />
    <glyph glyph-name="quotedbl" unicode="&#x22;" horiz-adv-x="365" 
d="M199 379v321h161v-8l-91 -313h-70zM19 379v321h161v-8l-91 -313h-70z" />
    <glyph glyph-name="numbersign" unicode="#" horiz-adv-x="442" 
d="M410 294v-155h-64l-13 -139h-115l13 139h-61l-13 -139h-115l13 139h-43v155h58l11 116h-49v155h64l13 135h115l-13 -135h61l13 135h115l-13 -135h43v-155h-58l-11 -116h49zM191 415l-12 -126h71l12 126h-71z" />
    <glyph glyph-name="dollar" unicode="$" horiz-adv-x="393" 
d="M356 670v-176q-64 35 -123 35q-21 0 -33 -8.5t-12 -21.5v-2q0 -14 12.5 -26t60.5 -49q60 -46 91.5 -92t31.5 -114v-2q0 -69 -32.5 -121t-90.5 -75v-125h-128v112q-65 7 -113 38v174q76 -46 139 -46q21 0 33.5 8t12.5 22v2q0 13 -9.5 23t-44.5 36q-11 8 -17 13
q-60 46 -92 95t-32 121v2q0 68 32 119t91 72v90h128v-78q53 -6 95 -26z" />
    <glyph glyph-name="percent" unicode="%" horiz-adv-x="582" 
d="M135 299q-56 0 -88.5 48.5t-32.5 148.5v14q0 100 32.5 148.5t88.5 48.5t88.5 -48.5t32.5 -148.5v-14q0 -97 -33.5 -147t-87.5 -50zM135 612q-13 0 -18 -18.5t-5 -68.5v-44q0 -50 5 -68.5t18 -18.5t18 18.5t5 68.5v44q0 50 -5 68.5t-18 18.5zM251 349l164 351h89
l-170 -351l-163 -349h-89zM447 -7q-56 0 -88.5 48.5t-32.5 148.5v14q0 97 33.5 147t87.5 50q56 0 88.5 -48.5t32.5 -148.5v-14q0 -100 -32.5 -148.5t-88.5 -48.5zM447 88q13 0 18 18.5t5 68.5v44q0 50 -5 68.5t-18 18.5t-18 -18.5t-5 -68.5v-44q0 -50 5 -68.5t18 -18.5z" />
    <glyph glyph-name="ampersand" unicode="&#x26;" horiz-adv-x="494" 
d="M362 -17l-26 42q-57 -37 -127 -37q-89 0 -145.5 52.5t-56.5 144.5v5q0 116 102 192q-33 51 -45.5 83t-12.5 74v3q0 72 50.5 120.5t129.5 48.5q81 0 127 -46t46 -122v-3q0 -106 -103 -189l49 -84q7 28 13 71l128 -19q-14 -113 -51 -191l45 -75zM226 453q34 39 34 83v4
q0 18 -8 29t-22 11t-22 -12.5t-8 -32.5v-4q0 -39 26 -78zM230 131q18 0 32 7l-78 129q-13 -27 -13 -60v-4q0 -33 15.5 -52.5t43.5 -19.5z" />
    <glyph glyph-name="quotesingle" unicode="'" horiz-adv-x="190" 
d="M19 379v321h166v-8l-96 -313h-70z" />
    <glyph glyph-name="parenleft" unicode="(" horiz-adv-x="281" 
d="M272 -136q-118 11 -189 115.5t-71 282.5v46q0 178 71 282.5t189 115.5v-125q-54 -25 -75.5 -91.5t-21.5 -191.5v-26q0 -125 21.5 -191.5t75.5 -91.5v-125z" />
    <glyph glyph-name="parenright" unicode=")" horiz-adv-x="281" 
d="M9 -136v125q54 25 75.5 91.5t21.5 191.5v26q0 125 -21.5 191.5t-75.5 91.5v125q111 -8 185.5 -110.5t74.5 -292.5v-36q0 -190 -74.5 -292.5t-185.5 -110.5z" />
    <glyph glyph-name="asterisk" unicode="*" horiz-adv-x="332" 
d="M106 386l37 117l-78 -88l-59 99l119 29l-119 29l59 99l78 -88l-37 117h120l-37 -117l78 88l59 -99l-119 -29l119 -29l-59 -99l-78 88l37 -117h-120z" />
    <glyph glyph-name="plus" unicode="+" horiz-adv-x="436" 
d="M141 141v136h-121v150h121v136h154v-136h121v-150h-121v-136h-154z" />
    <glyph glyph-name="comma" unicode="," horiz-adv-x="212" 
d="M25 -134l-15 66q89 21 96 68h-91v184h182v-149q0 -77 -45 -116.5t-127 -52.5z" />
    <glyph glyph-name="hyphen" unicode="-" horiz-adv-x="313" 
d="M15 230v170h283v-170h-283z" />
    <glyph glyph-name="period" unicode="." horiz-adv-x="212" 
d="M15 0v184h182v-184h-182z" />
    <glyph glyph-name="slash" unicode="/" horiz-adv-x="326" 
d="M-22 -98l243 866h119l-243 -866h-119z" />
    <glyph glyph-name="zero" unicode="0" horiz-adv-x="462" 
d="M230 -15q-105 0 -161.5 87t-56.5 253v48q0 166 57.5 254t162.5 88t161.5 -87t56.5 -253v-48q0 -166 -57.5 -254t-162.5 -88zM231 149q22 0 32 32.5t10 126.5v84q0 94 -10 126.5t-32 32.5t-32 -32.5t-10 -126.5v-84q0 -94 10 -126.5t32 -32.5z" />
    <glyph glyph-name="one" unicode="1" horiz-adv-x="283" 
d="M82 0v514l-71 -21v170l123 37h126v-700h-178z" />
    <glyph glyph-name="two" unicode="2" horiz-adv-x="380" 
d="M15 0v157l132 232l25.5 45.5t12.5 27t6 27.5q0 22 -13.5 36t-39.5 14q-46 0 -110 -29v171q77 31 160 31q79 0 129.5 -46t50.5 -129v-4q0 -47 -14 -85t-45 -89l-110 -184h166v-175h-350z" />
    <glyph glyph-name="three" unicode="3" horiz-adv-x="376" 
d="M145 -12q-77 0 -132 20v168q54 -19 105 -19q35 0 55 17t20 45v3q0 67 -133 73v116l113 122h-150v167h339v-156l-126 -138q61 -21 96 -62.5t35 -121.5v-7q0 -106 -61 -166.5t-161 -60.5z" />
    <glyph glyph-name="four" unicode="4" horiz-adv-x="448" 
d="M218 0v108h-209v123l198 469h178v-443h57v-149h-57v-108h-167zM152 257h70v193z" />
    <glyph glyph-name="five" unicode="5" horiz-adv-x="387" 
d="M139 -12q-68 0 -120 18v171q45 -21 100 -21q34 0 57.5 20.5t23.5 56.5v3q0 32 -18 49t-46 17q-22 0 -41 -6l-79 41l17 363h316v-168h-183l-4 -81h16q89 0 144.5 -50.5t55.5 -157.5v-7q0 -121 -65 -184.5t-174 -63.5z" />
    <glyph glyph-name="six" unicode="6" horiz-adv-x="423" 
d="M222 -15q-83 0 -132 49q-79 79 -79 301v14q0 84 13.5 148.5t36 104t55.5 64.5t68 34.5t77 9.5q57 0 104 -13v-158q-43 17 -93 17q-87 0 -90 -111q38 17 77 17q68 0 112 -45t44 -155v-32q0 -119 -54.5 -182t-138.5 -63zM217 130q17 0 25 18.5t8 73.5v32q0 43 -10.5 58.5
t-30.5 15.5q-14 0 -27 -5v-97q0 -96 35 -96z" />
    <glyph glyph-name="seven" unicode="7" horiz-adv-x="354" 
d="M50 0l116 528h-155v172h337v-107l-126 -593h-172z" />
    <glyph glyph-name="eight" unicode="8" horiz-adv-x="426" 
d="M212 -15q-94 0 -148.5 54.5t-54.5 147.5v9q0 114 78 168q-72 57 -72 150v7q0 85 55 139.5t144 54.5t143 -53.5t54 -138.5v-7q0 -92 -73 -150q79 -53 79 -168v-9q0 -93 -55.5 -148.5t-149.5 -55.5zM213 423q34 0 34 73v8q0 73 -34 73t-34 -73v-8q0 -73 34 -73zM213 125
q36 0 36 79v11q0 82 -36 82t-36 -82v-11q0 -79 36 -79z" />
    <glyph glyph-name="nine" unicode="9" horiz-adv-x="423" 
d="M150 144q82 0 90 103q-38 -17 -76 -17q-156 0 -156 204v32q0 122 54 185.5t139 63.5q83 0 132 -49q79 -79 79 -301v-14q0 -361 -251 -361q-62 0 -115 16v158q49 -20 104 -20zM214 364q14 0 27 5v105q0 96 -35 96q-17 0 -25 -19.5t-8 -76.5v-32q0 -46 10.5 -62t30.5 -16z
" />
    <glyph glyph-name="colon" unicode=":" horiz-adv-x="212" 
d="M15 362v184h182v-184h-182zM15 0v184h182v-184h-182z" />
    <glyph glyph-name="semicolon" unicode=";" horiz-adv-x="212" 
d="M15 362v184h182v-184h-182zM25 -134l-15 66q89 21 96 68h-91v184h182v-149q0 -77 -45 -116.5t-127 -52.5z" />
    <glyph glyph-name="less" unicode="&#x3c;" horiz-adv-x="436" 
d="M402 91l-375 186v150l375 186v-175l-207 -85l207 -85v-177z" />
    <glyph glyph-name="equal" unicode="=" horiz-adv-x="436" 
d="M25 395v151h386v-151h-386zM25 158v151h386v-151h-386z" />
    <glyph glyph-name="greater" unicode="&#x3e;" horiz-adv-x="436" 
d="M34 91v175l207 85l-207 85v177l375 -186v-150z" />
    <glyph glyph-name="question" unicode="?" horiz-adv-x="360" 
d="M94 230l-21 182l3 6q96 20 96 69v3q0 46 -67 46q-43 0 -93 -22v168q61 26 135 26q99 0 152.5 -49t53.5 -136v-5q0 -132 -129 -189l-17 -99h-113zM54 0v179h192v-179h-192z" />
    <glyph glyph-name="at" unicode="@" horiz-adv-x="610" 
d="M291 -135q-124 0 -200 88.5t-76 259.5q0 129 39 241t117 184.5t178 72.5q109 0 177.5 -88.5t68.5 -216.5q0 -155 -47.5 -257t-128.5 -102q-79 0 -95 90q-42 -85 -105 -85q-41 0 -67.5 35t-26.5 107q0 84 22 162t60 126.5t81 48.5q57 0 73 -70l10 61l119 -17l-51 -325
q-5 -28 -5 -49q0 -30 20 -30q34 0 65.5 95t31.5 215q0 109 -56 183.5t-151 74.5q-83 0 -149.5 -67.5t-101 -172t-34.5 -220.5q0 -147 63.5 -225t173.5 -78q75 0 142 40l20 -36q-78 -45 -167 -45zM271 145q7 0 13 6q22 22 39.5 103.5t17.5 130.5q0 44 -18 44q-7 0 -13 -6
q-22 -22 -39.5 -103.5t-17.5 -130.5q0 -44 18 -44z" />
    <glyph glyph-name="A" unicode="A" horiz-adv-x="464" 
d="M-8 0l133 701h214l133 -701h-177l-16 113h-98l-16 -113h-173zM201 258h58l-29 209z" />
    <glyph glyph-name="B" unicode="B" horiz-adv-x="446" 
d="M19 0v700h173q134 0 194 -60q45 -45 45 -125v-10q0 -49 -23.5 -87t-60.5 -60q95 -53 95 -152v-9q0 -99 -66.5 -148t-182.5 -49h-174zM259 479v1q0 57 -58 57h-10v-117h10q58 0 58 59zM265 223q0 29 -16.5 44t-43.5 15h-14v-119h14q60 0 60 57v3z" />
    <glyph glyph-name="C" unicode="C" horiz-adv-x="389" 
d="M256 -10q-106 0 -175 86t-69 250v46q0 171 74 254.5t182 83.5q56 0 103 -22v-176q-45 27 -84 27q-93 0 -93 -176v-26q0 -100 25 -138t68 -38q34 0 88 28v-167q-50 -32 -119 -32z" />
    <glyph glyph-name="D" unicode="D" horiz-adv-x="474" 
d="M19 0v700h166q137 0 207 -84.5t70 -243.5v-44q0 -159 -70 -243.5t-207 -84.5h-166zM280 374q0 92 -21 126t-62 36v-372q40 1 61.5 36.5t21.5 125.5v48z" />
    <glyph glyph-name="E" unicode="E" horiz-adv-x="374" 
d="M19 0v700h339v-169h-161v-97h144v-164h-144v-101h164v-169h-342z" />
    <glyph glyph-name="F" unicode="F" horiz-adv-x="358" 
d="M19 0v700h327v-169h-149v-99h132v-164h-132v-268h-178z" />
    <glyph glyph-name="G" unicode="G" horiz-adv-x="456" 
d="M263 -10q-112 0 -181.5 85t-69.5 247v55q0 159 75 246t190 87q77 0 136 -32v-177q-61 39 -116 39q-103 0 -103 -160v-61q0 -168 69 -168q7 0 13 3v113h-46v156h207v-384q-89 -49 -174 -49z" />
    <glyph glyph-name="H" unicode="H" horiz-adv-x="468" 
d="M19 0v700h178v-263h74v263h178v-700h-178v267h-74v-267h-178z" />
    <glyph glyph-name="I" unicode="I" horiz-adv-x="220" 
d="M21 0v700h178v-700h-178z" />
    <glyph glyph-name="J" unicode="J" horiz-adv-x="326" 
d="M125 -9q-62 0 -115 17v165q34 -13 68 -13q53 0 53 59v481h178v-502q0 -108 -52 -160q-47 -47 -132 -47z" />
    <glyph glyph-name="K" unicode="K" horiz-adv-x="446" 
d="M19 0v700h178v-233l68 233h180l-103 -297l107 -403h-185l-50 223l-17 -49v-174h-178z" />
    <glyph glyph-name="L" unicode="L" horiz-adv-x="342" 
d="M19 0v700h178v-531h138v-169h-316z" />
    <glyph glyph-name="M" unicode="M" horiz-adv-x="536" 
d="M19 0v700h168l81 -203l81 203h168v-700h-172v325l-76 -191h-2l-76 191v-325h-172z" />
    <glyph glyph-name="N" unicode="N" horiz-adv-x="477" 
d="M19 0v700h175l93 -270v270h171v-700h-167l-101 287v-287h-171z" />
    <glyph glyph-name="O" unicode="O" horiz-adv-x="478" 
d="M239 -15q-108 0 -167.5 86.5t-59.5 252.5v52q0 166 59.5 252.5t167.5 86.5t167.5 -86.5t59.5 -252.5v-52q0 -166 -59.5 -252.5t-167.5 -86.5zM239 149q16 0 25 11.5t14.5 50t5.5 110.5v58q0 72 -5.5 110.5t-14.5 50t-25 11.5t-25 -11.5t-14.5 -50t-5.5 -110.5v-58
q0 -72 5.5 -110.5t14.5 -50t25 -11.5z" />
    <glyph glyph-name="P" unicode="P" horiz-adv-x="432" 
d="M19 0v700h167q113 0 178.5 -60.5t65.5 -181.5v-15q0 -65 -21.5 -114t-56.5 -75.5t-73 -39.5t-77 -13h-7v-201h-176zM195 355h3q56 0 56 85v21q0 85 -56 85h-3v-191z" />
    <glyph glyph-name="Q" unicode="Q" horiz-adv-x="480" 
d="M486 57l-127 -69l-15 29q-49 -30 -108 -30q-104 0 -164 87t-60 252v50q0 166 59.5 252.5t167.5 86.5t167.5 -86.5t59.5 -252.5v-50q0 -101 -27 -179zM241 145q14 0 22 7l-40 83l64 34q1 14 1 48v62q0 72 -5.5 110.5t-15 50t-26.5 11.5t-26.5 -11.5t-15 -50t-5.5 -110.5
v-62q0 -72 5.5 -110.5t15 -50t26.5 -11.5z" />
    <glyph glyph-name="R" unicode="R" horiz-adv-x="447" 
d="M19 0v700h175q122 0 185 -63q60 -60 60 -169v-11q0 -123 -82 -187l92 -270h-190l-62 211h-2v-211h-176zM195 354h5q56 0 56 85v22q0 85 -56 85h-5v-192z" />
    <glyph glyph-name="S" unicode="S" horiz-adv-x="393" 
d="M178 -13q-94 0 -158 41v175q76 -46 139 -46q46 0 46 36v2q0 15 -12 28.5t-42 37.5q-78 63 -109.5 109.5t-31.5 121.5v8q0 97 58 155t149 58q78 0 139 -28v-177q-62 35 -121 35q-22 0 -34 -10t-12 -25v-2q0 -15 12 -29.5t42 -38.5q77 -62 109 -110.5t32 -122.5v-8
q0 -93 -60 -151.5t-146 -58.5z" />
    <glyph glyph-name="T" unicode="T" horiz-adv-x="392" 
d="M107 0v530h-98v170h374v-170h-98v-530h-178z" />
    <glyph glyph-name="U" unicode="U" horiz-adv-x="458" 
d="M227 -12q-96 0 -153 56t-57 170v486h178v-496q0 -53 34 -53t34 53v496h178v-484q0 -114 -58.5 -171t-155.5 -57z" />
    <glyph glyph-name="V" unicode="V" horiz-adv-x="450" 
d="M129 -1l-137 701h182l53 -382l53 382h178l-137 -701h-192z" />
    <glyph glyph-name="W" unicode="W" horiz-adv-x="668" 
d="M106 -1l-111 701h187l36 -376l45 376h145l45 -376l36 376h184l-111 -701h-185l-43 289l-43 -289h-185z" />
    <glyph glyph-name="X" unicode="X" horiz-adv-x="427" 
d="M255 700h172l-103 -343l107 -357h-181l-38 199l-44 -199h-172l107 355l-103 345h181l34 -181z" />
    <glyph glyph-name="Y" unicode="Y" horiz-adv-x="436" 
d="M129 0v245l-136 455h180l48 -231l46 231h176l-136 -455v-245h-178z" />
    <glyph glyph-name="Z" unicode="Z" horiz-adv-x="378" 
d="M12 0v147l154 384h-150v169h350v-147l-153 -384h153v-169h-354z" />
    <glyph glyph-name="bracketleft" unicode="[" horiz-adv-x="265" 
d="M22 -130v830h233v-118h-81v-594h81v-118h-233z" />
    <glyph glyph-name="backslash" unicode="\" horiz-adv-x="326" 
d="M229 -98l-243 866h119l243 -866h-119z" />
    <glyph glyph-name="bracketright" unicode="]" horiz-adv-x="265" 
d="M10 -130v118h81v594h-81v118h233v-830h-233z" />
    <glyph glyph-name="asciicircum" unicode="^" 
d="M96 482l84 218h140l84 -218h-108l-47 129l-47 -129h-106z" />
    <glyph glyph-name="underscore" unicode="_" horiz-adv-x="507" 
d="M-2 -151v125h511v-125h-511z" />
    <glyph glyph-name="grave" unicode="`" 
d="M257 569l-123 92l152 37l69 -129h-98z" />
    <glyph glyph-name="a" unicode="a" horiz-adv-x="402" 
d="M120 -10q-50 0 -82 42t-32 120v17q0 88 36 130t95 42q41 0 77 -19v9q0 66 -69 66q-57 0 -109 -29v161q69 27 154 27q95 0 145 -50q52 -52 52 -156v-350h-173v45q-36 -55 -94 -55zM188 110q27 0 27 42v74q-16 7 -26 7q-29 0 -29 -51v-25q0 -47 28 -47z" />
    <glyph glyph-name="b" unicode="b" horiz-adv-x="437" 
d="M296 -10q-35 0 -58.5 17.5t-45.5 54.5v-62h-174v715h174v-231q22 37 45.5 54.5t58.5 17.5q127 0 127 -254v-58q0 -254 -127 -254zM220 143q16 0 22.5 21t6.5 72v74q0 51 -6.5 72t-22.5 21t-22.5 -21t-6.5 -72v-74q0 -51 6.5 -72t22.5 -21z" />
    <glyph glyph-name="c" unicode="c" horiz-adv-x="332" 
d="M215 -10q-97 0 -150.5 68t-53.5 196v43q0 124 56.5 191.5t147.5 67.5q55 0 102 -21v-163q-36 21 -66 21q-66 0 -66 -107v-24q0 -109 67 -109q29 0 67 22v-161q-48 -24 -104 -24z" />
    <glyph glyph-name="d" unicode="d" horiz-adv-x="437" 
d="M141 -10q-127 0 -127 254v58q0 254 127 254q35 0 58.5 -17.5t45.5 -54.5v231h174v-715h-174v62q-22 -37 -45.5 -54.5t-58.5 -17.5zM217 143q16 0 22.5 21t6.5 72v74q0 51 -6.5 72t-22.5 21t-22.5 -21t-6.5 -72v-74q0 -51 6.5 -72t22.5 -21z" />
    <glyph glyph-name="e" unicode="e" horiz-adv-x="412" 
d="M228 -13q-102 0 -159.5 68.5t-57.5 198.5v35q0 128 55.5 199t146.5 71q87 0 137.5 -70.5t50.5 -203.5v-83h-220q6 -33 24.5 -47t53.5 -14q59 0 120 39l9 -151q-70 -42 -160 -42zM179 309h62q0 59 -7.5 81t-23.5 22q-10 0 -16 -6.5t-10.5 -30.5t-4.5 -66z" />
    <glyph glyph-name="f" unicode="f" horiz-adv-x="272" 
d="M36 0v407h-29v139h29v9q0 82 41 123q39 39 114 39q42 0 79 -7v-129q-15 3 -28 3q-36 0 -36 -34v-6h64v-137h-61v-407h-173z" />
    <glyph glyph-name="g" unicode="g" horiz-adv-x="437" 
d="M188 -135q-78 0 -152 19v147q76 -23 142 -23q70 0 70 72v31q-46 -68 -107 -68q-127 0 -127 235v36q0 242 127 242q35 0 58.5 -17.5t45.5 -54.5v62h174v-456q0 -113 -55 -168q-57 -57 -176 -57zM217 191q16 0 22.5 20t6.5 69v34q0 49 -6.5 69t-22.5 20t-22.5 -20t-6.5 -69
v-34q0 -49 6.5 -69t22.5 -20z" />
    <glyph glyph-name="h" unicode="h" horiz-adv-x="424" 
d="M18 0v715h174v-231q41 72 108 72q54 0 81.5 -35.5t27.5 -96.5v-424h-174v372q0 28 -21 28q-22 0 -22 -28v-372h-174z" />
    <glyph glyph-name="i" unicode="i" horiz-adv-x="214" 
d="M19 576v139h176v-139h-176zM20 0v546h174v-546h-174z" />
    <glyph glyph-name="j" unicode="j" horiz-adv-x="214" 
d="M19 576v139h176v-139h-176zM37 -135q-37 0 -74 6v111q12 -2 22 -2q35 0 35 38v528h174v-522q0 -85 -38.5 -122t-118.5 -37z" />
    <glyph glyph-name="k" unicode="k" horiz-adv-x="416" 
d="M18 0v715h174v-325l50 156h175l-82 -225l86 -321h-177l-39 180l-13 -31v-149h-174z" />
    <glyph glyph-name="l" unicode="l" horiz-adv-x="214" 
d="M20 0v715h174v-715h-174z" />
    <glyph glyph-name="m" unicode="m" horiz-adv-x="635" 
d="M18 0v546h172v-62q43 72 107 72q74 0 100 -72q41 72 113 72q53 0 81.5 -36t28.5 -96v-424h-172v372q0 28 -21 28q-22 0 -22 -28v-372h-172v372q0 28 -21 28q-22 0 -22 -28v-372h-172z" />
    <glyph glyph-name="n" unicode="n" horiz-adv-x="424" 
d="M18 0v546h174v-62q41 72 108 72q54 0 81.5 -36t27.5 -97v-423h-174v372q0 28 -21 28q-22 0 -22 -28v-372h-174z" />
    <glyph glyph-name="o" unicode="o" horiz-adv-x="426" 
d="M212 -13q-92 0 -146.5 67t-54.5 193v52q0 126 54.5 193t148.5 67q92 0 146.5 -67t54.5 -193v-52q0 -126 -54.5 -193t-148.5 -67zM213 140q17 0 23 23t6 85v50q0 62 -6 85t-23 23t-23 -23t-6 -85v-50q0 -62 6 -85t23 -23z" />
    <glyph glyph-name="p" unicode="p" horiz-adv-x="437" 
d="M18 -130v676h174v-62q22 37 45.5 54.5t58.5 17.5q127 0 127 -254v-58q0 -254 -127 -254q-35 0 -58.5 17.5t-45.5 54.5v-192h-174zM220 143q16 0 22.5 21t6.5 72v74q0 51 -6.5 72t-22.5 21t-22.5 -21t-6.5 -72v-74q0 -51 6.5 -72t22.5 -21z" />
    <glyph glyph-name="q" unicode="q" horiz-adv-x="437" 
d="M245 -130v192q-22 -37 -45.5 -54.5t-58.5 -17.5q-127 0 -127 254v58q0 254 127 254q35 0 58.5 -17.5t45.5 -54.5v62h174v-676h-174zM217 143q16 0 22.5 21t6.5 72v74q0 51 -6.5 72t-22.5 21t-22.5 -21t-6.5 -72v-74q0 -51 6.5 -72t22.5 -21z" />
    <glyph glyph-name="r" unicode="r" horiz-adv-x="281" 
d="M18 0v546h173v-84q13 48 33.5 70.5t51.5 20.5v-208h-3q-42 0 -61.5 -26.5t-19.5 -82.5v-236h-174z" />
    <glyph glyph-name="s" unicode="s" horiz-adv-x="331" 
d="M156 -13q-80 0 -143 34v162q78 -44 119 -44q26 0 26 19v2q0 14 -40 45q-28 21 -44 36t-33.5 38t-25.5 50.5t-8 62.5v2q0 76 47.5 120.5t126.5 44.5q61 0 121 -22v-164q-65 34 -107 34q-22 0 -22 -17v-2q0 -2 0.5 -4t2 -4t2.5 -4t4 -4.5t4.5 -4t5.5 -5t6 -5l7 -5.5t8 -6
q28 -22 41 -34t33 -36t28.5 -52.5t8.5 -64.5v-2q0 -75 -47.5 -122.5t-120.5 -47.5z" />
    <glyph glyph-name="t" unicode="t" horiz-adv-x="275" 
d="M165 -10q-130 0 -130 125v292h-29v139h29v127h173v-127h60v-139h-60v-241q0 -23 23 -23q13 0 36 9v-139q-46 -23 -102 -23z" />
    <glyph glyph-name="u" unicode="u" horiz-adv-x="424" 
d="M124 -10q-54 0 -81.5 35.5t-27.5 96.5v424h174v-372q0 -28 21 -28q22 0 22 28v372h174v-546h-174v62q-41 -72 -108 -72z" />
    <glyph glyph-name="v" unicode="v" horiz-adv-x="408" 
d="M115 -2l-123 548h177l36 -285l36 285h175l-123 -548h-178z" />
    <glyph glyph-name="w" unicode="w" horiz-adv-x="572" 
d="M97 -2l-102 548h172l28 -255l26 255h132l26 -255l28 255h170l-102 -548h-151l-38 219l-38 -219h-151z" />
    <glyph glyph-name="x" unicode="x" horiz-adv-x="409" 
d="M171 546l32 -132l37 132h172l-105 -269l108 -277h-174l-35 143l-40 -143h-172l108 277l-105 269h174z" />
    <glyph glyph-name="y" unicode="y" horiz-adv-x="404" 
d="M204 272l37 274h172l-162 -676h-172l34 138l-121 538h174z" />
    <glyph glyph-name="z" unicode="z" horiz-adv-x="347" 
d="M11 0v126l136 275h-134v145h324v-126l-137 -275h137v-145h-326z" />
    <glyph glyph-name="braceleft" unicode="{" horiz-adv-x="324" 
d="M315 -133q-122 3 -182 44.5t-60 110.5q0 33 13 78.5t13 70.5q0 53 -71 53h-17v122h17q71 0 71 53q0 24 -13 69.5t-13 79.5q0 69 60 110.5t182 44.5v-120q-48 -5 -67.5 -19t-19.5 -41q0 -20 13 -65t13 -71q0 -40 -28.5 -67.5t-79.5 -34.5q51 -7 79.5 -34.5t28.5 -67.5
q0 -26 -13 -71t-13 -65q0 -27 19.5 -41t67.5 -19v-120z" />
    <glyph glyph-name="bar" unicode="|" horiz-adv-x="212" 
d="M50 -98v866h112v-866h-112z" />
    <glyph glyph-name="braceright" unicode="}" horiz-adv-x="324" 
d="M9 -133v120q48 5 67.5 19t19.5 41q0 20 -13 65t-13 71q0 40 28.5 67.5t79.5 34.5q-51 7 -79.5 34.5t-28.5 67.5q0 26 13 71t13 65q0 27 -19.5 41t-67.5 19v120q122 -3 182 -44.5t60 -110.5q0 -34 -13 -79.5t-13 -69.5q0 -53 71 -53h17v-122h-17q-71 0 -71 -53
q0 -25 13 -70.5t13 -78.5q0 -69 -60 -110.5t-182 -44.5z" />
    <glyph glyph-name="asciitilde" unicode="~" horiz-adv-x="354" 
d="M253 253q-27 0 -67 14q-45 15 -57 15q-22 0 -29 -33l-74 14q3 56 23 86t52 30q27 0 67 -14q45 -15 57 -15q22 0 29 33l74 -14q-3 -56 -23 -86t-52 -30z" />
    <glyph glyph-name="uni00A0" unicode="&#xa0;" horiz-adv-x="140" 
 />
    <glyph glyph-name="exclamdown" unicode="&#xa1;" horiz-adv-x="240" 
d="M24 521v179h192v-179h-192zM9 0v12l67 458h88l67 -458v-12h-222z" />
    <glyph glyph-name="cent" unicode="&#xa2;" horiz-adv-x="332" 
d="M258 705v-70q29 -5 59 -18v-163q-36 21 -66 21q-66 0 -66 -107v-30q0 -109 67 -109q29 0 67 22v-161q-29 -15 -61 -21v-75h-121v86q-126 50 -126 252v45q0 95 33.5 157.5t92.5 88.5v82h121z" />
    <glyph glyph-name="sterling" unicode="&#xa3;" horiz-adv-x="409" 
d="M13 0v126l62 32v104h-59v155h59v62q0 125 56 181q52 52 144 52q66 0 111 -13v-165q-36 11 -67 11t-49 -18q-19 -19 -19 -62v-48h112v-155h-112v-95h148v-167h-386z" />
    <glyph glyph-name="yen" unicode="&#xa5;" horiz-adv-x="436" 
d="M25 264v131h69l-105 305h176l56 -224l53 224h173l-105 -305h69v-131h-104v-39h104v-131h-104v-94h-178v94h-104v131h104v39h-104z" />
    <glyph glyph-name="section" unicode="&#xa7;" horiz-adv-x="429" 
d="M338 243q45 -39 45 -99v-2q0 -69 -50 -111.5t-131 -42.5q-72 0 -144 26v147q70 -36 123 -36q17 0 27.5 6t10.5 15v2q0 10 -11.5 17.5t-50.5 22.5q-86 33 -118 61.5t-32 80.5v2q0 79 85 125q-45 39 -45 99v2q0 69 50 111.5t131 42.5q72 0 144 -26v-147q-70 36 -123 36
q-17 0 -27.5 -6t-10.5 -15v-2q0 -10 11.5 -17.5t50.5 -22.5q86 -33 118 -61.5t32 -80.5v-2q0 -79 -85 -125zM240 297q38 25 38 47q0 13 -13 22.5t-68 33.5l-7 3q-38 -25 -38 -47q0 -13 13.5 -23t67.5 -33z" />
    <glyph glyph-name="dieresis" unicode="&#xa8;" 
d="M262 569v123h121v-123h-121zM117 569v123h121v-123h-121z" />
    <glyph glyph-name="copyright" unicode="&#xa9;" horiz-adv-x="508" 
d="M254 -15q-110 0 -176 93.5t-66 254.5v34q0 161 66 254.5t176 93.5t176 -93.5t66 -254.5v-34q0 -161 -66 -254.5t-176 -93.5zM254 21q96 0 150 83.5t54 227.5v36q0 144 -54 227.5t-150 83.5t-150 -83.5t-54 -227.5v-36q0 -144 54 -227.5t150 -83.5zM275 134q-69 0 -110 52
t-41 150v29q0 98 44 149.5t111 51.5q37 0 70 -15v-114q-27 15 -51 15q-53 0 -53 -93v-18q0 -94 55 -94q18 0 50 16v-111q-32 -18 -75 -18z" />
    <glyph glyph-name="ordfeminine" unicode="&#xaa;" horiz-adv-x="254" 
d="M83 401q-27 0 -44.5 22.5t-17.5 64.5v9q0 93 71 93q20 0 42 -10v5q0 35 -38 35q-29 0 -59 -15v87q40 14 84 14q58 0 85 -35q21 -29 21 -76v-189h-93v24q-20 -29 -51 -29zM25 279v83h206v-83h-206zM120 465q14 0 14 23v40q-8 4 -14 4q-16 0 -16 -28v-13q0 -26 16 -26z" />
    <glyph glyph-name="guillemotleft" unicode="&#xab;" horiz-adv-x="410" 
d="M299 45l-119 224v8l119 224l102 -39l-73 -188l73 -190zM121 45l-112 211v34l112 211l102 -39l-73 -188l73 -190z" />
    <glyph glyph-name="registered" unicode="&#xae;" horiz-adv-x="260" 
d="M130 364q-54 0 -87 44t-33 120v17q0 76 33 120t87 44t87 -44t33 -120v-17q0 -76 -33 -120t-87 -44zM130 380q48 0 75 40t27 108v17q0 68 -27 108t-75 40t-75 -40t-27 -108v-17q0 -68 27 -108t75 -40zM72 439v199h54q70 0 70 -66v-3q0 -36 -24 -53l29 -77h-56l-20 60v-60
h-53zM125 542h1q17 0 17 24v4q0 23 -17 23h-1v-51z" />
    <glyph glyph-name="macron" unicode="&#xaf;" 
d="M118 571v103h264v-103h-264z" />
    <glyph glyph-name="degree" unicode="&#xb0;" horiz-adv-x="274" 
d="M136 348q-57 0 -92.5 44t-35.5 119v32q0 75 36 119t94 44q57 0 92.5 -44t35.5 -119v-32q0 -75 -36 -119t-94 -44zM137 445q20 0 20 67v30q0 67 -20 67t-20 -67v-30q0 -67 20 -67z" />
    <glyph glyph-name="plusminus" unicode="&#xb1;" horiz-adv-x="436" 
d="M416 317h-121v-136h-154v136h-121v150h121v136h154v-136h121v-150zM416 0h-396v143h396v-143z" />
    <glyph glyph-name="acute" unicode="&#xb4;" 
d="M145 569l69 129l152 -37l-123 -92h-98z" />
    <glyph glyph-name="mu" unicode="&#xb5;" horiz-adv-x="465" 
d="M458 137v-131q-48 -16 -80 -16q-65 0 -85 54q-25 -51 -63 -51q-40 0 -60 49l-3 -1q15 -70 15 -128v-43h-164v676h174v-370q0 -32 23 -32q22 0 22 32v370h174v-383q0 -15 5 -21.5t19 -6.5q7 0 23 2z" />
    <glyph glyph-name="paragraph" unicode="&#xb6;" horiz-adv-x="354" 
d="M191 0v224q-183 31 -183 235v6q0 122 63.5 178.5t167.5 56.5h94v-700h-142z" />
    <glyph glyph-name="periodcentered" unicode="&#xb7;" horiz-adv-x="212" 
d="M15 223v184h182v-184h-182z" />
    <glyph glyph-name="cedilla" unicode="&#xb8;" 
d="M270 -132l-160 32l90 120h108z" />
    <glyph glyph-name="ordmasculine" unicode="&#xba;" horiz-adv-x="254" 
d="M126 396q-49 0 -78.5 36.5t-29.5 104.5v28q0 68 29.5 105t80.5 37q49 0 78.5 -37t29.5 -105v-28q0 -68 -29.5 -104.5t-80.5 -36.5zM26 279v83h200v-83h-200zM127 479q16 0 16 58v29q0 58 -16 58t-16 -58v-29q0 -58 16 -58z" />
    <glyph glyph-name="guillemotright" unicode="&#xbb;" horiz-adv-x="410" 
d="M289 45l-102 39l73 188l-73 190l102 39l112 -211v-34zM111 45l-102 39l73 188l-73 190l102 39l119 -224v-8z" />
    <glyph glyph-name="questiondown" unicode="&#xbf;" horiz-adv-x="360" 
d="M114 521v179h192v-179h-192zM213 -8q-99 0 -152.5 49t-53.5 136v5q0 132 129 189l17 99h113l21 -182l-3 -6q-96 -20 -96 -69v-3q0 -46 67 -46q43 0 93 22v-168q-61 -26 -135 -26z" />
    <glyph glyph-name="Agrave" unicode="&#xc0;" horiz-adv-x="464" 
d="M-8 0l133 701h214l133 -701h-177l-16 113h-98l-16 -113h-173zM201 258h58l-29 209zM291 729h-118l-112 77l172 32z" />
    <glyph glyph-name="Aacute" unicode="&#xc1;" horiz-adv-x="464" 
d="M-8 0l133 701h214l133 -701h-177l-16 113h-98l-16 -113h-173zM201 258h58l-29 209zM173 729l58 109l172 -32l-112 -77h-118z" />
    <glyph glyph-name="Acircumflex" unicode="&#xc2;" horiz-adv-x="464" 
d="M-8 0l133 701h214l133 -701h-177l-16 113h-98l-16 -113h-173zM201 258h58l-29 209zM93 729l74 102h131l74 -102h-100l-40 33l-40 -33h-99z" />
    <glyph glyph-name="Atilde" unicode="&#xc3;" horiz-adv-x="464" 
d="M-8 0l133 701h214l133 -701h-177l-16 113h-98l-16 -113h-173zM201 258h58l-29 209zM307 725q-20 0 -64 15t-57 15q-22 0 -28 -33l-75 12q1 59 21 91t54 32q20 0 64 -15t57 -15q22 0 28 33l75 -12q-1 -59 -21 -91t-54 -32z" />
    <glyph glyph-name="Adieresis" unicode="&#xc4;" horiz-adv-x="464" 
d="M-8 0l133 701h214l133 -701h-177l-16 113h-98l-16 -113h-173zM201 258h58l-29 209zM245 729v113h125v-113h-125zM94 729v113h125v-113h-125z" />
    <glyph glyph-name="Aring" unicode="&#xc5;" horiz-adv-x="464" 
d="M-8 0l132 696h17q-14 22 -14 51q0 42 29 69.5t76 27.5t76 -27.5t29 -69.5q0 -29 -14 -51h17l132 -696h-177l-16 113h-98l-16 -113h-173zM232 698q22 0 35.5 14t13.5 34t-13.5 34t-35.5 14t-35.5 -14t-13.5 -34t13.5 -34t35.5 -14zM201 258h58l-29 209z" />
    <glyph glyph-name="AE" unicode="&#xc6;" horiz-adv-x="619" 
d="M-13 0l151 700h465v-169h-161v-97h144v-164h-144v-101h164v-169h-342v113h-84l-20 -113h-173zM201 258h63v273h-13z" />
    <glyph glyph-name="Ccedilla" unicode="&#xc7;" horiz-adv-x="389" 
d="M250 -132l-160 32l80 106q-72 30 -115 111t-43 209v46q0 171 74 254.5t182 83.5q56 0 103 -22v-176q-45 27 -84 27q-93 0 -93 -176v-26q0 -100 25 -138t68 -38q34 0 88 28v-167q-42 -27 -95 -31z" />
    <glyph glyph-name="Egrave" unicode="&#xc8;" horiz-adv-x="374" 
d="M19 0v700h339v-169h-161v-97h144v-164h-144v-101h164v-169h-342zM249 721h-118l-112 77l172 32z" />
    <glyph glyph-name="Eacute" unicode="&#xc9;" horiz-adv-x="374" 
d="M19 0v700h339v-169h-161v-97h144v-164h-144v-101h164v-169h-342zM131 721l58 109l172 -32l-112 -77h-118z" />
    <glyph glyph-name="Ecircumflex" unicode="&#xca;" horiz-adv-x="374" 
d="M19 0v700h339v-169h-161v-97h144v-164h-144v-101h164v-169h-342zM51 721l74 102h131l74 -102h-100l-40 33l-40 -33h-99z" />
    <glyph glyph-name="Edieresis" unicode="&#xcb;" horiz-adv-x="374" 
d="M19 0v700h339v-169h-161v-97h144v-164h-144v-101h164v-169h-342zM203 721v113h125v-113h-125zM52 721v113h125v-113h-125z" />
    <glyph glyph-name="Igrave" unicode="&#xcc;" horiz-adv-x="220" 
d="M21 0v700h178v-700h-178zM169 721h-118l-112 77l172 32z" />
    <glyph glyph-name="Iacute" unicode="&#xcd;" horiz-adv-x="220" 
d="M21 0v700h178v-700h-178zM51 721l58 109l172 -32l-112 -77h-118z" />
    <glyph glyph-name="Icircumflex" unicode="&#xce;" horiz-adv-x="220" 
d="M21 0v700h178v-700h-178zM-29 721l74 102h131l74 -102h-100l-40 33l-40 -33h-99z" />
    <glyph glyph-name="Idieresis" unicode="&#xcf;" horiz-adv-x="220" 
d="M21 0v700h178v-700h-178zM123 721v113h125v-113h-125zM-28 721v113h125v-113h-125z" />
    <glyph glyph-name="Eth" unicode="&#xd0;" horiz-adv-x="494" 
d="M6 278v148h33v274h166q137 0 207 -84.5t70 -243.5v-44q0 -159 -70 -243.5t-207 -84.5h-166v278h-33zM300 326v48q0 94 -22 128t-65 34v-113h43v-142h-43v-117q42 0 64.5 35.5t22.5 126.5z" />
    <glyph glyph-name="Ntilde" unicode="&#xd1;" horiz-adv-x="477" 
d="M19 0v700h175l93 -270v270h171v-700h-167l-101 287v-287h-171zM313 717q-20 0 -64 15t-57 15q-22 0 -28 -33l-75 12q1 59 21 91t54 32q20 0 64 -15t57 -15q22 0 28 33l75 -12q-1 -59 -21 -91t-54 -32z" />
    <glyph glyph-name="Ograve" unicode="&#xd2;" horiz-adv-x="478" 
d="M239 -15q-108 0 -167.5 86.5t-59.5 252.5v52q0 166 59.5 252.5t167.5 86.5t167.5 -86.5t59.5 -252.5v-52q0 -166 -59.5 -252.5t-167.5 -86.5zM239 149q16 0 25 11.5t14.5 50t5.5 110.5v58q0 72 -5.5 110.5t-14.5 50t-25 11.5t-25 -11.5t-14.5 -50t-5.5 -110.5v-58
q0 -72 5.5 -110.5t14.5 -50t25 -11.5zM298 729h-118l-112 77l172 32z" />
    <glyph glyph-name="Oacute" unicode="&#xd3;" horiz-adv-x="478" 
d="M239 -15q-108 0 -167.5 86.5t-59.5 252.5v52q0 166 59.5 252.5t167.5 86.5t167.5 -86.5t59.5 -252.5v-52q0 -166 -59.5 -252.5t-167.5 -86.5zM239 149q16 0 25 11.5t14.5 50t5.5 110.5v58q0 72 -5.5 110.5t-14.5 50t-25 11.5t-25 -11.5t-14.5 -50t-5.5 -110.5v-58
q0 -72 5.5 -110.5t14.5 -50t25 -11.5zM180 729l58 109l172 -32l-112 -77h-118z" />
    <glyph glyph-name="Ocircumflex" unicode="&#xd4;" horiz-adv-x="478" 
d="M239 -15q-108 0 -167.5 86.5t-59.5 252.5v52q0 166 59.5 252.5t167.5 86.5t167.5 -86.5t59.5 -252.5v-52q0 -166 -59.5 -252.5t-167.5 -86.5zM239 149q16 0 25 11.5t14.5 50t5.5 110.5v58q0 72 -5.5 110.5t-14.5 50t-25 11.5t-25 -11.5t-14.5 -50t-5.5 -110.5v-58
q0 -72 5.5 -110.5t14.5 -50t25 -11.5zM100 729l74 102h131l74 -102h-100l-40 33l-40 -33h-99z" />
    <glyph glyph-name="Otilde" unicode="&#xd5;" horiz-adv-x="478" 
d="M239 -15q-108 0 -167.5 86.5t-59.5 252.5v52q0 166 59.5 252.5t167.5 86.5t167.5 -86.5t59.5 -252.5v-52q0 -166 -59.5 -252.5t-167.5 -86.5zM239 149q16 0 25 11.5t14.5 50t5.5 110.5v58q0 72 -5.5 110.5t-14.5 50t-25 11.5t-25 -11.5t-14.5 -50t-5.5 -110.5v-58
q0 -72 5.5 -110.5t14.5 -50t25 -11.5zM314 725q-20 0 -64 15t-57 15q-22 0 -28 -33l-75 12q1 59 21 91t54 32q20 0 64 -15t57 -15q22 0 28 33l75 -12q-1 -59 -21 -91t-54 -32z" />
    <glyph glyph-name="Odieresis" unicode="&#xd6;" horiz-adv-x="478" 
d="M239 -15q-108 0 -167.5 86.5t-59.5 252.5v52q0 166 59.5 252.5t167.5 86.5t167.5 -86.5t59.5 -252.5v-52q0 -166 -59.5 -252.5t-167.5 -86.5zM239 149q16 0 25 11.5t14.5 50t5.5 110.5v58q0 72 -5.5 110.5t-14.5 50t-25 11.5t-25 -11.5t-14.5 -50t-5.5 -110.5v-58
q0 -72 5.5 -110.5t14.5 -50t25 -11.5zM252 729v113h125v-113h-125zM101 729v113h125v-113h-125z" />
    <glyph glyph-name="multiply" unicode="&#xd7;" horiz-adv-x="436" 
d="M313 148l-95 95l-95 -95l-109 109l95 95l-95 95l109 109l95 -95l95 95l109 -109l-95 -95l95 -95z" />
    <glyph glyph-name="Oslash" unicode="&#xd8;" horiz-adv-x="478" 
d="M386 705h74l-46 -93q52 -90 52 -236v-52q0 -166 -59.5 -252.5t-167.5 -86.5q-75 0 -129 46l-18 -36h-74l46 92q-52 87 -52 237v52q0 166 59.5 252.5t167.5 86.5q76 0 129 -47zM190 321v-19l87 215q-10 38 -38 38q-18 0 -27.5 -12t-15.5 -51t-6 -113v-58zM239 145
q18 0 27.5 12t15.5 51t6 113v58v18l-88 -215q10 -37 39 -37z" />
    <glyph glyph-name="Ugrave" unicode="&#xd9;" horiz-adv-x="458" 
d="M227 -12q-96 0 -153 56t-57 170v486h178v-496q0 -53 34 -53t34 53v496h178v-484q0 -114 -58.5 -171t-155.5 -57zM288 721h-118l-112 77l172 32z" />
    <glyph glyph-name="Uacute" unicode="&#xda;" horiz-adv-x="458" 
d="M227 -12q-96 0 -153 56t-57 170v486h178v-496q0 -53 34 -53t34 53v496h178v-484q0 -114 -58.5 -171t-155.5 -57zM170 721l58 109l172 -32l-112 -77h-118z" />
    <glyph glyph-name="Ucircumflex" unicode="&#xdb;" horiz-adv-x="458" 
d="M227 -12q-96 0 -153 56t-57 170v486h178v-496q0 -53 34 -53t34 53v496h178v-484q0 -114 -58.5 -171t-155.5 -57zM90 721l74 102h131l74 -102h-100l-40 33l-40 -33h-99z" />
    <glyph glyph-name="Udieresis" unicode="&#xdc;" horiz-adv-x="458" 
d="M227 -12q-96 0 -153 56t-57 170v486h178v-496q0 -53 34 -53t34 53v496h178v-484q0 -114 -58.5 -171t-155.5 -57zM242 721v113h125v-113h-125zM91 721v113h125v-113h-125z" />
    <glyph glyph-name="Yacute" unicode="&#xdd;" horiz-adv-x="436" 
d="M129 0v245l-136 455h180l48 -231l46 231h176l-136 -455v-245h-178zM159 721l58 109l172 -32l-112 -77h-118z" />
    <glyph glyph-name="Thorn" unicode="&#xde;" horiz-adv-x="432" 
d="M19 0v700h176v-86h3q102 0 167 -61t65 -178v-16q0 -66 -21.5 -115.5t-56.5 -76t-73 -39.5t-77 -13h-7v-115h-176zM195 269h3q56 0 56 85v21q0 85 -56 85h-3v-191z" />
    <glyph glyph-name="germandbls" unicode="&#xdf;" horiz-adv-x="462" 
d="M229 -4v148q49 12 49 75v4q0 64 -49 78v129q37 23 37 83v7q0 56 -34 56q-38 0 -38 -83v-493h-174v494q0 107 52.5 166.5t161.5 59.5q102 0 153.5 -51t51.5 -129v-11q0 -97 -84 -149q47 -27 71.5 -66.5t24.5 -106.5v-4q0 -104 -54 -154.5t-168 -52.5z" />
    <glyph glyph-name="agrave" unicode="&#xe0;" horiz-adv-x="402" 
d="M120 -10q-50 0 -82 42t-32 120v17q0 88 36 130t95 42q41 0 77 -19v9q0 66 -69 66q-57 0 -109 -29v161q69 27 154 27q95 0 145 -50q52 -52 52 -156v-350h-173v45q-36 -55 -94 -55zM188 110q27 0 27 42v74q-16 7 -26 7q-29 0 -29 -51v-25q0 -47 28 -47zM161 577l-123 92
l152 37l69 -129h-98z" />
    <glyph glyph-name="aacute" unicode="&#xe1;" horiz-adv-x="402" 
d="M120 -10q-50 0 -82 42t-32 120v17q0 88 36 130t95 42q41 0 77 -19v9q0 66 -69 66q-57 0 -109 -29v161q69 27 154 27q95 0 145 -50q52 -52 52 -156v-350h-173v45q-36 -55 -94 -55zM188 110q27 0 27 42v74q-16 7 -26 7q-29 0 -29 -51v-25q0 -47 28 -47zM145 577l69 129
l152 -37l-123 -92h-98z" />
    <glyph glyph-name="acircumflex" unicode="&#xe2;" horiz-adv-x="402" 
d="M120 -10q-50 0 -82 42t-32 120v17q0 88 36 130t95 42q41 0 77 -19v9q0 66 -69 66q-57 0 -109 -29v161q69 27 154 27q95 0 145 -50q52 -52 52 -156v-350h-173v45q-36 -55 -94 -55zM188 110q27 0 27 42v74q-16 7 -26 7q-29 0 -29 -51v-25q0 -47 28 -47zM63 577l79 117h121
l79 -117h-94l-46 39l-46 -39h-93z" />
    <glyph glyph-name="atilde" unicode="&#xe3;" horiz-adv-x="402" 
d="M120 -10q-50 0 -82 42t-32 120v17q0 88 36 130t95 42q41 0 77 -19v9q0 66 -69 66q-57 0 -109 -29v161q69 27 154 27q95 0 145 -50q52 -52 52 -156v-350h-173v45q-36 -55 -94 -55zM188 110q27 0 27 42v74q-16 7 -26 7q-29 0 -29 -51v-25q0 -47 28 -47zM277 573
q-20 0 -64 15t-57 15q-22 0 -28 -33l-75 12q1 59 21 91t54 32q20 0 64 -15t57 -15q22 0 28 33l75 -12q-1 -59 -21 -91t-54 -32z" />
    <glyph glyph-name="adieresis" unicode="&#xe4;" horiz-adv-x="402" 
d="M120 -10q-50 0 -82 42t-32 120v17q0 88 36 130t95 42q41 0 77 -19v9q0 66 -69 66q-57 0 -109 -29v161q69 27 154 27q95 0 145 -50q52 -52 52 -156v-350h-173v45q-36 -55 -94 -55zM188 110q27 0 27 42v74q-16 7 -26 7q-29 0 -29 -51v-25q0 -47 28 -47zM214 577v123h121
v-123h-121zM69 577v123h121v-123h-121z" />
    <glyph glyph-name="aring" unicode="&#xe5;" horiz-adv-x="402" 
d="M120 -10q-50 0 -82 42t-32 120v17q0 88 36 130t95 42q41 0 77 -19v9q0 66 -69 66q-57 0 -109 -29v161q69 27 154 27q95 0 145 -50q52 -52 52 -156v-350h-173v45q-36 -55 -94 -55zM188 110q27 0 27 42v74q-16 7 -26 7q-29 0 -29 -51v-25q0 -47 28 -47zM202 573
q-42 0 -70.5 28.5t-28.5 70.5q0 40 29 68.5t70 28.5q42 0 70.5 -28.5t28.5 -70.5q0 -40 -29 -68.5t-70 -28.5zM202 623q19 0 31 13.5t12 34.5t-12 34.5t-31 13.5t-31 -13.5t-12 -34.5t12 -34.5t31 -13.5z" />
    <glyph glyph-name="ae" unicode="&#xe6;" horiz-adv-x="607" 
d="M141 -10q-58 0 -96.5 43t-38.5 124v17q0 85 36 126t95 41q41 0 77 -19v9q0 66 -69 66q-57 0 -109 -29v161q69 27 149 27q73 0 121 -42q43 45 107 45q84 0 133.5 -71t49.5 -203v-83h-220q11 -61 78 -61q59 0 120 39l9 -151q-70 -42 -157 -42q-105 0 -161 82
q-23 -37 -55.5 -58t-68.5 -21zM374 309h62q0 59 -7.5 81t-23.5 22q-10 0 -16 -6.5t-10.5 -30.5t-4.5 -66zM191 110q25 0 37 41q-10 37 -11 73q-16 9 -28 9q-29 0 -29 -51v-25q0 -47 31 -47z" />
    <glyph glyph-name="ccedilla" unicode="&#xe7;" horiz-adv-x="332" 
d="M219 -132l-160 32l78 104q-126 48 -126 250v43q0 124 56.5 191.5t147.5 67.5q55 0 102 -21v-163q-36 21 -66 21q-66 0 -66 -107v-24q0 -109 67 -109q29 0 67 22v-161q-31 -16 -69 -22z" />
    <glyph glyph-name="egrave" unicode="&#xe8;" horiz-adv-x="412" 
d="M228 -13q-102 0 -159.5 68.5t-57.5 198.5v35q0 128 55.5 199t146.5 71q87 0 137.5 -70.5t50.5 -203.5v-83h-220q6 -33 24.5 -47t53.5 -14q59 0 120 39l9 -151q-70 -42 -160 -42zM179 309h62q0 59 -7.5 81t-23.5 22q-10 0 -16 -6.5t-10.5 -30.5t-4.5 -66zM171 577l-123 92
l152 37l69 -129h-98z" />
    <glyph glyph-name="eacute" unicode="&#xe9;" horiz-adv-x="412" 
d="M228 -13q-102 0 -159.5 68.5t-57.5 198.5v35q0 128 55.5 199t146.5 71q87 0 137.5 -70.5t50.5 -203.5v-83h-220q6 -33 24.5 -47t53.5 -14q59 0 120 39l9 -151q-70 -42 -160 -42zM179 309h62q0 59 -7.5 81t-23.5 22q-10 0 -16 -6.5t-10.5 -30.5t-4.5 -66zM155 577l69 129
l152 -37l-123 -92h-98z" />
    <glyph glyph-name="ecircumflex" unicode="&#xea;" horiz-adv-x="412" 
d="M228 -13q-102 0 -159.5 68.5t-57.5 198.5v35q0 128 55.5 199t146.5 71q87 0 137.5 -70.5t50.5 -203.5v-83h-220q6 -33 24.5 -47t53.5 -14q59 0 120 39l9 -151q-70 -42 -160 -42zM179 309h62q0 59 -7.5 81t-23.5 22q-10 0 -16 -6.5t-10.5 -30.5t-4.5 -66zM73 577l79 117
h121l79 -117h-94l-46 39l-46 -39h-93z" />
    <glyph glyph-name="edieresis" unicode="&#xeb;" horiz-adv-x="412" 
d="M228 -13q-102 0 -159.5 68.5t-57.5 198.5v35q0 128 55.5 199t146.5 71q87 0 137.5 -70.5t50.5 -203.5v-83h-220q6 -33 24.5 -47t53.5 -14q59 0 120 39l9 -151q-70 -42 -160 -42zM179 309h62q0 59 -7.5 81t-23.5 22q-10 0 -16 -6.5t-10.5 -30.5t-4.5 -66zM224 577v123h121
v-123h-121zM79 577v123h121v-123h-121z" />
    <glyph glyph-name="igrave" unicode="&#xec;" horiz-adv-x="214" 
d="M20 0v546h174v-546h-174zM66 569l-123 92l152 37l69 -129h-98z" />
    <glyph glyph-name="iacute" unicode="&#xed;" horiz-adv-x="214" 
d="M20 0v546h174v-546h-174zM50 569l69 129l152 -37l-123 -92h-98z" />
    <glyph glyph-name="icircumflex" unicode="&#xee;" horiz-adv-x="214" 
d="M20 0v546h174v-546h-174zM-32 569l79 117h121l79 -117h-94l-46 39l-46 -39h-93z" />
    <glyph glyph-name="idieresis" unicode="&#xef;" horiz-adv-x="214" 
d="M20 0v546h174v-546h-174zM119 569v123h121v-123h-121zM-26 569v123h121v-123h-121z" />
    <glyph glyph-name="eth" unicode="&#xf0;" horiz-adv-x="425" 
d="M373 648l-44 -13q84 -136 84 -312v-36q0 -300 -202 -300q-94 0 -147 68.5t-53 198.5v56q0 123 37 183t94 60q41 0 83 -37q-14 37 -40 78l-73 -20l-21 69l46 13q-34 36 -62 59h192l17 -18l68 20zM213 140q17 0 23 23t6 85v50q0 62 -6 85t-23 23t-23 -23t-6 -85v-50
q0 -62 6 -85t23 -23z" />
    <glyph glyph-name="ntilde" unicode="&#xf1;" horiz-adv-x="424" 
d="M18 0v546h174v-62q41 72 108 72q54 0 81.5 -36t27.5 -97v-423h-174v372q0 28 -21 28q-22 0 -22 -28v-372h-174zM288 573q-20 0 -64 15t-57 15q-22 0 -28 -33l-75 12q1 59 21 91t54 32q20 0 64 -15t57 -15q22 0 28 33l75 -12q-1 -59 -21 -91t-54 -32z" />
    <glyph glyph-name="ograve" unicode="&#xf2;" horiz-adv-x="426" 
d="M212 -13q-92 0 -146.5 67t-54.5 193v52q0 126 54.5 193t148.5 67q92 0 146.5 -67t54.5 -193v-52q0 -126 -54.5 -193t-148.5 -67zM213 140q17 0 23 23t6 85v50q0 62 -6 85t-23 23t-23 -23t-6 -85v-50q0 -62 6 -85t23 -23zM172 577l-123 92l152 37l69 -129h-98z" />
    <glyph glyph-name="oacute" unicode="&#xf3;" horiz-adv-x="426" 
d="M212 -13q-92 0 -146.5 67t-54.5 193v52q0 126 54.5 193t148.5 67q92 0 146.5 -67t54.5 -193v-52q0 -126 -54.5 -193t-148.5 -67zM213 140q17 0 23 23t6 85v50q0 62 -6 85t-23 23t-23 -23t-6 -85v-50q0 -62 6 -85t23 -23zM156 577l69 129l152 -37l-123 -92h-98z" />
    <glyph glyph-name="ocircumflex" unicode="&#xf4;" horiz-adv-x="426" 
d="M212 -13q-92 0 -146.5 67t-54.5 193v52q0 126 54.5 193t148.5 67q92 0 146.5 -67t54.5 -193v-52q0 -126 -54.5 -193t-148.5 -67zM213 140q17 0 23 23t6 85v50q0 62 -6 85t-23 23t-23 -23t-6 -85v-50q0 -62 6 -85t23 -23zM74 577l79 117h121l79 -117h-94l-46 39l-46 -39
h-93z" />
    <glyph glyph-name="otilde" unicode="&#xf5;" horiz-adv-x="426" 
d="M212 -13q-92 0 -146.5 67t-54.5 193v52q0 126 54.5 193t148.5 67q92 0 146.5 -67t54.5 -193v-52q0 -126 -54.5 -193t-148.5 -67zM213 140q17 0 23 23t6 85v50q0 62 -6 85t-23 23t-23 -23t-6 -85v-50q0 -62 6 -85t23 -23zM288 573q-20 0 -64 15t-57 15q-22 0 -28 -33
l-75 12q1 59 21 91t54 32q20 0 64 -15t57 -15q22 0 28 33l75 -12q-1 -59 -21 -91t-54 -32z" />
    <glyph glyph-name="odieresis" unicode="&#xf6;" horiz-adv-x="426" 
d="M212 -13q-92 0 -146.5 67t-54.5 193v52q0 126 54.5 193t148.5 67q92 0 146.5 -67t54.5 -193v-52q0 -126 -54.5 -193t-148.5 -67zM213 140q17 0 23 23t6 85v50q0 62 -6 85t-23 23t-23 -23t-6 -85v-50q0 -62 6 -85t23 -23zM225 577v123h121v-123h-121zM80 577v123h121v-123
h-121z" />
    <glyph glyph-name="divide" unicode="&#xf7;" horiz-adv-x="436" 
d="M141 467v136h154v-136h-154zM416 279h-396v146h396v-146zM141 101v136h154v-136h-154z" />
    <glyph glyph-name="oslash" unicode="&#xf8;" horiz-adv-x="426" 
d="M349 546h70l-45 -78q41 -66 41 -169v-52q0 -126 -54.5 -193t-148.5 -67q-70 0 -119 42l-16 -29h-70l45 77q-41 68 -41 170v52q0 126 54.5 193t148.5 67q68 0 119 -42zM213 133q18 0 25.5 24t7.5 88v40l-60 -122q7 -30 27 -30zM180 301v-40l60 122q-8 30 -27 30
q-18 0 -25.5 -24t-7.5 -88z" />
    <glyph glyph-name="ugrave" unicode="&#xf9;" horiz-adv-x="424" 
d="M124 -10q-54 0 -81.5 35.5t-27.5 96.5v424h174v-372q0 -28 21 -28q22 0 22 28v372h174v-546h-174v62q-41 -72 -108 -72zM169 569l-123 92l152 37l69 -129h-98z" />
    <glyph glyph-name="uacute" unicode="&#xfa;" horiz-adv-x="424" 
d="M124 -10q-54 0 -81.5 35.5t-27.5 96.5v424h174v-372q0 -28 21 -28q22 0 22 28v372h174v-546h-174v62q-41 -72 -108 -72zM153 569l69 129l152 -37l-123 -92h-98z" />
    <glyph glyph-name="ucircumflex" unicode="&#xfb;" horiz-adv-x="424" 
d="M124 -10q-54 0 -81.5 35.5t-27.5 96.5v424h174v-372q0 -28 21 -28q22 0 22 28v372h174v-546h-174v62q-41 -72 -108 -72zM71 569l79 117h121l79 -117h-94l-46 39l-46 -39h-93z" />
    <glyph glyph-name="udieresis" unicode="&#xfc;" horiz-adv-x="424" 
d="M124 -10q-54 0 -81.5 35.5t-27.5 96.5v424h174v-372q0 -28 21 -28q22 0 22 28v372h174v-546h-174v62q-41 -72 -108 -72zM222 569v123h121v-123h-121zM77 569v123h121v-123h-121z" />
    <glyph glyph-name="yacute" unicode="&#xfd;" horiz-adv-x="404" 
d="M204 272l37 274h172l-162 -676h-172l34 138l-121 538h174zM145 569l69 129l152 -37l-123 -92h-98z" />
    <glyph glyph-name="thorn" unicode="&#xfe;" horiz-adv-x="437" 
d="M18 -130v845h174v-231q22 37 45.5 54.5t58.5 17.5q127 0 127 -254v-58q0 -254 -127 -254q-35 0 -58.5 17.5t-45.5 54.5v-192h-174zM220 143q16 0 22.5 21t6.5 72v74q0 51 -6.5 72t-22.5 21t-22.5 -21t-6.5 -72v-74q0 -51 6.5 -72t22.5 -21z" />
    <glyph glyph-name="ydieresis" unicode="&#xff;" horiz-adv-x="404" 
d="M204 272l37 274h172l-162 -676h-172l34 138l-121 538h174zM69 569v123h121v-123h-121zM214 569v123h121v-123h-121z" />
    <glyph glyph-name="Amacron" unicode="&#x100;" horiz-adv-x="464" 
d="M-8 0l133 701h214l133 -701h-177l-16 113h-98l-16 -113h-173zM201 258h58l-29 209zM94 731v105h276v-105h-276z" />
    <glyph glyph-name="amacron" unicode="&#x101;" horiz-adv-x="402" 
d="M120 -10q-50 0 -82 42t-32 120v17q0 88 36 130t95 42q41 0 77 -19v9q0 66 -69 66q-57 0 -109 -29v161q69 27 154 27q95 0 145 -50q52 -52 52 -156v-350h-173v45q-36 -55 -94 -55zM188 110q27 0 27 42v74q-16 7 -26 7q-29 0 -29 -51v-25q0 -47 28 -47zM70 579v103h264
v-103h-264z" />
    <glyph glyph-name="Abreve" unicode="&#x102;" horiz-adv-x="464" 
d="M-8 0l133 701h214l133 -701h-177l-16 113h-98l-16 -113h-173zM201 258h58l-29 209zM232 727q-121 0 -128 104h90q8 -26 38 -26t38 26h90q-7 -104 -128 -104z" />
    <glyph glyph-name="abreve" unicode="&#x103;" horiz-adv-x="402" 
d="M120 -10q-50 0 -82 42t-32 120v17q0 88 36 130t95 42q41 0 77 -19v9q0 66 -69 66q-57 0 -109 -29v161q69 27 154 27q95 0 145 -50q52 -52 52 -156v-350h-173v45q-36 -55 -94 -55zM188 110q27 0 27 42v74q-16 7 -26 7q-29 0 -29 -51v-25q0 -47 28 -47zM202 575
q-57 0 -91.5 29.5t-40.5 89.5h90q6 -39 42 -39t42 39h90q-6 -60 -40.5 -89.5t-91.5 -29.5z" />
    <glyph glyph-name="Aogonek" unicode="&#x104;" horiz-adv-x="464" 
d="M481 -52v-86q-27 -4 -66 -4q-125 0 -125 63q0 38 41 79h-36l-16 113h-98l-16 -113h-173l133 701h214l133 -701h-27q-13 -18 -13 -29q0 -9 9.5 -14t39.5 -9zM201 258h58l-29 209z" />
    <glyph glyph-name="aogonek" unicode="&#x105;" horiz-adv-x="402" 
d="M398 -52v-86q-27 -4 -66 -4q-125 0 -125 63q0 38 41 79h-34v45q-36 -55 -94 -55q-50 0 -82 42t-32 120v17q0 88 36 130t95 42q41 0 77 -19v9q0 66 -69 66q-57 0 -109 -29v161q69 27 154 27q95 0 145 -50q52 -52 52 -156v-350h-25q-13 -18 -13 -29q0 -9 9.5 -14t39.5 -9z
M188 110q27 0 27 42v74q-16 7 -26 7q-29 0 -29 -51v-25q0 -47 28 -47z" />
    <glyph glyph-name="Cacute" unicode="&#x106;" horiz-adv-x="389" 
d="M256 -10q-106 0 -175 86t-69 250v46q0 171 74 254.5t182 83.5q56 0 103 -22v-176q-45 27 -84 27q-93 0 -93 -176v-26q0 -100 25 -138t68 -38q34 0 88 28v-167q-50 -32 -119 -32zM185 729l58 109l172 -32l-112 -77h-118z" />
    <glyph glyph-name="cacute" unicode="&#x107;" horiz-adv-x="332" 
d="M215 -10q-97 0 -150.5 68t-53.5 196v43q0 124 56.5 191.5t147.5 67.5q55 0 102 -21v-163q-36 21 -66 21q-66 0 -66 -107v-24q0 -109 67 -109q29 0 67 22v-161q-48 -24 -104 -24zM149 577l69 129l152 -37l-123 -92h-98z" />
    <glyph glyph-name="Cdotaccent" unicode="&#x10a;" horiz-adv-x="389" 
d="M256 -10q-106 0 -175 86t-69 250v46q0 171 74 254.5t182 83.5q56 0 103 -22v-176q-45 27 -84 27q-93 0 -93 -176v-26q0 -100 25 -138t68 -38q34 0 88 28v-167q-50 -32 -119 -32zM177 729v113h134v-113h-134z" />
    <glyph glyph-name="cdotaccent" unicode="&#x10b;" horiz-adv-x="332" 
d="M215 -10q-97 0 -150.5 68t-53.5 196v43q0 124 56.5 191.5t147.5 67.5q55 0 102 -21v-163q-36 21 -66 21q-66 0 -66 -107v-24q0 -109 67 -109q29 0 67 22v-161q-48 -24 -104 -24zM140 577v123h132v-123h-132z" />
    <glyph glyph-name="Ccaron" unicode="&#x10c;" horiz-adv-x="389" 
d="M256 -10q-106 0 -175 86t-69 250v46q0 171 74 254.5t182 83.5q56 0 103 -22v-176q-45 27 -84 27q-93 0 -93 -176v-26q0 -100 25 -138t68 -38q34 0 88 28v-167q-50 -32 -119 -32zM384 831l-74 -102h-131l-74 102h100l40 -33l40 33h99z" />
    <glyph glyph-name="ccaron" unicode="&#x10d;" horiz-adv-x="332" 
d="M215 -10q-97 0 -150.5 68t-53.5 196v43q0 124 56.5 191.5t147.5 67.5q55 0 102 -21v-163q-36 21 -66 21q-66 0 -66 -107v-24q0 -109 67 -109q29 0 67 22v-161q-48 -24 -104 -24zM346 694l-79 -117h-121l-79 117h94l46 -39l46 39h93z" />
    <glyph glyph-name="Dcaron" unicode="&#x10e;" horiz-adv-x="474" 
d="M19 0v700h166q137 0 207 -84.5t70 -243.5v-44q0 -159 -70 -243.5t-207 -84.5h-166zM280 374q0 92 -21 126t-62 36v-372q40 1 61.5 36.5t21.5 125.5v48zM368 823l-74 -102h-131l-74 102h100l40 -33l40 33h99z" />
    <glyph glyph-name="dcaron" unicode="&#x10f;" horiz-adv-x="437" 
d="M141 -10q-127 0 -127 254v58q0 254 127 254q35 0 58.5 -17.5t45.5 -54.5v231h174v-715h-174v62q-22 -37 -45.5 -54.5t-58.5 -17.5zM217 143q16 0 22.5 21t6.5 72v74q0 51 -6.5 72t-22.5 21t-22.5 -21t-6.5 -72v-74q0 -51 6.5 -72t22.5 -21zM439 566l7 149h92l-40 -149
h-59z" />
    <glyph glyph-name="Dcroat" unicode="&#x110;" horiz-adv-x="494" 
d="M6 278v148h33v274h166q137 0 207 -84.5t70 -243.5v-44q0 -159 -70 -243.5t-207 -84.5h-166v278h-33zM300 326v48q0 94 -22 128t-65 34v-113h43v-142h-43v-117q42 0 64.5 35.5t22.5 126.5z" />
    <glyph glyph-name="dcroat" unicode="&#x111;" horiz-adv-x="437" 
d="M181 572v110h64v33h174v-33h21v-114h-21v-568h-174v62q-22 -37 -45.5 -54.5t-58.5 -17.5q-127 0 -127 254v58q0 254 127 254q35 0 58.5 -17.5t45.5 -54.5v88h-64zM217 143q16 0 22.5 21t6.5 72v74q0 51 -6.5 72t-22.5 21t-22.5 -21t-6.5 -72v-74q0 -51 6.5 -72t22.5 -21z
" />
    <glyph glyph-name="Emacron" unicode="&#x112;" horiz-adv-x="374" 
d="M19 0v700h339v-169h-161v-97h144v-164h-144v-101h164v-169h-342zM52 723v105h276v-105h-276z" />
    <glyph glyph-name="emacron" unicode="&#x113;" horiz-adv-x="412" 
d="M228 -13q-102 0 -159.5 68.5t-57.5 198.5v35q0 128 55.5 199t146.5 71q87 0 137.5 -70.5t50.5 -203.5v-83h-220q6 -33 24.5 -47t53.5 -14q59 0 120 39l9 -151q-70 -42 -160 -42zM179 309h62q0 59 -7.5 81t-23.5 22q-10 0 -16 -6.5t-10.5 -30.5t-4.5 -66zM80 579v103h264
v-103h-264z" />
    <glyph glyph-name="Ebreve" unicode="&#x114;" horiz-adv-x="374" 
d="M19 0v700h339v-169h-161v-97h144v-164h-144v-101h164v-169h-342zM190 719q-121 0 -128 104h90q8 -26 38 -26t38 26h90q-7 -104 -128 -104z" />
    <glyph glyph-name="ebreve" unicode="&#x115;" horiz-adv-x="412" 
d="M228 -13q-102 0 -159.5 68.5t-57.5 198.5v35q0 128 55.5 199t146.5 71q87 0 137.5 -70.5t50.5 -203.5v-83h-220q6 -33 24.5 -47t53.5 -14q59 0 120 39l9 -151q-70 -42 -160 -42zM179 309h62q0 59 -7.5 81t-23.5 22q-10 0 -16 -6.5t-10.5 -30.5t-4.5 -66zM212 575
q-57 0 -91.5 29.5t-40.5 89.5h90q6 -39 42 -39t42 39h90q-6 -60 -40.5 -89.5t-91.5 -29.5z" />
    <glyph glyph-name="Edotaccent" unicode="&#x116;" horiz-adv-x="374" 
d="M19 0v700h339v-169h-161v-97h144v-164h-144v-101h164v-169h-342zM123 721v113h134v-113h-134z" />
    <glyph glyph-name="edotaccent" unicode="&#x117;" horiz-adv-x="412" 
d="M228 -13q-102 0 -159.5 68.5t-57.5 198.5v35q0 128 55.5 199t146.5 71q87 0 137.5 -70.5t50.5 -203.5v-83h-220q6 -33 24.5 -47t53.5 -14q59 0 120 39l9 -151q-70 -42 -160 -42zM179 309h62q0 59 -7.5 81t-23.5 22q-10 0 -16 -6.5t-10.5 -30.5t-4.5 -66zM146 577v123h132
v-123h-132z" />
    <glyph glyph-name="Eogonek" unicode="&#x118;" horiz-adv-x="374" 
d="M19 0v700h339v-169h-161v-97h144v-164h-144v-101h164v-169h-33q-13 -18 -13 -29q0 -9 9.5 -14t39.5 -9v-86q-27 -4 -66 -4q-125 0 -125 63q0 38 41 79h-195z" />
    <glyph glyph-name="eogonek" unicode="&#x119;" horiz-adv-x="412" 
d="M379 180l9 -148q-43 -39 -43 -61q0 -9 9.5 -14t39.5 -9v-86q-27 -4 -66 -4q-125 0 -125 63q0 33 31 68h-6q-102 0 -159.5 67.5t-57.5 197.5v35q0 128 55.5 199t146.5 71q87 0 137.5 -70.5t50.5 -203.5v-83h-220q6 -33 24.5 -47t53.5 -14q59 0 120 39zM179 309h62
q0 59 -7.5 81t-23.5 22q-10 0 -16 -6.5t-10.5 -30.5t-4.5 -66z" />
    <glyph glyph-name="Ecaron" unicode="&#x11a;" horiz-adv-x="374" 
d="M19 0v700h339v-169h-161v-97h144v-164h-144v-101h164v-169h-342zM330 823l-74 -102h-131l-74 102h100l40 -33l40 33h99z" />
    <glyph glyph-name="ecaron" unicode="&#x11b;" horiz-adv-x="412" 
d="M228 -13q-102 0 -159.5 68.5t-57.5 198.5v35q0 128 55.5 199t146.5 71q87 0 137.5 -70.5t50.5 -203.5v-83h-220q6 -33 24.5 -47t53.5 -14q59 0 120 39l9 -151q-70 -42 -160 -42zM179 309h62q0 59 -7.5 81t-23.5 22q-10 0 -16 -6.5t-10.5 -30.5t-4.5 -66zM352 694
l-79 -117h-121l-79 117h94l46 -39l46 39h93z" />
    <glyph glyph-name="Gbreve" unicode="&#x11e;" horiz-adv-x="456" 
d="M263 -10q-112 0 -181.5 85t-69.5 247v55q0 159 75 246t190 87q77 0 136 -32v-177q-61 39 -116 39q-103 0 -103 -160v-61q0 -168 69 -168q7 0 13 3v113h-46v156h207v-384q-89 -49 -174 -49zM260 727q-121 0 -128 104h90q8 -26 38 -26t38 26h90q-7 -104 -128 -104z" />
    <glyph glyph-name="gbreve" unicode="&#x11f;" horiz-adv-x="437" 
d="M188 -135q-78 0 -152 19v147q76 -23 142 -23q70 0 70 72v31q-46 -68 -107 -68q-127 0 -127 235v36q0 242 127 242q35 0 58.5 -17.5t45.5 -54.5v62h174v-456q0 -113 -55 -168q-57 -57 -176 -57zM217 191q16 0 22.5 20t6.5 69v34q0 49 -6.5 69t-22.5 20t-22.5 -20t-6.5 -69
v-34q0 -49 6.5 -69t22.5 -20zM229 575q-57 0 -91.5 29.5t-40.5 89.5h90q6 -39 42 -39t42 39h90q-6 -60 -40.5 -89.5t-91.5 -29.5z" />
    <glyph glyph-name="Gdotaccent" unicode="&#x120;" horiz-adv-x="456" 
d="M263 -10q-112 0 -181.5 85t-69.5 247v55q0 159 75 246t190 87q77 0 136 -32v-177q-61 39 -116 39q-103 0 -103 -160v-61q0 -168 69 -168q7 0 13 3v113h-46v156h207v-384q-89 -49 -174 -49zM193 729v113h134v-113h-134z" />
    <glyph glyph-name="gdotaccent" unicode="&#x121;" horiz-adv-x="437" 
d="M188 -135q-78 0 -152 19v147q76 -23 142 -23q70 0 70 72v31q-46 -68 -107 -68q-127 0 -127 235v36q0 242 127 242q35 0 58.5 -17.5t45.5 -54.5v62h174v-456q0 -113 -55 -168q-57 -57 -176 -57zM217 191q16 0 22.5 20t6.5 69v34q0 49 -6.5 69t-22.5 20t-22.5 -20t-6.5 -69
v-34q0 -49 6.5 -69t22.5 -20zM163 577v123h132v-123h-132z" />
    <glyph glyph-name="Gcommaaccent" unicode="&#x122;" horiz-adv-x="456" 
d="M263 -10q-112 0 -181.5 85t-69.5 247v55q0 159 75 246t190 87q77 0 136 -32v-177q-61 39 -116 39q-103 0 -103 -160v-61q0 -168 69 -168q7 0 13 3v113h-46v156h207v-384q-89 -49 -174 -49zM197 -223l-10 44q62 12 67 42h-63v103h127v-82q0 -88 -121 -107z" />
    <glyph glyph-name="gcommaaccent" unicode="&#x123;" horiz-adv-x="437" 
d="M188 -135q-78 0 -152 19v147q76 -23 142 -23q70 0 70 72v31q-46 -68 -107 -68q-127 0 -127 235v36q0 242 127 242q35 0 58.5 -17.5t45.5 -54.5v62h174v-456q0 -113 -55 -168q-57 -57 -176 -57zM217 191q16 0 22.5 20t6.5 69v34q0 49 -6.5 69t-22.5 20t-22.5 -20t-6.5 -69
v-34q0 -49 6.5 -69t22.5 -20zM286 766l10 -44q-62 -12 -67 -42h63v-103h-127v82q0 88 121 107z" />
    <glyph glyph-name="Hbar" unicode="&#x126;" horiz-adv-x="508" 
d="M6 505v133h33v62h178v-66h74v66h178v-62h33v-133h-33v-505h-178v267h-74v-267h-178v505h-33zM217 431h74v78h-74v-78z" />
    <glyph glyph-name="hbar" unicode="&#x127;" horiz-adv-x="424" 
d="M256 572h-64v-88q41 72 108 72q54 0 81.5 -35.5t27.5 -96.5v-424h-174v372q0 28 -21 28q-22 0 -22 -28v-372h-174v568h-21v114h21v33h174v-33h64v-110z" />
    <glyph glyph-name="Imacron" unicode="&#x12a;" horiz-adv-x="220" 
d="M21 0v700h178v-700h-178zM-28 723v105h276v-105h-276z" />
    <glyph glyph-name="imacron" unicode="&#x12b;" horiz-adv-x="214" 
d="M20 0v546h174v-546h-174zM-25 571v103h264v-103h-264z" />
    <glyph glyph-name="Ibreve" unicode="&#x12c;" horiz-adv-x="220" 
d="M21 0v700h178v-700h-178zM110 719q-121 0 -128 104h90q8 -26 38 -26t38 26h90q-7 -104 -128 -104z" />
    <glyph glyph-name="ibreve" unicode="&#x12d;" horiz-adv-x="214" 
d="M20 0v546h174v-546h-174zM107 567q-57 0 -91.5 29.5t-40.5 89.5h90q6 -39 42 -39t42 39h90q-6 -60 -40.5 -89.5t-91.5 -29.5z" />
    <glyph glyph-name="Iogonek" unicode="&#x12e;" horiz-adv-x="220" 
d="M21 0v700h178v-700h-30q-13 -18 -13 -29q0 -9 9.5 -14t39.5 -9v-86q-27 -4 -66 -4q-125 0 -125 63q0 38 41 79h-34z" />
    <glyph glyph-name="iogonek" unicode="&#x12f;" horiz-adv-x="214" 
d="M20 0v546h174v-546h-27q-13 -18 -13 -29q0 -9 9.5 -14t39.5 -9v-86q-27 -4 -66 -4q-125 0 -125 63q0 38 41 79h-33zM19 576v139h176v-139h-176z" />
    <glyph glyph-name="Idotaccent" unicode="&#x130;" horiz-adv-x="220" 
d="M21 0v700h178v-700h-178zM43 721v113h134v-113h-134z" />
    <glyph glyph-name="dotlessi" unicode="&#x131;" horiz-adv-x="214" 
d="M20 0v546h174v-546h-174z" />
    <glyph glyph-name="Kcommaaccent" unicode="&#x136;" horiz-adv-x="446" 
d="M19 0v700h178v-233l68 233h180l-103 -297l107 -403h-185l-50 223l-17 -49v-174h-178zM169 -215l-10 44q62 12 67 42h-63v103h127v-82q0 -88 -121 -107z" />
    <glyph glyph-name="kcommaaccent" unicode="&#x137;" horiz-adv-x="416" 
d="M18 0v715h174v-325l50 156h175l-82 -225l86 -321h-177l-39 180l-13 -31v-149h-174zM151 -215l-10 44q62 12 67 42h-63v103h127v-82q0 -88 -121 -107z" />
    <glyph glyph-name="Lacute" unicode="&#x139;" horiz-adv-x="342" 
d="M19 0v700h178v-531h138v-169h-316zM58 721l58 109l172 -32l-112 -77h-118z" />
    <glyph glyph-name="lacute" unicode="&#x13a;" horiz-adv-x="214" 
d="M20 0v715h174v-715h-174zM48 732l58 109l172 -32l-112 -77h-118z" />
    <glyph glyph-name="Lcommaaccent" unicode="&#x13b;" horiz-adv-x="342" 
d="M19 0v700h178v-531h138v-169h-316zM122 -215l-10 44q62 12 67 42h-63v103h127v-82q0 -88 -121 -107z" />
    <glyph glyph-name="lcommaaccent" unicode="&#x13c;" horiz-adv-x="214" 
d="M20 0v715h174v-715h-174zM52 -215l-10 44q62 12 67 42h-63v103h127v-82q0 -88 -121 -107z" />
    <glyph glyph-name="Lcaron" unicode="&#x13d;" horiz-adv-x="342" 
d="M19 0v700h178v-531h138v-169h-316zM217 551l7 149h92l-40 -149h-59z" />
    <glyph glyph-name="lcaron" unicode="&#x13e;" horiz-adv-x="214" 
d="M20 0v715h174v-715h-174zM214 566l7 149h92l-40 -149h-59z" />
    <glyph glyph-name="Ldot" unicode="&#x13f;" horiz-adv-x="342" 
d="M219 305v164h122v-164h-122zM19 0v700h178v-531h138v-169h-316z" />
    <glyph glyph-name="ldot" unicode="&#x140;" horiz-adv-x="344" 
d="M218 271v164h122v-164h-122zM20 0v715h174v-715h-174z" />
    <glyph glyph-name="Lslash" unicode="&#x141;" horiz-adv-x="362" 
d="M293 326l-76 -39v-118h138v-169h-316v197l-33 -17v181l33 17v322h178v-232l76 39v-181z" />
    <glyph glyph-name="lslash" unicode="&#x142;" horiz-adv-x="260" 
d="M254 331l-37 -19v-312h-174v223l-37 -19v171l37 19v321h174v-232l37 19v-171z" />
    <glyph glyph-name="Nacute" unicode="&#x143;" horiz-adv-x="477" 
d="M19 0v700h175l93 -270v270h171v-700h-167l-101 287v-287h-171zM179 721l58 109l172 -32l-112 -77h-118z" />
    <glyph glyph-name="nacute" unicode="&#x144;" horiz-adv-x="424" 
d="M18 0v546h174v-62q41 72 108 72q54 0 81.5 -36t27.5 -97v-423h-174v372q0 28 -21 28q-22 0 -22 -28v-372h-174zM156 577l69 129l152 -37l-123 -92h-98z" />
    <glyph glyph-name="Ncommaaccent" unicode="&#x145;" horiz-adv-x="477" 
d="M19 0v700h175l93 -270v270h171v-700h-167l-101 287v-287h-171zM183 -215l-10 44q62 12 67 42h-63v103h127v-82q0 -88 -121 -107z" />
    <glyph glyph-name="ncommaaccent" unicode="&#x146;" horiz-adv-x="424" 
d="M18 0v546h174v-62q41 72 108 72q54 0 81.5 -36t27.5 -97v-423h-174v372q0 28 -21 28q-22 0 -22 -28v-372h-174zM158 -215l-10 44q62 12 67 42h-63v103h127v-82q0 -88 -121 -107z" />
    <glyph glyph-name="Ncaron" unicode="&#x147;" horiz-adv-x="477" 
d="M19 0v700h175l93 -270v270h171v-700h-167l-101 287v-287h-171zM378 823l-74 -102h-131l-74 102h100l40 -33l40 33h99z" />
    <glyph glyph-name="ncaron" unicode="&#x148;" horiz-adv-x="424" 
d="M18 0v546h174v-62q41 72 108 72q54 0 81.5 -36t27.5 -97v-423h-174v372q0 28 -21 28q-22 0 -22 -28v-372h-174zM353 694l-79 -117h-121l-79 117h94l46 -39l46 39h93z" />
    <glyph glyph-name="Omacron" unicode="&#x14c;" horiz-adv-x="478" 
d="M239 -15q-108 0 -167.5 86.5t-59.5 252.5v52q0 166 59.5 252.5t167.5 86.5t167.5 -86.5t59.5 -252.5v-52q0 -166 -59.5 -252.5t-167.5 -86.5zM239 149q16 0 25 11.5t14.5 50t5.5 110.5v58q0 72 -5.5 110.5t-14.5 50t-25 11.5t-25 -11.5t-14.5 -50t-5.5 -110.5v-58
q0 -72 5.5 -110.5t14.5 -50t25 -11.5zM101 731v105h276v-105h-276z" />
    <glyph glyph-name="omacron" unicode="&#x14d;" horiz-adv-x="426" 
d="M212 -13q-92 0 -146.5 67t-54.5 193v52q0 126 54.5 193t148.5 67q92 0 146.5 -67t54.5 -193v-52q0 -126 -54.5 -193t-148.5 -67zM213 140q17 0 23 23t6 85v50q0 62 -6 85t-23 23t-23 -23t-6 -85v-50q0 -62 6 -85t23 -23zM81 579v103h264v-103h-264z" />
    <glyph glyph-name="Obreve" unicode="&#x14e;" horiz-adv-x="478" 
d="M239 -15q-108 0 -167.5 86.5t-59.5 252.5v52q0 166 59.5 252.5t167.5 86.5t167.5 -86.5t59.5 -252.5v-52q0 -166 -59.5 -252.5t-167.5 -86.5zM239 149q16 0 25 11.5t14.5 50t5.5 110.5v58q0 72 -5.5 110.5t-14.5 50t-25 11.5t-25 -11.5t-14.5 -50t-5.5 -110.5v-58
q0 -72 5.5 -110.5t14.5 -50t25 -11.5zM239 727q-121 0 -128 104h90q8 -26 38 -26t38 26h90q-7 -104 -128 -104z" />
    <glyph glyph-name="obreve" unicode="&#x14f;" horiz-adv-x="426" 
d="M212 -13q-92 0 -146.5 67t-54.5 193v52q0 126 54.5 193t148.5 67q92 0 146.5 -67t54.5 -193v-52q0 -126 -54.5 -193t-148.5 -67zM213 140q17 0 23 23t6 85v50q0 62 -6 85t-23 23t-23 -23t-6 -85v-50q0 -62 6 -85t23 -23zM213 575q-57 0 -91.5 29.5t-40.5 89.5h90
q6 -39 42 -39t42 39h90q-6 -60 -40.5 -89.5t-91.5 -29.5z" />
    <glyph glyph-name="Ohungarumlaut" unicode="&#x150;" horiz-adv-x="478" 
d="M239 -15q-108 0 -167.5 86.5t-59.5 252.5v52q0 166 59.5 252.5t167.5 86.5t167.5 -86.5t59.5 -252.5v-52q0 -166 -59.5 -252.5t-167.5 -86.5zM239 149q16 0 25 11.5t14.5 50t5.5 110.5v58q0 72 -5.5 110.5t-14.5 50t-25 11.5t-25 -11.5t-14.5 -50t-5.5 -110.5v-58
q0 -72 5.5 -110.5t14.5 -50t25 -11.5zM258 729l33 62l-77 -62h-103l58 109l134 -25l13 25l147 -27l-102 -82h-103z" />
    <glyph glyph-name="ohungarumlaut" unicode="&#x151;" horiz-adv-x="426" 
d="M212 -13q-92 0 -146.5 67t-54.5 193v52q0 126 54.5 193t148.5 67q92 0 146.5 -67t54.5 -193v-52q0 -126 -54.5 -193t-148.5 -67zM101 577l69 129l109 -29l16 29l127 -33l-113 -96h-83l35 65l-77 -65h-83zM213 140q17 0 23 23t6 85v50q0 62 -6 85t-23 23t-23 -23t-6 -85
v-50q0 -62 6 -85t23 -23z" />
    <glyph glyph-name="OE" unicode="&#x152;" horiz-adv-x="632" 
d="M289 0q-137 0 -207 84.5t-70 243.5v44q0 159 70 243.5t207 84.5h327v-169h-161v-97h144v-164h-144v-101h164v-169h-330zM194 326q0 -93 21 -127t62 -35v372q-40 -2 -61.5 -37.5t-21.5 -124.5v-48z" />
    <glyph glyph-name="oe" unicode="&#x153;" horiz-adv-x="638" 
d="M202 -13q-83 0 -137 69t-54 193v48q0 124 54.5 193t138.5 69q78 0 123 -64q46 64 122 64q78 0 128 -72t50 -202v-83h-220q11 -61 78 -61q59 0 120 39l9 -151q-70 -42 -150 -42q-85 0 -135 65q-47 -65 -127 -65zM405 309h62q0 59 -7.5 81t-23.5 22q-10 0 -16 -6.5
t-10.5 -30.5t-4.5 -66zM213 140q17 0 23 23t6 85v50q0 62 -6 85t-23 23t-23 -23t-6 -85v-50q0 -62 6 -85t23 -23z" />
    <glyph glyph-name="Racute" unicode="&#x154;" horiz-adv-x="447" 
d="M19 0v700h175q122 0 185 -63q60 -60 60 -169v-11q0 -123 -82 -187l92 -270h-190l-62 211h-2v-211h-176zM161 721l58 109l172 -32l-112 -77h-118zM195 354h5q56 0 56 85v22q0 85 -56 85h-5v-192z" />
    <glyph glyph-name="racute" unicode="&#x155;" horiz-adv-x="281" 
d="M18 0v546h173v-84q13 48 33.5 70.5t51.5 20.5v-208h-3q-42 0 -61.5 -26.5t-19.5 -82.5v-236h-174zM80 569l69 129l152 -37l-123 -92h-98z" />
    <glyph glyph-name="Rcommaaccent" unicode="&#x156;" horiz-adv-x="447" 
d="M19 0v700h175q122 0 185 -63q60 -60 60 -169v-11q0 -123 -82 -187l92 -270h-190l-62 211h-2v-211h-176zM165 -215l-10 44q62 12 67 42h-63v103h127v-82q0 -88 -121 -107zM195 354h5q56 0 56 85v22q0 85 -56 85h-5v-192z" />
    <glyph glyph-name="rcommaaccent" unicode="&#x157;" horiz-adv-x="281" 
d="M18 0v546h173v-84q13 48 33.5 70.5t51.5 20.5v-208h-3q-42 0 -61.5 -26.5t-19.5 -82.5v-236h-174zM51 -215l-10 44q62 12 67 42h-63v103h127v-82q0 -88 -121 -107z" />
    <glyph glyph-name="Rcaron" unicode="&#x158;" horiz-adv-x="447" 
d="M19 0v700h175q122 0 185 -63q60 -60 60 -169v-11q0 -123 -82 -187l92 -270h-190l-62 211h-2v-211h-176zM360 823l-74 -102h-131l-74 102h100l40 -33l40 33h99zM195 354h5q56 0 56 85v22q0 85 -56 85h-5v-192z" />
    <glyph glyph-name="rcaron" unicode="&#x159;" horiz-adv-x="281" 
d="M18 0v546h173v-84q13 48 33.5 70.5t51.5 20.5v-208h-3q-42 0 -61.5 -26.5t-19.5 -82.5v-236h-174zM277 686l-79 -117h-121l-79 117h94l46 -39l46 39h93z" />
    <glyph glyph-name="Sacute" unicode="&#x15a;" horiz-adv-x="393" 
d="M178 -13q-94 0 -158 41v175q76 -46 139 -46q46 0 46 36v2q0 15 -12 28.5t-42 37.5q-78 63 -109.5 109.5t-31.5 121.5v8q0 97 58 155t149 58q78 0 139 -28v-177q-62 35 -121 35q-22 0 -34 -10t-12 -25v-2q0 -15 12 -29.5t42 -38.5q77 -62 109 -110.5t32 -122.5v-8
q0 -93 -60 -151.5t-146 -58.5zM146 729l58 109l172 -32l-112 -77h-118z" />
    <glyph glyph-name="sacute" unicode="&#x15b;" horiz-adv-x="331" 
d="M156 -13q-80 0 -143 34v162q78 -44 119 -44q26 0 26 19v2q0 14 -40 45q-28 21 -44 36t-33.5 38t-25.5 50.5t-8 62.5v2q0 76 47.5 120.5t126.5 44.5q61 0 121 -22v-164q-65 34 -107 34q-22 0 -22 -17v-2q0 -2 0.5 -4t2 -4t2.5 -4t4 -4.5t4.5 -4t5.5 -5t6 -5l7 -5.5t8 -6
q28 -22 41 -34t33 -36t28.5 -52.5t8.5 -64.5v-2q0 -75 -47.5 -122.5t-120.5 -47.5zM115 577l69 129l152 -37l-123 -92h-98z" />
    <glyph glyph-name="Scedilla" unicode="&#x15e;" horiz-adv-x="393" 
d="M212 -132l-160 32l69 92q-60 9 -101 36v175q76 -46 139 -46q46 0 46 36v2q0 15 -12 28.5t-42 37.5q-78 63 -109.5 109.5t-31.5 121.5v8q0 97 58 155t149 58q78 0 139 -28v-177q-62 35 -121 35q-22 0 -34 -10t-12 -25v-2q0 -15 12 -29.5t42 -38.5q77 -62 109 -110.5
t32 -122.5v-8q0 -74 -38.5 -127t-101.5 -73z" />
    <glyph glyph-name="scedilla" unicode="&#x15f;" horiz-adv-x="331" 
d="M190 -132l-160 32l69 92q-52 10 -86 29v162q78 -44 119 -44q26 0 26 19v2q0 14 -40 45q-28 21 -44 36t-33.5 38t-25.5 50.5t-8 62.5v2q0 76 47.5 120.5t126.5 44.5q61 0 121 -22v-164q-65 34 -107 34q-22 0 -22 -17v-2q0 -2 0.5 -4t2 -4t2.5 -4t4 -4.5t4.5 -4t5.5 -5
t6 -5l7 -5.5t8 -6q28 -22 41 -34t33 -36t28.5 -52.5t8.5 -64.5v-2q0 -56 -27.5 -97.5t-73.5 -59.5z" />
    <glyph glyph-name="Scaron" unicode="&#x160;" horiz-adv-x="393" 
d="M178 -13q-94 0 -158 41v175q76 -46 139 -46q46 0 46 36v2q0 15 -12 28.5t-42 37.5q-78 63 -109.5 109.5t-31.5 121.5v8q0 97 58 155t149 58q78 0 139 -28v-177q-62 35 -121 35q-22 0 -34 -10t-12 -25v-2q0 -15 12 -29.5t42 -38.5q77 -62 109 -110.5t32 -122.5v-8
q0 -93 -60 -151.5t-146 -58.5zM345 831l-74 -102h-131l-74 102h100l40 -33l40 33h99z" />
    <glyph glyph-name="scaron" unicode="&#x161;" horiz-adv-x="331" 
d="M156 -13q-80 0 -143 34v162q78 -44 119 -44q26 0 26 19v2q0 14 -40 45q-28 21 -44 36t-33.5 38t-25.5 50.5t-8 62.5v2q0 76 47.5 120.5t126.5 44.5q61 0 121 -22v-164q-65 34 -107 34q-22 0 -22 -17v-2q0 -2 0.5 -4t2 -4t2.5 -4t4 -4.5t4.5 -4t5.5 -5t6 -5l7 -5.5t8 -6
q28 -22 41 -34t33 -36t28.5 -52.5t8.5 -64.5v-2q0 -75 -47.5 -122.5t-120.5 -47.5zM312 694l-79 -117h-121l-79 117h94l46 -39l46 39h93z" />
    <glyph glyph-name="Tcommaaccent" unicode="&#x162;" horiz-adv-x="392" 
d="M107 0v530h-98v170h374v-170h-98v-530h-178zM141 -215l-10 44q62 12 67 42h-63v103h127v-82q0 -88 -121 -107z" />
    <glyph glyph-name="Tcommaaccent" unicode="&#x21a;" horiz-adv-x="392" 
d="M107 0v530h-98v170h374v-170h-98v-530h-178zM141 -215l-10 44q62 12 67 42h-63v103h127v-82q0 -88 -121 -107z" />
    <glyph glyph-name="tcommaaccent" unicode="&#x163;" horiz-adv-x="275" 
d="M165 -10q-130 0 -130 125v292h-29v139h29v127h173v-127h60v-139h-60v-241q0 -23 23 -23q13 0 36 9v-139q-46 -23 -102 -23zM88 -223l-10 44q62 12 67 42h-63v103h127v-82q0 -88 -121 -107z" />
    <glyph glyph-name="tcommaaccent" unicode="&#x21b;" horiz-adv-x="275" 
d="M165 -10q-130 0 -130 125v292h-29v139h29v127h173v-127h60v-139h-60v-241q0 -23 23 -23q13 0 36 9v-139q-46 -23 -102 -23zM88 -223l-10 44q62 12 67 42h-63v103h127v-82q0 -88 -121 -107z" />
    <glyph glyph-name="Tcaron" unicode="&#x164;" horiz-adv-x="392" 
d="M107 0v530h-98v170h374v-170h-98v-530h-178zM336 823l-74 -102h-131l-74 102h100l40 -33l40 33h99z" />
    <glyph glyph-name="tcaron" unicode="&#x165;" horiz-adv-x="275" 
d="M165 -10q-130 0 -130 125v292h-29v139h29v127h173v-127h60v-139h-60v-241q0 -23 23 -23q13 0 36 9v-139q-46 -23 -102 -23zM228 566l7 149h92l-40 -149h-59z" />
    <glyph glyph-name="Umacron" unicode="&#x16a;" horiz-adv-x="458" 
d="M227 -12q-96 0 -153 56t-57 170v486h178v-496q0 -53 34 -53t34 53v496h178v-484q0 -114 -58.5 -171t-155.5 -57zM91 723v105h276v-105h-276z" />
    <glyph glyph-name="umacron" unicode="&#x16b;" horiz-adv-x="424" 
d="M124 -10q-54 0 -81.5 35.5t-27.5 96.5v424h174v-372q0 -28 21 -28q22 0 22 28v372h174v-546h-174v62q-41 -72 -108 -72zM78 571v103h264v-103h-264z" />
    <glyph glyph-name="Ubreve" unicode="&#x16c;" horiz-adv-x="458" 
d="M227 -12q-96 0 -153 56t-57 170v486h178v-496q0 -53 34 -53t34 53v496h178v-484q0 -114 -58.5 -171t-155.5 -57zM229 714q-121 0 -128 104h90q8 -26 38 -26t38 26h90q-7 -104 -128 -104z" />
    <glyph glyph-name="ubreve" unicode="&#x16d;" horiz-adv-x="424" 
d="M124 -10q-54 0 -81.5 35.5t-27.5 96.5v424h174v-372q0 -28 21 -28q22 0 22 28v372h174v-546h-174v62q-41 -72 -108 -72zM210 564q-57 0 -91.5 29.5t-40.5 89.5h90q6 -39 42 -39t42 39h90q-6 -60 -40.5 -89.5t-91.5 -29.5z" />
    <glyph glyph-name="Uring" unicode="&#x16e;" horiz-adv-x="458" 
d="M227 -12q-96 0 -153 56t-57 170v486h178v-496q0 -53 34 -53t34 53v496h178v-484q0 -114 -58.5 -171t-155.5 -57zM229 713q-47 0 -76 27.5t-29 70.5t29 70.5t76 27.5t76 -27.5t29 -70.5t-29 -70.5t-76 -27.5zM229 763q21 0 35 13.5t14 34.5t-14 34.5t-35 13.5t-35 -13.5
t-14 -34.5t14 -34.5t35 -13.5z" />
    <glyph glyph-name="uring" unicode="&#x16f;" horiz-adv-x="424" 
d="M124 -10q-54 0 -81.5 35.5t-27.5 96.5v424h174v-372q0 -28 21 -28q22 0 22 28v372h174v-546h-174v62q-41 -72 -108 -72zM210 562q-42 0 -70.5 28.5t-28.5 70.5q0 40 29 68.5t70 28.5q42 0 70.5 -28.5t28.5 -70.5q0 -40 -29 -68.5t-70 -28.5zM210 612q19 0 31 13.5
t12 34.5t-12 34.5t-31 13.5t-31 -13.5t-12 -34.5t12 -34.5t31 -13.5z" />
    <glyph glyph-name="Uhungarumlaut" unicode="&#x170;" horiz-adv-x="458" 
d="M227 -12q-96 0 -153 56t-57 170v486h178v-496q0 -53 34 -53t34 53v496h178v-484q0 -114 -58.5 -171t-155.5 -57zM242 721l33 62l-77 -62h-103l58 109l134 -25l13 25l147 -27l-102 -82h-103z" />
    <glyph glyph-name="uhungarumlaut" unicode="&#x171;" horiz-adv-x="424" 
d="M124 -10q-54 0 -81.5 35.5t-27.5 96.5v424h174v-372q0 -28 21 -28q22 0 22 28v372h174v-546h-174v62q-41 -72 -108 -72zM92 569l69 129l109 -29l16 29l127 -33l-113 -96h-83l35 65l-77 -65h-83z" />
    <glyph glyph-name="Uogonek" unicode="&#x172;" horiz-adv-x="458" 
d="M323 -52v-86q-27 -4 -66 -4q-125 0 -125 63q0 35 35 73q-150 34 -150 220v486h178v-496q0 -53 34 -53t34 53v496h178v-484q0 -97 -42.5 -152.5t-116.5 -70.5q-8 -12 -8 -22q0 -9 9.5 -14t39.5 -9z" />
    <glyph glyph-name="uogonek" unicode="&#x173;" horiz-adv-x="424" 
d="M417 -52v-86q-27 -4 -66 -4q-125 0 -125 63q0 38 41 79h-35v62q-41 -72 -108 -72q-54 0 -81.5 35.5t-27.5 96.5v424h174v-372q0 -28 21 -28q22 0 22 28v372h174v-546h-25q-13 -18 -13 -29q0 -9 9.5 -14t39.5 -9z" />
    <glyph glyph-name="Wcircumflex" unicode="&#x174;" horiz-adv-x="668" 
d="M106 -1l-111 701h187l36 -376l45 376h145l45 -376l36 376h184l-111 -701h-185l-43 289l-43 -289h-185zM195 721l74 102h131l74 -102h-100l-40 33l-40 -33h-99z" />
    <glyph glyph-name="wcircumflex" unicode="&#x175;" horiz-adv-x="572" 
d="M97 -2l-102 548h172l28 -255l26 255h132l26 -255l28 255h170l-102 -548h-151l-38 219l-38 -219h-151zM147 569l79 117h121l79 -117h-94l-46 39l-46 -39h-93z" />
    <glyph glyph-name="Ycircumflex" unicode="&#x176;" horiz-adv-x="436" 
d="M129 0v245l-136 455h180l48 -231l46 231h176l-136 -455v-245h-178zM79 721l74 102h131l74 -102h-100l-40 33l-40 -33h-99z" />
    <glyph glyph-name="ycircumflex" unicode="&#x177;" horiz-adv-x="404" 
d="M204 272l37 274h172l-162 -676h-172l34 138l-121 538h174zM63 569l79 117h121l79 -117h-94l-46 39l-46 -39h-93z" />
    <glyph glyph-name="Ydieresis" unicode="&#x178;" horiz-adv-x="436" 
d="M129 0v245l-136 455h180l48 -231l46 231h176l-136 -455v-245h-178zM231 721v113h125v-113h-125zM80 721v113h125v-113h-125z" />
    <glyph glyph-name="Zacute" unicode="&#x179;" horiz-adv-x="378" 
d="M12 0v147l154 384h-150v169h350v-147l-153 -384h153v-169h-354zM134 721l58 109l172 -32l-112 -77h-118z" />
    <glyph glyph-name="zacute" unicode="&#x17a;" horiz-adv-x="347" 
d="M11 0v126l136 275h-134v145h324v-126l-137 -275h137v-145h-326zM117 569l69 129l152 -37l-123 -92h-98z" />
    <glyph glyph-name="Zdotaccent" unicode="&#x17b;" horiz-adv-x="378" 
d="M12 0v147l154 384h-150v169h350v-147l-153 -384h153v-169h-354zM126 721v113h134v-113h-134z" />
    <glyph glyph-name="zdotaccent" unicode="&#x17c;" horiz-adv-x="347" 
d="M11 0v126l136 275h-134v145h324v-126l-137 -275h137v-145h-326zM108 569v123h132v-123h-132z" />
    <glyph glyph-name="Zcaron" unicode="&#x17d;" horiz-adv-x="378" 
d="M12 0v147l154 384h-150v169h350v-147l-153 -384h153v-169h-354zM333 823l-74 -102h-131l-74 102h100l40 -33l40 33h99z" />
    <glyph glyph-name="zcaron" unicode="&#x17e;" horiz-adv-x="347" 
d="M11 0v126l136 275h-134v145h324v-126l-137 -275h137v-145h-326zM314 686l-79 -117h-121l-79 117h94l46 -39l46 39h93z" />
    <glyph glyph-name="uni018F" unicode="&#x18f;" horiz-adv-x="452" 
d="M26 667q80 43 169 43q117 0 181.5 -82t64.5 -246v-35q0 -179 -61 -270.5t-162 -91.5q-97 0 -151 85.5t-54 254.5v100h252q-5 113 -92 113q-64 0 -137 -38zM221 152q43 0 44 141h-85q0 -141 41 -141z" />
    <glyph glyph-name="Aringacute" unicode="&#x1fa;" horiz-adv-x="464" 
d="M-8 0l132 696h17q-14 22 -14 51q0 42 29 69.5t76 27.5t76 -27.5t29 -69.5q0 -29 -14 -51h17l132 -696h-177l-16 113h-98l-16 -113h-173zM172 858l48 94l182 -27l-112 -67h-118zM232 698q22 0 35.5 14t13.5 34t-13.5 34t-35.5 14t-35.5 -14t-13.5 -34t13.5 -34t35.5 -14z
M201 258h58l-29 209z" />
    <glyph glyph-name="aringacute" unicode="&#x1fb;" horiz-adv-x="402" 
d="M142 787l69 104l158 -27l-123 -77h-104zM120 -10q-50 0 -82 42t-32 120v17q0 88 36 130t95 42q41 0 77 -19v9q0 66 -69 66q-57 0 -109 -29v161q69 27 154 27q95 0 145 -50q52 -52 52 -156v-350h-173v45q-36 -55 -94 -55zM188 110q27 0 27 42v74q-16 7 -26 7
q-29 0 -29 -51v-25q0 -47 28 -47zM202 573q-42 0 -70.5 28.5t-28.5 70.5q0 40 29 68.5t70 28.5q42 0 70.5 -28.5t28.5 -70.5q0 -40 -29 -68.5t-70 -28.5zM202 623q19 0 31 13.5t12 34.5t-12 34.5t-31 13.5t-31 -13.5t-12 -34.5t12 -34.5t31 -13.5z" />
    <glyph glyph-name="AEacute" unicode="&#x1fc;" horiz-adv-x="619" 
d="M-13 0l151 700h465v-169h-161v-97h144v-164h-144v-101h164v-169h-342v113h-84l-20 -113h-173zM201 258h63v273h-13zM281 721l58 109l172 -32l-112 -77h-118z" />
    <glyph glyph-name="aeacute" unicode="&#x1fd;" horiz-adv-x="607" 
d="M141 -10q-58 0 -96.5 43t-38.5 124v17q0 85 36 126t95 41q41 0 77 -19v9q0 66 -69 66q-57 0 -109 -29v161q69 27 149 27q73 0 121 -42q43 45 107 45q84 0 133.5 -71t49.5 -203v-83h-220q11 -61 78 -61q59 0 120 39l9 -151q-70 -42 -157 -42q-105 0 -161 82
q-23 -37 -55.5 -58t-68.5 -21zM374 309h62q0 59 -7.5 81t-23.5 22q-10 0 -16 -6.5t-10.5 -30.5t-4.5 -66zM191 110q25 0 37 41q-10 37 -11 73q-16 9 -28 9q-29 0 -29 -51v-25q0 -47 31 -47zM241 569l69 129l152 -37l-123 -92h-98z" />
    <glyph glyph-name="Oslashacute" unicode="&#x1fe;" horiz-adv-x="478" 
d="M386 705h74l-46 -93q52 -90 52 -236v-52q0 -166 -59.5 -252.5t-167.5 -86.5q-75 0 -129 46l-18 -36h-74l46 92q-52 87 -52 237v52q0 166 59.5 252.5t167.5 86.5q76 0 129 -47zM180 729l58 109l172 -32l-112 -77h-118zM190 321v-19l87 215q-10 38 -38 38q-18 0 -27.5 -12
t-15.5 -51t-6 -113v-58zM239 145q18 0 27.5 12t15.5 51t6 113v58v18l-88 -215q10 -37 39 -37z" />
    <glyph glyph-name="oslashacute" unicode="&#x1ff;" horiz-adv-x="426" 
d="M349 546h70l-45 -78q41 -66 41 -169v-52q0 -126 -54.5 -193t-148.5 -67q-70 0 -119 42l-16 -29h-70l45 77q-41 68 -41 170v52q0 126 54.5 193t148.5 67q68 0 119 -42zM156 577l69 129l152 -37l-123 -92h-98zM213 133q18 0 25.5 24t7.5 88v40l-60 -122q7 -30 27 -30z
M180 301v-40l60 122q-8 30 -27 30q-18 0 -25.5 -24t-7.5 -88z" />
    <glyph glyph-name="Scommaaccent" unicode="&#x218;" horiz-adv-x="393" 
d="M178 -13q-94 0 -158 41v175q76 -46 139 -46q46 0 46 36v2q0 15 -12 28.5t-42 37.5q-78 63 -109.5 109.5t-31.5 121.5v8q0 97 58 155t149 58q78 0 139 -28v-177q-62 35 -121 35q-22 0 -34 -10t-12 -25v-2q0 -15 12 -29.5t42 -38.5q77 -62 109 -110.5t32 -122.5v-8
q0 -93 -60 -151.5t-146 -58.5zM133 -223l-10 44q62 12 67 42h-63v103h127v-82q0 -88 -121 -107z" />
    <glyph glyph-name="scommaaccent" unicode="&#x219;" horiz-adv-x="331" 
d="M156 -13q-80 0 -143 34v162q78 -44 119 -44q26 0 26 19v2q0 14 -40 45q-28 21 -44 36t-33.5 38t-25.5 50.5t-8 62.5v2q0 76 47.5 120.5t126.5 44.5q61 0 121 -22v-164q-65 34 -107 34q-22 0 -22 -17v-2q0 -2 0.5 -4t2 -4t2.5 -4t4 -4.5t4.5 -4t5.5 -5t6 -5l7 -5.5t8 -6
q28 -22 41 -34t33 -36t28.5 -52.5t8.5 -64.5v-2q0 -75 -47.5 -122.5t-120.5 -47.5zM111 -223l-10 44q62 12 67 42h-63v103h127v-82q0 -88 -121 -107z" />
    <glyph glyph-name="schwa" unicode="&#x259;" horiz-adv-x="412" 
d="M184 559q102 0 159.5 -68.5t57.5 -198.5v-35q0 -128 -55.5 -199t-146.5 -71q-87 0 -137.5 70.5t-50.5 203.5v83h220q-6 33 -24.5 47t-53.5 14q-59 0 -120 -39l-9 151q70 42 160 42zM233 237h-62q0 -59 7.5 -81t23.5 -22q10 0 16 6.5t10.5 30.5t4.5 66z" />
    <glyph glyph-name="circumflex" unicode="&#x2c6;" 
d="M110 569l79 117h121l79 -117h-94l-46 39l-46 -39h-93z" />
    <glyph glyph-name="caron" unicode="&#x2c7;" 
d="M390 686l-79 -117h-121l-79 117h94l46 -39l46 39h93z" />
    <glyph glyph-name="breve" unicode="&#x2d8;" 
d="M250 567q-57 0 -91.5 29.5t-40.5 89.5h90q6 -39 42 -39t42 39h90q-6 -60 -40.5 -89.5t-91.5 -29.5z" />
    <glyph glyph-name="dotaccent" unicode="&#x2d9;" 
d="M184 569v123h132v-123h-132z" />
    <glyph glyph-name="ring" unicode="&#x2da;" 
d="M250 565q-42 0 -70.5 28.5t-28.5 70.5q0 40 29 68.5t70 28.5q42 0 70.5 -28.5t28.5 -70.5q0 -40 -29 -68.5t-70 -28.5zM250 615q19 0 31 13.5t12 34.5t-12 34.5t-31 13.5t-31 -13.5t-12 -34.5t12 -34.5t31 -13.5z" />
    <glyph glyph-name="ogonek" unicode="&#x2db;" 
d="M346 -52v-86q-27 -4 -66 -4q-125 0 -125 63q0 51 81 114l91 -14q-30 -37 -30 -50q0 -9 9.5 -14t39.5 -9z" />
    <glyph glyph-name="tilde" unicode="&#x2dc;" 
d="M324 565q-20 0 -64 15t-57 15q-22 0 -28 -33l-75 12q1 59 21 91t54 32q20 0 64 -15t57 -15q22 0 28 33l75 -12q-1 -59 -21 -91t-54 -32z" />
    <glyph glyph-name="hungarumlaut" unicode="&#x2dd;" 
d="M90 569l69 129l109 -29l16 29l127 -33l-113 -96h-83l35 65l-77 -65h-83z" />
    <glyph glyph-name="commaaccent" unicode="&#x326;" 
d="M194 -215l-10 44q62 12 67 42h-63v103h127v-82q0 -88 -121 -107z" />
    <glyph glyph-name="uni0384" unicode="&#x384;" 
d="M160 569l36 136l141 -35l-89 -101h-88z" />
    <glyph glyph-name="uni0385" unicode="&#x385;" 
d="M323 569v112h107v-112h-107zM70 569v112h107v-112h-107zM191 569l16 164l123 -18l-67 -146h-72z" />
    <glyph glyph-name="uni0386" unicode="&#x386;" horiz-adv-x="464" 
d="M-8 0l133 701h214l133 -701h-177l-16 113h-98l-16 -113h-173zM201 258h58l-29 209zM-30 546l7 154h121l-52 -154h-76z" />
    <glyph glyph-name="uni0387" unicode="&#x387;" horiz-adv-x="212" 
d="M15 362v184h182v-184h-182z" />
    <glyph glyph-name="uni0388" unicode="&#x388;" horiz-adv-x="374" 
d="M19 0v700h339v-169h-161v-97h144v-164h-144v-101h164v-169h-342zM-122 546l7 154h121l-52 -154h-76z" />
    <glyph glyph-name="uni0389" unicode="&#x389;" horiz-adv-x="468" 
d="M19 0v700h178v-263h74v263h178v-700h-178v267h-74v-267h-178zM-122 546l7 154h121l-52 -154h-76z" />
    <glyph glyph-name="uni038A" unicode="&#x38a;" horiz-adv-x="220" 
d="M21 0v700h178v-700h-178zM-120 546l7 154h121l-52 -154h-76z" />
    <glyph glyph-name="uni038C" unicode="&#x38c;" horiz-adv-x="478" 
d="M239 -15q-108 0 -167.5 86.5t-59.5 252.5v52q0 166 59.5 252.5t167.5 86.5t167.5 -86.5t59.5 -252.5v-52q0 -166 -59.5 -252.5t-167.5 -86.5zM239 149q16 0 25 11.5t14.5 50t5.5 110.5v58q0 72 -5.5 110.5t-14.5 50t-25 11.5t-25 -11.5t-14.5 -50t-5.5 -110.5v-58
q0 -72 5.5 -110.5t14.5 -50t25 -11.5zM-74 546l7 154h121l-52 -154h-76z" />
    <glyph glyph-name="uni038E" unicode="&#x38e;" horiz-adv-x="436" 
d="M129 0v245l-136 455h180l48 -231l46 231h176l-136 -455v-245h-178zM-141 546l7 154h121l-52 -154h-76z" />
    <glyph glyph-name="uni038F" unicode="&#x38f;" horiz-adv-x="492" 
d="M246 715q112 0 169.5 -72t57.5 -194v-13q0 -145 -75 -267h81v-169h-216v161q28 112 28 252v6q0 76 -10.5 104t-34.5 28t-34.5 -28t-10.5 -104v-6q0 -140 28 -252v-161h-216v169h81q-75 122 -75 267v13q0 122 57.5 194t169.5 72zM-78 546l7 154h121l-52 -154h-76z" />
    <glyph glyph-name="uni0390" unicode="&#x390;" horiz-adv-x="243" 
d="M15 124v422h174v-383q0 -15 5 -21.5t19 -6.5q7 0 23 2v-131q-48 -16 -96 -16q-125 0 -125 134zM177 569v112h107v-112h-107zM-76 569v112h107v-112h-107zM45 569l16 164l123 -18l-67 -146h-72z" />
    <glyph glyph-name="uni0391" unicode="&#x391;" horiz-adv-x="464" 
d="M-8 0l133 701h214l133 -701h-177l-16 113h-98l-16 -113h-173zM201 258h58l-29 209z" />
    <glyph glyph-name="uni0392" unicode="&#x392;" horiz-adv-x="446" 
d="M19 0v700h173q134 0 194 -60q45 -45 45 -125v-10q0 -49 -23.5 -87t-60.5 -60q95 -53 95 -152v-9q0 -99 -66.5 -148t-182.5 -49h-174zM259 479v1q0 57 -58 57h-10v-117h10q58 0 58 59zM265 223q0 29 -16.5 44t-43.5 15h-14v-119h14q60 0 60 57v3z" />
    <glyph glyph-name="uni0393" unicode="&#x393;" horiz-adv-x="342" 
d="M19 0v700h316v-169h-138v-531h-178z" />
    <glyph glyph-name="uni0394" unicode="&#x394;" horiz-adv-x="478" 
d="M31 0l-23 153l114 548h234l114 -549l-23 -152h-416zM182 167h110l-55 350z" />
    <glyph glyph-name="uni0395" unicode="&#x395;" horiz-adv-x="374" 
d="M19 0v700h339v-169h-161v-97h144v-164h-144v-101h164v-169h-342z" />
    <glyph glyph-name="uni0396" unicode="&#x396;" horiz-adv-x="378" 
d="M12 0v147l154 384h-150v169h350v-147l-153 -384h153v-169h-354z" />
    <glyph glyph-name="uni0397" unicode="&#x397;" horiz-adv-x="468" 
d="M19 0v700h178v-263h74v263h178v-700h-178v267h-74v-267h-178z" />
    <glyph glyph-name="uni0398" unicode="&#x398;" horiz-adv-x="470" 
d="M235 -15q-107 0 -165 86t-58 253v52q0 167 58 253t165 86t165 -86t58 -253v-52q0 -167 -58 -253t-165 -86zM235 143q24 0 35.5 28t13.5 107h-99q2 -79 14 -107t36 -28zM235 557q-23 0 -35 -27t-15 -104h99q-2 77 -13.5 104t-35.5 27z" />
    <glyph glyph-name="uni0399" unicode="&#x399;" horiz-adv-x="220" 
d="M21 0v700h178v-700h-178z" />
    <glyph glyph-name="uni039A" unicode="&#x39a;" horiz-adv-x="446" 
d="M19 0v700h178v-233l68 233h180l-103 -297l107 -403h-185l-50 223l-17 -49v-174h-178z" />
    <glyph glyph-name="uni039B" unicode="&#x39b;" horiz-adv-x="456" 
d="M330 701l134 -701h-182l-56 392l-56 -392h-178l134 701h204z" />
    <glyph glyph-name="uni039C" unicode="&#x39c;" horiz-adv-x="536" 
d="M19 0v700h168l81 -203l81 203h168v-700h-172v325l-76 -191h-2l-76 191v-325h-172z" />
    <glyph glyph-name="uni039D" unicode="&#x39d;" horiz-adv-x="477" 
d="M19 0v700h175l93 -270v270h171v-700h-167l-101 287v-287h-171z" />
    <glyph glyph-name="uni039E" unicode="&#x39e;" horiz-adv-x="372" 
d="M356 531h-340v169h340v-169zM340 270h-308v164h308v-164zM359 0h-346v169h346v-169z" />
    <glyph glyph-name="uni039F" unicode="&#x39f;" horiz-adv-x="478" 
d="M239 -15q-108 0 -167.5 86.5t-59.5 252.5v52q0 166 59.5 252.5t167.5 86.5t167.5 -86.5t59.5 -252.5v-52q0 -166 -59.5 -252.5t-167.5 -86.5zM239 149q16 0 25 11.5t14.5 50t5.5 110.5v58q0 72 -5.5 110.5t-14.5 50t-25 11.5t-25 -11.5t-14.5 -50t-5.5 -110.5v-58
q0 -72 5.5 -110.5t14.5 -50t25 -11.5z" />
    <glyph glyph-name="uni03A0" unicode="&#x3a0;" horiz-adv-x="468" 
d="M19 0v700h430v-700h-178v530h-74v-530h-178z" />
    <glyph glyph-name="uni03A1" unicode="&#x3a1;" horiz-adv-x="432" 
d="M19 0v700h167q113 0 178.5 -60.5t65.5 -181.5v-15q0 -65 -21.5 -114t-56.5 -75.5t-73 -39.5t-77 -13h-7v-201h-176zM195 355h3q56 0 56 85v21q0 85 -56 85h-3v-191z" />
    <glyph glyph-name="uni03A3" unicode="&#x3a3;" horiz-adv-x="376" 
d="M304 350l-95 -181h155v-169h-352v147l109 203l-106 203v147h348v-169h-152z" />
    <glyph glyph-name="uni03A4" unicode="&#x3a4;" horiz-adv-x="392" 
d="M107 0v530h-98v170h374v-170h-98v-530h-178z" />
    <glyph glyph-name="uni03A5" unicode="&#x3a5;" horiz-adv-x="436" 
d="M129 0v245l-136 455h180l48 -231l46 231h176l-136 -455v-245h-178z" />
    <glyph glyph-name="uni03A6" unicode="&#x3a6;" horiz-adv-x="656" 
d="M239 -17v66q-107 15 -169 93.5t-62 199.5v16q0 120 62.5 199t168.5 94v66h178v-66q106 -15 168.5 -94t62.5 -199v-16q0 -121 -62.5 -200t-168.5 -93v-66h-178zM470 352q0 123 -59 145v-294q59 20 59 145v4zM186 348q0 -125 59 -145v294q-59 -21 -59 -145v-4z" />
    <glyph glyph-name="uni03A7" unicode="&#x3a7;" horiz-adv-x="427" 
d="M255 700h172l-103 -343l107 -357h-181l-38 199l-44 -199h-172l107 355l-103 345h181l34 -181z" />
    <glyph glyph-name="uni03A8" unicode="&#x3a8;" horiz-adv-x="667" 
d="M647 700v-301q0 -232 -223 -251v-148h-181v148q-223 19 -223 251v301h175v-301q0 -38 11.5 -56.5t41.5 -23.5v381h171v-381q30 5 41.5 23.5t11.5 56.5v301h175z" />
    <glyph glyph-name="uni03A9" unicode="&#x3a9;" horiz-adv-x="492" 
d="M246 715q112 0 169.5 -72t57.5 -194v-13q0 -145 -75 -267h81v-169h-216v161q28 112 28 252v6q0 76 -10.5 104t-34.5 28t-34.5 -28t-10.5 -104v-6q0 -140 28 -252v-161h-216v169h81q-75 122 -75 267v13q0 122 57.5 194t169.5 72z" />
    <glyph glyph-name="uni03AA" unicode="&#x3aa;" horiz-adv-x="220" 
d="M21 0v700h178v-700h-178zM123 721v113h125v-113h-125zM-28 721v113h125v-113h-125z" />
    <glyph glyph-name="uni03AB" unicode="&#x3ab;" horiz-adv-x="436" 
d="M129 0v245l-136 455h180l48 -231l46 231h176l-136 -455v-245h-178zM231 721v113h125v-113h-125zM80 721v113h125v-113h-125z" />
    <glyph glyph-name="uni03AC" unicode="&#x3ac;" horiz-adv-x="473" 
d="M466 139v-131q-48 -16 -95 -16q-91 0 -116 73q-45 -75 -114 -75q-127 0 -127 254v58q0 254 127 254q35 0 58.5 -17.5t45.5 -54.5v62h174v-381q0 -15 5 -21.5t19 -6.5q7 0 23 2zM178 577l36 136l141 -35l-89 -101h-88zM217 143q16 0 22.5 21t6.5 72v74q0 51 -6.5 72
t-22.5 21t-22.5 -21t-6.5 -72v-74q0 -51 6.5 -72t22.5 -21z" />
    <glyph glyph-name="uni03AD" unicode="&#x3ad;" horiz-adv-x="342" 
d="M301 208h-71q-57 0 -57 -37v-2q0 -36 52 -36q44 0 106 24v-151q-67 -19 -137 -19q-186 0 -186 153v3q0 96 88 133q-85 41 -85 126v3q0 70 49 112t145 42q61 0 122 -16v-154q-54 25 -99 25q-55 0 -55 -38v-2q0 -34 53 -34h75v-132zM140 577l36 136l141 -35l-89 -101h-88z
" />
    <glyph glyph-name="uni03AE" unicode="&#x3ae;" horiz-adv-x="424" 
d="M192 0h-174v546h174v-60q41 72 108 72q54 0 81.5 -35.5t27.5 -96.5v-556h-174v504q0 28 -21 28q-22 0 -22 -28v-374zM162 577l36 136l141 -35l-89 -101h-88z" />
    <glyph glyph-name="uni03AF" unicode="&#x3af;" horiz-adv-x="243" 
d="M15 124v422h174v-383q0 -15 5 -21.5t19 -6.5q7 0 23 2v-131q-48 -16 -96 -16q-125 0 -125 134zM53 569l36 136l141 -35l-89 -101h-88z" />
    <glyph glyph-name="uni03B0" unicode="&#x3b0;" horiz-adv-x="423" 
d="M210 -13q-90 0 -142.5 51t-52.5 157v351h174v-372q0 -30 22 -30q23 0 23 30v372h174v-349q0 -106 -53.5 -158t-144.5 -52zM284 569v112h107v-112h-107zM31 569v112h107v-112h-107zM152 569l16 164l123 -18l-67 -146h-72z" />
    <glyph glyph-name="uni03B1" unicode="&#x3b1;" horiz-adv-x="473" 
d="M466 139v-131q-48 -16 -95 -16q-91 0 -116 73q-45 -75 -114 -75q-127 0 -127 254v58q0 254 127 254q35 0 58.5 -17.5t45.5 -54.5v62h174v-381q0 -15 5 -21.5t19 -6.5q7 0 23 2zM217 143q16 0 22.5 21t6.5 72v74q0 51 -6.5 72t-22.5 21t-22.5 -21t-6.5 -72v-74
q0 -51 6.5 -72t22.5 -21z" />
    <glyph glyph-name="uni03B2" unicode="&#x3b2;" horiz-adv-x="430" 
d="M294 -10q-68 0 -113 72v-192h-163v608q0 242 207 242q96 0 145 -53t49 -130v-4q0 -112 -96 -164q101 -40 101 -173v-7q0 -94 -32.5 -146.5t-97.5 -52.5zM224 143q32 0 32 70v4q0 39 -13.5 57t-45.5 18h-7v-70q0 -79 34 -79zM190 515v-96h4q34 0 45.5 19.5t11.5 69.5v6
q0 62 -30 62q-31 0 -31 -61z" />
    <glyph glyph-name="uni03B3" unicode="&#x3b3;" horiz-adv-x="408" 
d="M291 -130h-174v132l-125 544h177l36 -286l36 286h175l-125 -544v-132z" />
    <glyph glyph-name="uni03B4" unicode="&#x3b4;" horiz-adv-x="427" 
d="M56 591v124h329v-145l-126 3l35 -34q71 -69 96 -136t25 -163v-9q0 -122 -53 -183t-149 -61t-149 61t-53 183v9q0 83 24.5 150t88.5 125zM243 240q0 100 -31 160q-29 -62 -29 -160v-4q0 -40 4 -62t10 -29t16 -7q16 0 23 20t7 78v4z" />
    <glyph glyph-name="uni03B5" unicode="&#x3b5;" horiz-adv-x="342" 
d="M301 208h-71q-57 0 -57 -37v-2q0 -36 52 -36q44 0 106 24v-151q-67 -19 -137 -19q-186 0 -186 153v3q0 96 88 133q-85 41 -85 126v3q0 70 49 112t145 42q61 0 122 -16v-154q-54 25 -99 25q-55 0 -55 -38v-2q0 -34 53 -34h75v-132z" />
    <glyph glyph-name="uni03B6" unicode="&#x3b6;" horiz-adv-x="353" 
d="M343 108v-208h-157v96l-36 14q-79 31 -113 71.5t-34 106.5v4q0 66 50 163l110 215h-129v145h311v-144l-140 -274q-30 -61 -30 -88q0 -22 11.5 -33.5t43.5 -23.5z" />
    <glyph glyph-name="uni03B7" unicode="&#x3b7;" horiz-adv-x="424" 
d="M192 0h-174v546h174v-60q41 72 108 72q54 0 81.5 -35.5t27.5 -96.5v-556h-174v504q0 28 -21 28q-22 0 -22 -28v-374z" />
    <glyph glyph-name="uni03B8" unicode="&#x3b8;" horiz-adv-x="423" 
d="M212 -13q-106 0 -153 85.5t-47 263.5v32q0 176 47.5 262.5t152.5 86.5q106 0 152.5 -85.5t46.5 -263.5v-32q0 -177 -47 -263t-152 -86zM212 136q19 0 25.5 29.5t7.5 121.5h-67q1 -91 8 -121t26 -30zM212 568q-20 0 -26.5 -29t-7.5 -118h67q-1 89 -7.5 118t-25.5 29z" />
    <glyph glyph-name="uni03B9" unicode="&#x3b9;" horiz-adv-x="243" 
d="M15 124v422h174v-383q0 -15 5 -21.5t19 -6.5q7 0 23 2v-131q-48 -16 -96 -16q-125 0 -125 134z" />
    <glyph glyph-name="uni03BA" unicode="&#x3ba;" horiz-adv-x="421" 
d="M192 546v-182l59 182h175l-87 -237l87 -309h-177l-41 164l-16 -35v-129h-174v546h174z" />
    <glyph glyph-name="uni03BB" unicode="&#x3bb;" horiz-adv-x="408" 
d="M167 0h-175l126 549q-8 26 -41 26q-17 0 -37 -5v134q44 13 90 13q60 0 98 -30t55 -105l133 -582h-177l-35 275z" />
    <glyph glyph-name="uni03BC" unicode="&#x3bc;" horiz-adv-x="465" 
d="M458 137v-131q-48 -16 -80 -16q-65 0 -85 54q-25 -51 -63 -51q-40 0 -60 49l-3 -1q15 -70 15 -128v-43h-164v676h174v-370q0 -32 23 -32q22 0 22 32v370h174v-383q0 -15 5 -21.5t19 -6.5q7 0 23 2z" />
    <glyph glyph-name="uni03BD" unicode="&#x3bd;" horiz-adv-x="408" 
d="M115 -2l-123 548h177l36 -285l36 285h175l-123 -548h-178z" />
    <glyph glyph-name="uni03BE" unicode="&#x3be;" horiz-adv-x="347" 
d="M335 700v-154q-46 24 -79 24q-30 0 -47.5 -17t-17.5 -49q0 -65 71 -65h45v-146h-52q-78 0 -78 -73q0 -30 19.5 -50t72.5 -41l68 -27v-202h-157v96l-48 22q-65 30 -96 73.5t-31 110.5v4q0 123 103 166q-87 48 -87 153v4q0 84 52.5 137.5t149.5 53.5q57 0 112 -20z" />
    <glyph glyph-name="uni03BF" unicode="&#x3bf;" horiz-adv-x="426" 
d="M212 -13q-92 0 -146.5 67t-54.5 193v52q0 126 54.5 193t148.5 67q92 0 146.5 -67t54.5 -193v-52q0 -126 -54.5 -193t-148.5 -67zM213 140q17 0 23 23t6 85v50q0 62 -6 85t-23 23t-23 -23t-6 -85v-50q0 -62 6 -85t23 -23z" />
    <glyph glyph-name="uni03C0" unicode="&#x3c0;" horiz-adv-x="506" 
d="M273 124v261h-43v-385h-174v385h-47v161h485v-161h-47v-222q0 -15 5 -21.5t19 -6.5q7 0 23 2v-131q-48 -16 -96 -16q-125 0 -125 134z" />
    <glyph glyph-name="uni03C1" unicode="&#x3c1;" horiz-adv-x="431" 
d="M15 -129v448q0 126 55.5 183.5t149.5 57.5q199 0 199 -262v-53q0 -254 -126 -254q-35 0 -58.5 17.5t-45.5 54.5v-192h-174zM217 144q16 0 22.5 21t6.5 72v62q0 63 -6 85.5t-23 22.5q-16 0 -22.5 -19t-6.5 -69v-82q0 -51 6.5 -72t22.5 -21z" />
    <glyph glyph-name="uni03C2" unicode="&#x3c2;" horiz-adv-x="330" 
d="M163 -100v98l-46 35q-106 81 -106 247v18q0 122 57 190t149 68q54 0 100 -18v-163q-35 18 -64 18q-68 0 -68 -101v-7q0 -52 19.5 -82t59.5 -59l56 -40v-204h-157z" />
    <glyph glyph-name="uni03C3" unicode="&#x3c3;" horiz-adv-x="447" 
d="M212 -13q-92 0 -146.5 68t-54.5 194v34q0 129 58.5 196t173.5 67h197v-152l-81 2q54 -61 54 -155v-6q0 -117 -53.5 -182.5t-147.5 -65.5zM213 140q17 0 23 23t6 85v41q0 62 -6 85t-23 23t-23 -23t-6 -85v-41q0 -62 6 -85t23 -23z" />
    <glyph glyph-name="uni03C4" unicode="&#x3c4;" horiz-adv-x="349" 
d="M339 382h-79v-216q0 -17 7 -24t23 -7q13 0 32 4v-131q-54 -18 -106 -18q-130 0 -130 143v249h-77v164h330v-164z" />
    <glyph glyph-name="uni03C5" unicode="&#x3c5;" horiz-adv-x="423" 
d="M210 -13q-90 0 -142.5 51t-52.5 157v351h174v-372q0 -30 22 -30q23 0 23 30v372h174v-349q0 -106 -53.5 -158t-144.5 -52z" />
    <glyph glyph-name="uni03C6" unicode="&#x3c6;" horiz-adv-x="628" 
d="M401 -130h-174v129q-100 12 -158.5 81.5t-58.5 184.5v16q0 113 59 183t158 83v168h174v-168q99 -12 158 -82t59 -184v-16q0 -113 -59.5 -183.5t-157.5 -82.5v-129zM451 274q0 111 -55 127v-257q55 16 55 128v2zM177 272q0 -112 55 -128v257q-55 -16 -55 -127v-2z" />
    <glyph glyph-name="uni03C7" unicode="&#x3c7;" horiz-adv-x="418" 
d="M170 546l37 -164l43 164h172l-114 -320l124 -356h-174l-50 196l-50 -196h-172l121 358l-111 318h174z" />
    <glyph glyph-name="uni03C8" unicode="&#x3c8;" horiz-adv-x="612" 
d="M393 -130h-174v132q-102 9 -153 64.5t-51 165.5v314h168v-314q0 -36 9 -52.5t34 -20.5v556h160v-556q25 4 34 20.5t9 52.5v314h168v-314q0 -212 -204 -230v-132z" />
    <glyph glyph-name="uni03C9" unicode="&#x3c9;" horiz-adv-x="631" 
d="M235 427h161v-184q0 -94 27 -94q13 0 18 15.5t5 57.5v5q0 120 -60 319h172q61 -159 61 -321q0 -235 -162 -235q-96 0 -142 107q-46 -107 -141 -107q-162 0 -162 235q0 162 61 321h172q-60 -198 -60 -319v-5q0 -42 5 -57.5t18 -15.5q27 0 27 95v183z" />
    <glyph glyph-name="uni03CA" unicode="&#x3ca;" horiz-adv-x="243" 
d="M15 124v422h174v-383q0 -15 5 -21.5t19 -6.5q7 0 23 2v-131q-48 -16 -96 -16q-125 0 -125 134zM116 569v123h121v-123h-121zM-29 569v123h121v-123h-121z" />
    <glyph glyph-name="uni03CB" unicode="&#x3cb;" horiz-adv-x="423" 
d="M210 -13q-90 0 -142.5 51t-52.5 157v351h174v-372q0 -30 22 -30q23 0 23 30v372h174v-349q0 -106 -53.5 -158t-144.5 -52zM223 569v123h121v-123h-121zM78 569v123h121v-123h-121z" />
    <glyph glyph-name="uni03CC" unicode="&#x3cc;" horiz-adv-x="426" 
d="M212 -13q-92 0 -146.5 67t-54.5 193v52q0 126 54.5 193t148.5 67q92 0 146.5 -67t54.5 -193v-52q0 -126 -54.5 -193t-148.5 -67zM213 140q17 0 23 23t6 85v50q0 62 -6 85t-23 23t-23 -23t-6 -85v-50q0 -62 6 -85t23 -23zM162 577l36 136l141 -35l-89 -101h-88z" />
    <glyph glyph-name="uni03CD" unicode="&#x3cd;" horiz-adv-x="423" 
d="M210 -13q-90 0 -142.5 51t-52.5 157v351h174v-372q0 -30 22 -30q23 0 23 30v372h174v-349q0 -106 -53.5 -158t-144.5 -52zM160 569l36 136l141 -35l-89 -101h-88z" />
    <glyph glyph-name="uni03CE" unicode="&#x3ce;" horiz-adv-x="631" 
d="M235 427h161v-184q0 -94 27 -94q13 0 18 15.5t5 57.5v5q0 120 -60 319h172q61 -159 61 -321q0 -235 -162 -235q-96 0 -142 107q-46 -107 -141 -107q-162 0 -162 235q0 162 61 321h172q-60 -198 -60 -319v-5q0 -42 5 -57.5t18 -15.5q27 0 27 95v183zM264 569l36 136
l141 -35l-89 -101h-88z" />
    <glyph glyph-name="uni0400" unicode="&#x400;" horiz-adv-x="374" 
d="M19 0v700h339v-169h-161v-97h144v-164h-144v-101h164v-169h-342zM249 721h-118l-112 77l172 32z" />
    <glyph glyph-name="uni0401" unicode="&#x401;" horiz-adv-x="374" 
d="M19 0v700h339v-169h-161v-97h144v-164h-144v-101h164v-169h-342zM203 721v113h125v-113h-125zM52 721v113h125v-113h-125z" />
    <glyph glyph-name="uni0402" unicode="&#x402;" horiz-adv-x="525" 
d="M379 700v-170h-100v-91q30 2 39 2q106 0 156 -56t50 -175v-4q0 -208 -171 -208q-21 0 -45 2v142h4q22 0 30 11.5t8 49.5v1q0 39 -10.5 53.5t-42.5 14.5q-12 0 -18 -1v-271h-176v530h-94v170h370z" />
    <glyph glyph-name="uni0403" unicode="&#x403;" horiz-adv-x="342" 
d="M19 0v700h316v-169h-138v-531h-178zM110 721l58 109l172 -32l-112 -77h-118z" />
    <glyph glyph-name="uni0404" unicode="&#x404;" horiz-adv-x="398" 
d="M262 -10q-109 0 -179.5 86t-70.5 250v46q0 171 76 254.5t186 83.5q58 0 106 -20v-173q-47 25 -90 25q-88 0 -102 -112l153 1v-158l-153 1q6 -65 31 -90.5t67 -25.5q43 0 98 26v-164q-51 -30 -122 -30z" />
    <glyph glyph-name="uni0405" unicode="&#x405;" horiz-adv-x="393" 
d="M178 -13q-94 0 -158 41v175q76 -46 139 -46q46 0 46 36v2q0 15 -12 28.5t-42 37.5q-78 63 -109.5 109.5t-31.5 121.5v8q0 97 58 155t149 58q78 0 139 -28v-177q-62 35 -121 35q-22 0 -34 -10t-12 -25v-2q0 -15 12 -29.5t42 -38.5q77 -62 109 -110.5t32 -122.5v-8
q0 -93 -60 -151.5t-146 -58.5z" />
    <glyph glyph-name="uni0406" unicode="&#x406;" horiz-adv-x="220" 
d="M21 0v700h178v-700h-178z" />
    <glyph glyph-name="uni0407" unicode="&#x407;" horiz-adv-x="220" 
d="M21 0v700h178v-700h-178zM123 721v113h125v-113h-125zM-28 721v113h125v-113h-125z" />
    <glyph glyph-name="uni0408" unicode="&#x408;" horiz-adv-x="326" 
d="M125 -9q-62 0 -115 17v165q34 -13 68 -13q53 0 53 59v481h178v-502q0 -108 -52 -160q-47 -47 -132 -47z" />
    <glyph glyph-name="uni0409" unicode="&#x409;" horiz-adv-x="675" 
d="M264 0v539h-5l-99 -539h-173l151 700h302v-211q108 -3 170.5 -62t62.5 -175v-15q0 -121 -73.5 -179t-184.5 -58h-151zM440 151h2q55 0 55 84v19q0 84 -55 84h-2v-187z" />
    <glyph glyph-name="uni040A" unicode="&#x40a;" horiz-adv-x="680" 
d="M269 0v267h-72v-267h-178v700h178v-263h72v263h176v-211q108 -3 170.5 -62t62.5 -175v-15q0 -121 -73.5 -179t-184.5 -58h-151zM445 151h2q55 0 55 84v19q0 84 -55 84h-2v-187z" />
    <glyph glyph-name="uni040B" unicode="&#x40b;" horiz-adv-x="540" 
d="M379 700v-170h-100v-91q34 2 48 2q103 0 149 -49.5t46 -164.5v-227h-178v219q0 29 -10.5 39.5t-39.5 10.5q-10 0 -15 -1v-268h-176v530h-94v170h370z" />
    <glyph glyph-name="uni040C" unicode="&#x40c;" horiz-adv-x="446" 
d="M19 0v700h178v-293l68 293h180l-91 -341l95 -359h-185l-67 283v-283h-178zM165 721l58 109l172 -32l-112 -77h-118z" />
    <glyph glyph-name="uni040D" unicode="&#x40d;" horiz-adv-x="477" 
d="M458 0h-172v316l-91 -316h-176v700h172v-299l83 299h184v-700zM297 721h-118l-112 77l172 32z" />
    <glyph glyph-name="uni040E" unicode="&#x40e;" horiz-adv-x="445" 
d="M265 0h-178l51 178l-145 522h182l52 -245l49 245h178zM226 714q-121 0 -128 104h90q8 -26 38 -26t38 26h90q-7 -104 -128 -104z" />
    <glyph glyph-name="uni040F" unicode="&#x40f;" horiz-adv-x="468" 
d="M154 -113v113h-135v700h178v-530h74v530h178v-700h-135v-113h-160z" />
    <glyph glyph-name="uni0410" unicode="&#x410;" horiz-adv-x="464" 
d="M-8 0l133 701h214l133 -701h-177l-16 113h-98l-16 -113h-173zM201 258h58l-29 209z" />
    <glyph glyph-name="uni0411" unicode="&#x411;" horiz-adv-x="430" 
d="M19 0v700h358v-170h-182v-83q108 -2 170 -55.5t62 -160.5v-5q0 -116 -73.5 -171t-186.5 -55h-148zM195 149h3q26 0 41 18t15 52v9q0 34 -15 52t-41 18h-3v-149z" />
    <glyph glyph-name="uni0412" unicode="&#x412;" horiz-adv-x="446" 
d="M19 0v700h173q134 0 194 -60q45 -45 45 -125v-10q0 -49 -23.5 -87t-60.5 -60q95 -53 95 -152v-9q0 -99 -66.5 -148t-182.5 -49h-174zM259 479v1q0 57 -58 57h-10v-117h10q58 0 58 59zM265 223q0 29 -16.5 44t-43.5 15h-14v-119h14q60 0 60 57v3z" />
    <glyph glyph-name="uni0413" unicode="&#x413;" horiz-adv-x="342" 
d="M19 0v700h316v-169h-138v-531h-178z" />
    <glyph glyph-name="uni0414" unicode="&#x414;" horiz-adv-x="586" 
d="M7 170h59l109 531h236l108 -531h60v-283h-160v113h-252v-113h-160v283zM291 494l-51 -327h102z" />
    <glyph glyph-name="uni0415" unicode="&#x415;" horiz-adv-x="374" 
d="M19 0v700h339v-169h-161v-97h144v-164h-144v-101h164v-169h-342z" />
    <glyph glyph-name="uni0416" unicode="&#x416;" horiz-adv-x="670" 
d="M-2 700h182l70 -284l-3 284h176l-4 -285l71 285h178l-93 -345l97 -355h-182l-71 281l4 -281h-176l3 281l-70 -281h-178l92 340z" />
    <glyph glyph-name="uni0417" unicode="&#x417;" horiz-adv-x="382" 
d="M21 513v175q67 25 136 25q102 0 158 -48.5t56 -140.5v-6q0 -105 -89 -158q93 -48 93 -161v-6q0 -102 -60 -154t-161 -52q-81 0 -140 28v169q64 -29 114 -29q68 0 68 61v2q0 29 -18.5 43t-63.5 14h-52v154h53q45 0 64.5 14t19.5 44v2q0 56 -62 56q-49 0 -116 -32z" />
    <glyph glyph-name="uni0418" unicode="&#x418;" horiz-adv-x="477" 
d="M458 0h-172v316l-91 -316h-176v700h172v-299l83 299h184v-700z" />
    <glyph glyph-name="uni0419" unicode="&#x419;" horiz-adv-x="477" 
d="M458 0h-172v316l-91 -316h-176v700h172v-299l83 299h184v-700zM229 714q-121 0 -128 104h90q8 -26 38 -26t38 26h90q-7 -104 -128 -104z" />
    <glyph glyph-name="uni041A" unicode="&#x41a;" horiz-adv-x="446" 
d="M19 0v700h178v-293l68 293h180l-91 -341l95 -359h-185l-67 283v-283h-178z" />
    <glyph glyph-name="uni041B" unicode="&#x41b;" horiz-adv-x="456" 
d="M330 701l134 -701h-182l-56 392l-56 -392h-178l134 701h204z" />
    <glyph glyph-name="uni041C" unicode="&#x41c;" horiz-adv-x="536" 
d="M19 0v700h168l81 -203l81 203h168v-700h-172v325l-76 -191h-2l-76 191v-325h-172z" />
    <glyph glyph-name="uni041D" unicode="&#x41d;" horiz-adv-x="468" 
d="M19 0v700h178v-263h74v263h178v-700h-178v267h-74v-267h-178z" />
    <glyph glyph-name="uni041E" unicode="&#x41e;" horiz-adv-x="478" 
d="M239 -15q-108 0 -167.5 86.5t-59.5 252.5v52q0 166 59.5 252.5t167.5 86.5t167.5 -86.5t59.5 -252.5v-52q0 -166 -59.5 -252.5t-167.5 -86.5zM239 149q16 0 25 11.5t14.5 50t5.5 110.5v58q0 72 -5.5 110.5t-14.5 50t-25 11.5t-25 -11.5t-14.5 -50t-5.5 -110.5v-58
q0 -72 5.5 -110.5t14.5 -50t25 -11.5z" />
    <glyph glyph-name="uni041F" unicode="&#x41f;" horiz-adv-x="468" 
d="M19 0v700h430v-700h-178v530h-74v-530h-178z" />
    <glyph glyph-name="uni0420" unicode="&#x420;" horiz-adv-x="432" 
d="M19 0v700h167q113 0 178.5 -60.5t65.5 -181.5v-15q0 -65 -21.5 -114t-56.5 -75.5t-73 -39.5t-77 -13h-7v-201h-176zM195 355h3q56 0 56 85v21q0 85 -56 85h-3v-191z" />
    <glyph glyph-name="uni0421" unicode="&#x421;" horiz-adv-x="389" 
d="M256 -10q-106 0 -175 86t-69 250v46q0 171 74 254.5t182 83.5q56 0 103 -22v-176q-45 27 -84 27q-93 0 -93 -176v-26q0 -100 25 -138t68 -38q34 0 88 28v-167q-50 -32 -119 -32z" />
    <glyph glyph-name="uni0422" unicode="&#x422;" horiz-adv-x="392" 
d="M107 0v530h-98v170h374v-170h-98v-530h-178z" />
    <glyph glyph-name="uni0423" unicode="&#x423;" horiz-adv-x="445" 
d="M265 0h-178l51 178l-145 522h182l52 -245l49 245h178z" />
    <glyph glyph-name="uni0424" unicode="&#x424;" horiz-adv-x="656" 
d="M239 -17v66q-107 15 -169 93.5t-62 199.5v16q0 120 62.5 199t168.5 94v66h178v-66q106 -15 168.5 -94t62.5 -199v-16q0 -121 -62.5 -200t-168.5 -93v-66h-178zM470 352q0 123 -59 145v-294q59 20 59 145v4zM186 348q0 -125 59 -145v294q-59 -21 -59 -145v-4z" />
    <glyph glyph-name="uni0425" unicode="&#x425;" horiz-adv-x="427" 
d="M255 700h172l-103 -343l107 -357h-181l-38 199l-44 -199h-172l107 355l-103 345h181l34 -181z" />
    <glyph glyph-name="uni0426" unicode="&#x426;" horiz-adv-x="510" 
d="M343 -113v113h-324v700h178v-530h74v530h178v-530h54v-283h-160z" />
    <glyph glyph-name="uni0427" unicode="&#x427;" horiz-adv-x="462" 
d="M265 0v213q-20 -2 -54 -2q-103 0 -149 49.5t-46 164.5v275h178v-267q0 -29 10.5 -39.5t39.5 -10.5q13 0 21 1v316h178v-700h-178z" />
    <glyph glyph-name="uni0428" unicode="&#x428;" horiz-adv-x="692" 
d="M19 0v700h176v-530h63v530h176v-530h63v530h176v-700h-654z" />
    <glyph glyph-name="uni0429" unicode="&#x429;" horiz-adv-x="734" 
d="M19 0v700h176v-530h63v530h176v-530h63v530h176v-530h54v-283h-160v113h-548z" />
    <glyph glyph-name="uni042A" unicode="&#x42a;" horiz-adv-x="515" 
d="M102 0v532h-93v168h269v-211q109 -2 172 -61.5t63 -175.5v-15q0 -121 -74 -179t-185 -58h-152zM278 151h3q56 0 56 84v19q0 84 -56 84h-3v-187z" />
    <glyph glyph-name="uni042B" unicode="&#x42b;" horiz-adv-x="648" 
d="M19 0v700h176v-211q109 -2 172 -61.5t63 -175.5v-15q0 -121 -74 -179t-185 -58h-152zM451 0v700h178v-700h-178zM195 151h3q56 0 56 84v19q0 84 -56 84h-3v-187z" />
    <glyph glyph-name="uni042C" unicode="&#x42c;" horiz-adv-x="432" 
d="M19 0v700h176v-211q109 -2 172 -61.5t63 -175.5v-15q0 -121 -74 -179t-185 -58h-152zM195 151h3q56 0 56 84v19q0 84 -56 84h-3v-187z" />
    <glyph glyph-name="uni042D" unicode="&#x42d;" horiz-adv-x="398" 
d="M57 273v158l153 -1q-6 63 -29.5 87.5t-65.5 24.5q-45 0 -97 -24v164q53 28 121 28q112 0 179.5 -85t67.5 -251v-46q0 -171 -76 -254.5t-186 -83.5q-62 0 -110 20v173q47 -25 94 -25q90 0 102 116z" />
    <glyph glyph-name="uni042E" unicode="&#x42e;" horiz-adv-x="681" 
d="M19 0v700h178v-263h32q10 136 67 207t152 71q105 0 163 -86.5t58 -252.5v-52q0 -166 -58 -252.5t-163 -86.5q-96 0 -152.5 71.5t-66.5 210.5h-32v-267h-178zM448 149q14 0 21.5 11t12.5 49.5t5 111.5v58q0 73 -5 111.5t-12.5 49.5t-21.5 11t-21.5 -11t-12.5 -49.5
t-5 -111.5v-58q0 -73 5 -111.5t12.5 -49.5t21.5 -11z" />
    <glyph glyph-name="uni042F" unicode="&#x42f;" horiz-adv-x="451" 
d="M432 700v-700h-176v211h-3l-65 -211h-190l94 267q-80 65 -80 182v8q0 117 68.5 180t192.5 63h159zM256 546h-5q-56 0 -56 -88v-22q0 -82 56 -82h5v192z" />
    <glyph glyph-name="uni0430" unicode="&#x430;" horiz-adv-x="402" 
d="M120 -10q-50 0 -82 42t-32 120v17q0 88 36 130t95 42q41 0 77 -19v9q0 66 -69 66q-57 0 -109 -29v161q69 27 154 27q95 0 145 -50q52 -52 52 -156v-350h-173v45q-36 -55 -94 -55zM188 110q27 0 27 42v74q-16 7 -26 7q-29 0 -29 -51v-25q0 -47 28 -47z" />
    <glyph glyph-name="uni0431" unicode="&#x431;" horiz-adv-x="426" 
d="M215 -13q-83 0 -131 48q-38 38 -54.5 100t-16.5 164q0 219 53 304t200 103l112 14v-165l-85 -10q-84 -9 -116 -35.5t-38 -103.5q51 76 128 76q148 0 148 -231v-20q0 -116 -53 -180t-147 -64zM214 140q16 0 22 21t6 69v18q0 48 -6 69t-22 21t-22 -21t-6 -69v-18
q0 -48 6 -69t22 -21z" />
    <glyph glyph-name="uni0432" unicode="&#x432;" horiz-adv-x="414" 
d="M18 0v546h193q93 0 143.5 -35.5t50.5 -106.5v-5q0 -39 -19 -71t-53 -48q79 -35 79 -120v-5q0 -75 -53.5 -115t-145.5 -40h-195zM182 330h16q44 0 44 46v1q0 44 -44 44h-16v-91zM182 218v-93h15q47 0 47 46v2q0 45 -47 45h-15z" />
    <glyph glyph-name="uni0433" unicode="&#x433;" horiz-adv-x="304" 
d="M18 0v546h279v-164h-105v-382h-174z" />
    <glyph glyph-name="uni0434" unicode="&#x434;" horiz-adv-x="522" 
d="M367 548l95 -388h53v-260h-154v100h-200v-100h-154v260h56l94 388h210zM261 362l-34 -207h67z" />
    <glyph glyph-name="uni0435" unicode="&#x435;" horiz-adv-x="412" 
d="M228 -13q-102 0 -159.5 68.5t-57.5 198.5v35q0 128 55.5 199t146.5 71q87 0 137.5 -70.5t50.5 -203.5v-83h-220q6 -33 24.5 -47t53.5 -14q59 0 120 39l9 -151q-70 -42 -160 -42zM179 309h62q0 59 -7.5 81t-23.5 22q-10 0 -16 -6.5t-10.5 -30.5t-4.5 -66z" />
    <glyph glyph-name="uni0436" unicode="&#x436;" horiz-adv-x="628" 
d="M400 546l-3 -225l58 225h175l-80 -265l82 -281h-179l-56 206l3 -206h-170l3 208l-56 -208h-175l78 268l-84 278h179l58 -227l-3 227h170z" />
    <glyph glyph-name="uni0437" unicode="&#x437;" horiz-adv-x="338" 
d="M11 7v154q59 -29 105 -29q53 0 53 38v2q0 36 -58 36h-70v132h64q64 0 64 36v2q0 36 -51 36q-50 0 -103 -28v151q63 22 130 22q92 0 139 -40.5t47 -109.5v-4q0 -85 -79 -127q82 -37 82 -128v-3q0 -75 -50.5 -117.5t-142.5 -42.5q-75 0 -130 20z" />
    <glyph glyph-name="uni0438" unicode="&#x438;" horiz-adv-x="436" 
d="M18 0v546h164v-223l72 223h164v-546h-164v223l-72 -223h-164z" />
    <glyph glyph-name="uni0439" unicode="&#x439;" horiz-adv-x="436" 
d="M18 0v546h164v-223l72 223h164v-546h-164v223l-72 -223h-164zM216 564q-57 0 -91.5 29.5t-40.5 89.5h90q6 -39 42 -39t42 39h90q-6 -60 -40.5 -89.5t-91.5 -29.5z" />
    <glyph glyph-name="uni043A" unicode="&#x43a;" horiz-adv-x="426" 
d="M192 546v-218l59 218h177l-84 -265l86 -281h-181l-57 201v-201h-174v546h174z" />
    <glyph glyph-name="uni043B" unicode="&#x43b;" horiz-adv-x="420" 
d="M303 548l125 -548h-177l-42 291l-42 -291h-175l125 548h186z" />
    <glyph glyph-name="uni043C" unicode="&#x43c;" horiz-adv-x="477" 
d="M18 0v546h153l67 -157l68 157h153v-546h-156v242l-64 -148h-2l-63 148v-242h-156z" />
    <glyph glyph-name="uni043D" unicode="&#x43d;" horiz-adv-x="434" 
d="M18 0v546h174v-188h50v188h174v-546h-174v194h-50v-194h-174z" />
    <glyph glyph-name="uni043E" unicode="&#x43e;" horiz-adv-x="426" 
d="M212 -13q-92 0 -146.5 67t-54.5 193v52q0 126 54.5 193t148.5 67q92 0 146.5 -67t54.5 -193v-52q0 -126 -54.5 -193t-148.5 -67zM213 140q17 0 23 23t6 85v50q0 62 -6 85t-23 23t-23 -23t-6 -85v-50q0 -62 6 -85t23 -23z" />
    <glyph glyph-name="uni043F" unicode="&#x43f;" horiz-adv-x="434" 
d="M18 0v546h398v-546h-174v382h-50v-382h-174z" />
    <glyph glyph-name="uni0440" unicode="&#x440;" horiz-adv-x="437" 
d="M18 -130v676h174v-62q22 37 45.5 54.5t58.5 17.5q127 0 127 -254v-58q0 -254 -127 -254q-35 0 -58.5 17.5t-45.5 54.5v-192h-174zM220 143q16 0 22.5 21t6.5 72v74q0 51 -6.5 72t-22.5 21t-22.5 -21t-6.5 -72v-74q0 -51 6.5 -72t22.5 -21z" />
    <glyph glyph-name="uni0441" unicode="&#x441;" horiz-adv-x="332" 
d="M215 -10q-97 0 -150.5 68t-53.5 196v43q0 124 56.5 191.5t147.5 67.5q55 0 102 -21v-163q-36 21 -66 21q-66 0 -66 -107v-24q0 -109 67 -109q29 0 67 22v-161q-48 -24 -104 -24z" />
    <glyph glyph-name="uni0442" unicode="&#x442;" horiz-adv-x="368" 
d="M97 0v382h-88v164h350v-164h-88v-382h-174z" />
    <glyph glyph-name="uni0443" unicode="&#x443;" horiz-adv-x="404" 
d="M204 272l37 274h172l-162 -676h-172l34 138l-121 538h174z" />
    <glyph glyph-name="uni0444" unicode="&#x444;" horiz-adv-x="628" 
d="M401 -130h-174v129q-100 12 -158.5 81.5t-58.5 184.5v16q0 113 59 183t158 83v168h174v-168q99 -12 158 -82t59 -184v-16q0 -113 -59.5 -183.5t-157.5 -82.5v-129zM451 274q0 111 -55 127v-257q55 16 55 128v2zM177 272q0 -112 55 -128v257q-55 -16 -55 -127v-2z" />
    <glyph glyph-name="uni0445" unicode="&#x445;" horiz-adv-x="409" 
d="M171 546l32 -132l37 132h172l-105 -269l108 -277h-174l-35 143l-40 -143h-172l108 277l-105 269h174z" />
    <glyph glyph-name="uni0446" unicode="&#x446;" horiz-adv-x="474" 
d="M313 -100v100h-295v546h174v-382h50v382h174v-386h51v-260h-154z" />
    <glyph glyph-name="uni0447" unicode="&#x447;" horiz-adv-x="427" 
d="M235 0v155q-19 -2 -50 -2q-89 0 -129.5 41.5t-40.5 136.5v215h174v-198q0 -19 7 -26t24 -7q9 0 15 1v230h174v-546h-174z" />
    <glyph glyph-name="uni0448" unicode="&#x448;" horiz-adv-x="631" 
d="M18 0v546h169v-382h44v382h169v-382h44v382h169v-546h-595z" />
    <glyph glyph-name="uni0449" unicode="&#x449;" horiz-adv-x="671" 
d="M18 0v546h169v-382h44v382h169v-382h44v382h169v-386h51v-260h-154v100h-492z" />
    <glyph glyph-name="uni044A" unicode="&#x44a;" horiz-adv-x="485" 
d="M94 0v384h-85v162h257v-138h3q98 0 156 -48.5t58 -147.5v-6q0 -104 -65 -155t-178 -51h-146zM266 276v-144h3q46 0 46 66v13q0 65 -46 65h-3z" />
    <glyph glyph-name="uni044B" unicode="&#x44b;" horiz-adv-x="617" 
d="M190 546v-138h3q98 0 156 -48.5t58 -147.5v-6q0 -104 -65 -155t-178 -51h-146v546h172zM190 276v-144h3q46 0 46 66v13q0 65 -46 65h-3zM425 0v546h174v-546h-174z" />
    <glyph glyph-name="uni044C" unicode="&#x44c;" horiz-adv-x="409" 
d="M18 0v546h172v-138h3q98 0 156 -48.5t58 -147.5v-6q0 -104 -65 -155t-178 -51h-146zM190 132h3q46 0 46 66v13q0 65 -46 65h-3v-144z" />
    <glyph glyph-name="uni044D" unicode="&#x44d;" horiz-adv-x="353" 
d="M42 339l132 -3q-4 40 -23.5 56.5t-56.5 16.5q-39 0 -79 -17v150q48 17 108 17q106 0 162.5 -70.5t56.5 -202.5v-26q0 -134 -59 -203.5t-170 -69.5q-55 0 -100 15v152q37 -17 80 -17q38 0 58 16t24 55l-133 -2v133z" />
    <glyph glyph-name="uni044E" unicode="&#x44e;" horiz-adv-x="629" 
d="M192 195v-195h-174v546h174v-190h32q12 99 64 151t132 52q90 0 144 -67t54 -193v-52q0 -126 -54 -193t-145 -67q-81 0 -132.5 53.5t-62.5 154.5h-32zM419 140q16 0 22 22t6 86v50q0 64 -6 86t-22 22q-15 0 -21 -22t-6 -86v-50q0 -64 6 -86t21 -22z" />
    <glyph glyph-name="uni044F" unicode="&#x44f;" horiz-adv-x="424" 
d="M178 0h-183l79 206q-62 51 -62 139v6q0 93 56.5 144t163.5 51h174v-546h-172v156h-5zM234 414h-5q-44 0 -44 -68v-5q0 -37 10.5 -52.5t33.5 -15.5h5v141z" />
    <glyph glyph-name="uni0450" unicode="&#x450;" horiz-adv-x="412" 
d="M228 -13q-102 0 -159.5 68.5t-57.5 198.5v35q0 128 55.5 199t146.5 71q87 0 137.5 -70.5t50.5 -203.5v-83h-220q6 -33 24.5 -47t53.5 -14q59 0 120 39l9 -151q-70 -42 -160 -42zM179 309h62q0 59 -7.5 81t-23.5 22q-10 0 -16 -6.5t-10.5 -30.5t-4.5 -66zM171 577l-123 92
l152 37l69 -129h-98z" />
    <glyph glyph-name="uni0451" unicode="&#x451;" horiz-adv-x="412" 
d="M228 -13q-102 0 -159.5 68.5t-57.5 198.5v35q0 128 55.5 199t146.5 71q87 0 137.5 -70.5t50.5 -203.5v-83h-220q6 -33 24.5 -47t53.5 -14q59 0 120 39l9 -151q-70 -42 -160 -42zM179 309h62q0 59 -7.5 81t-23.5 22q-10 0 -16 -6.5t-10.5 -30.5t-4.5 -66zM224 577v123h121
v-123h-121zM79 577v123h121v-123h-121z" />
    <glyph glyph-name="uni0452" unicode="&#x452;" horiz-adv-x="464" 
d="M331 519h-102v-77q36 2 50 2q89 0 129.5 -41.5t40.5 -136.5v-238q0 -88 -38.5 -125.5t-118.5 -37.5q-20 0 -46 2v112q19 0 24 6t5 26v238q0 19 -7 26t-24 7q-2 0 -7 -0.5t-8 -0.5v-281h-174v516h-56v136h56v63h174v-63h102v-133z" />
    <glyph glyph-name="uni0453" unicode="&#x453;" horiz-adv-x="304" 
d="M18 0v546h279v-164h-105v-382h-174zM93 569l69 129l152 -37l-123 -92h-98z" />
    <glyph glyph-name="uni0454" unicode="&#x454;" horiz-adv-x="353" 
d="M311 340v-133l-133 2q5 -39 24.5 -55.5t56.5 -16.5q39 0 81 18v-150q-51 -18 -109 -18q-106 0 -163 69.5t-57 203.5v26q0 131 59 202t170 71q53 0 98 -15v-152q-37 17 -78 17q-38 0 -58 -16.5t-24 -55.5z" />
    <glyph glyph-name="uni0455" unicode="&#x455;" horiz-adv-x="331" 
d="M156 -13q-80 0 -143 34v162q78 -44 119 -44q26 0 26 19v2q0 14 -40 45q-28 21 -44 36t-33.5 38t-25.5 50.5t-8 62.5v2q0 76 47.5 120.5t126.5 44.5q61 0 121 -22v-164q-65 34 -107 34q-22 0 -22 -17v-2q0 -2 0.5 -4t2 -4t2.5 -4t4 -4.5t4.5 -4t5.5 -5t6 -5l7 -5.5t8 -6
q28 -22 41 -34t33 -36t28.5 -52.5t8.5 -64.5v-2q0 -75 -47.5 -122.5t-120.5 -47.5z" />
    <glyph glyph-name="uni0456" unicode="&#x456;" horiz-adv-x="214" 
d="M19 576v139h176v-139h-176zM20 0v546h174v-546h-174z" />
    <glyph glyph-name="uni0457" unicode="&#x457;" horiz-adv-x="214" 
d="M20 0v546h174v-546h-174zM119 569v123h121v-123h-121zM-26 569v123h121v-123h-121z" />
    <glyph glyph-name="uni0458" unicode="&#x458;" horiz-adv-x="214" 
d="M19 576v139h176v-139h-176zM37 -135q-37 0 -74 6v111q12 -2 22 -2q35 0 35 38v528h174v-522q0 -85 -38.5 -122t-118.5 -37z" />
    <glyph glyph-name="uni0459" unicode="&#x459;" horiz-adv-x="631" 
d="M242 0v387h-3l-74 -387h-175l129 546h294v-138h2q98 0 156 -48.5t58 -147.5v-6q0 -104 -65 -155t-178 -51h-144zM413 132h2q46 0 46 66v13q0 65 -46 65h-2v-144z" />
    <glyph glyph-name="uni045A" unicode="&#x45a;" horiz-adv-x="629" 
d="M411 546v-138h2q98 0 156 -48.5t58 -147.5v-6q0 -104 -65 -155t-178 -51h-144v194h-49v-194h-173v546h173v-188h49v188h171zM411 276v-144h2q46 0 46 66v13q0 65 -46 65h-2z" />
    <glyph glyph-name="uni045B" unicode="&#x45b;" horiz-adv-x="464" 
d="M331 519h-102v-77q36 2 50 2q89 0 129.5 -41.5t40.5 -136.5v-266h-174v249q0 19 -7 26t-24 7q-2 0 -7 -0.5t-8 -0.5v-281h-174v516h-56v136h56v63h174v-63h102v-133z" />
    <glyph glyph-name="uni045C" unicode="&#x45c;" horiz-adv-x="426" 
d="M192 546v-218l59 218h177l-84 -265l86 -281h-181l-57 201v-201h-174v546h174zM162 569l69 129l152 -37l-123 -92h-98z" />
    <glyph glyph-name="uni045D" unicode="&#x45d;" horiz-adv-x="436" 
d="M18 0v546h164v-223l72 223h164v-546h-164v223l-72 -223h-164zM177 569l-123 92l152 37l69 -129h-98z" />
    <glyph glyph-name="uni045E" unicode="&#x45e;" horiz-adv-x="404" 
d="M204 272l37 274h172l-162 -676h-172l34 138l-121 538h174zM202 564q-57 0 -91.5 29.5t-40.5 89.5h90q6 -39 42 -39t42 39h90q-6 -60 -40.5 -89.5t-91.5 -29.5z" />
    <glyph glyph-name="uni045F" unicode="&#x45f;" horiz-adv-x="434" 
d="M140 -100v100h-122v546h174v-382h50v382h174v-546h-122v-100h-154z" />
    <glyph glyph-name="uni0462" unicode="&#x462;" horiz-adv-x="510" 
d="M274 717l-1 -72h115v-152h-115v-64q111 -2 173 -54t62 -155v-5q0 -108 -72 -161.5t-190 -53.5h-146v487h-91v158h91v72h174zM274 144h5q53 0 53 70v6q0 67 -53 67h-5v-143z" />
    <glyph glyph-name="uni0463" unicode="&#x463;" horiz-adv-x="485" 
d="M387 409h-121v-55h11q95 0 150.5 -42t55.5 -129v-6q0 -89 -62 -133t-163 -44h-164v406h-85v140h85v169h172v-169h121v-137zM266 229v-104h3q48 0 48 49v7q0 48 -48 48h-3z" />
    <glyph glyph-name="uni0472" unicode="&#x472;" horiz-adv-x="470" 
d="M235 -15q-107 0 -165 86t-58 253v52q0 167 58 253t165 86t165 -86t58 -253v-52q0 -167 -58 -253t-165 -86zM235 143q24 0 35.5 28t13.5 107h-99q2 -79 14 -107t36 -28zM235 557q-23 0 -35 -27t-15 -104h99q-2 77 -13.5 104t-35.5 27z" />
    <glyph glyph-name="uni0473" unicode="&#x473;" horiz-adv-x="420" 
d="M209 -13q-92 0 -145 67t-53 193v52q0 126 53 193t147 67q92 0 145 -67t53 -193v-52q0 -126 -53 -193t-147 -67zM210 132q18 0 26.5 19.5t9.5 70.5h-72q1 -51 9.5 -70.5t26.5 -19.5zM210 414q-18 0 -26.5 -18.5t-9.5 -65.5h72q-1 47 -10 65.5t-26 18.5z" />
    <glyph glyph-name="uni0474" unicode="&#x474;" horiz-adv-x="477" 
d="M124 -1l-132 701h182l50 -382l29 188q17 110 63 153t139 43h17v-166h-4q-25 0 -37.5 -15.5t-22.5 -66.5l-92 -455h-192z" />
    <glyph glyph-name="uni0475" unicode="&#x475;" horiz-adv-x="433" 
d="M113 -2l-121 548h177l35 -285l19 115q16 99 56 136t108 37q21 0 41 -3v-147h-4q-25 0 -37.5 -15.5t-22.5 -60.5l-73 -325h-178z" />
    <glyph glyph-name="uni0490" unicode="&#x490;" horiz-adv-x="342" 
d="M19 0v700h158v109h158v-278h-138v-531h-178z" />
    <glyph glyph-name="uni0491" unicode="&#x491;" horiz-adv-x="304" 
d="M18 0v546h131v96h148v-260h-105v-382h-174z" />
    <glyph glyph-name="uni0492" unicode="&#x492;" horiz-adv-x="362" 
d="M39 0v242h-33v123h33v335h316v-169h-138v-166h62v-123h-62v-242h-178z" />
    <glyph glyph-name="uni0493" unicode="&#x493;" horiz-adv-x="322" 
d="M36 0v177h-32v101h32v268h279v-164h-105v-104h49v-101h-49v-177h-174z" />
    <glyph glyph-name="uni0496" unicode="&#x496;" horiz-adv-x="704" 
d="M-2 700h182l70 -284l-3 284h176l-4 -285l71 285h178l-93 -345l51 -185h71v-283h-160v113h-47l-71 281l4 -281h-176l3 281l-70 -281h-178l92 340z" />
    <glyph glyph-name="uni0497" unicode="&#x497;" horiz-adv-x="653" 
d="M400 546l-3 -225l58 225h175l-80 -265l35 -121h61v-260h-154v100h-39l-56 206l3 -206h-170l3 208l-56 -208h-175l78 268l-84 278h179l58 -227l-3 227h170z" />
    <glyph glyph-name="uni0498" unicode="&#x498;" horiz-adv-x="382" 
d="M106 -113l2 103q-55 6 -94 25v169q64 -29 114 -29q68 0 68 61v2q0 29 -18.5 43t-63.5 14h-52v154h53q45 0 64.5 14t19.5 44v2q0 56 -62 56q-49 0 -116 -32v175q67 25 136 25q102 0 158 -48.5t56 -140.5v-6q0 -105 -89 -158q93 -48 93 -161v-6q0 -142 -116 -188l3 -118
h-156z" />
    <glyph glyph-name="uni0499" unicode="&#x499;" horiz-adv-x="338" 
d="M89 -100l2 90q-44 5 -80 17v154q59 -29 105 -29q53 0 53 38v2q0 36 -58 36h-70v132h64q64 0 64 36v2q0 36 -51 36q-50 0 -103 -28v151q63 22 130 22q92 0 139 -40.5t47 -109.5v-4q0 -85 -79 -127q82 -37 82 -128v-3q0 -110 -100 -145l3 -102h-148z" />
    <glyph glyph-name="uni049A" unicode="&#x49a;" horiz-adv-x="481" 
d="M445 700l-91 -341l50 -189h70v-283h-160v113h-50l-67 284v-284h-178v700h178v-291l68 291h180z" />
    <glyph glyph-name="uni049B" unicode="&#x49b;" horiz-adv-x="450" 
d="M192 546v-218l59 218h177l-84 -265l37 -121h62v-260h-154v100h-40l-57 201v-201h-174v546h174z" />
    <glyph glyph-name="uni049C" unicode="&#x49c;" horiz-adv-x="497" 
d="M273 623l-7 -191h1l64 268h165l-90 -336h1l93 -364h-170l-62 272h-2l7 -170h-56l2 170h-29v-272h-171v700h171v-268h30l-3 191h56z" />
    <glyph glyph-name="uni049D" unicode="&#x49d;" horiz-adv-x="455" 
d="M459 0h-162l-50 205h-2l7 -134h-54l1 134h-20v-205h-161v546h161v-200h20l-1 131h54l-7 -131h3l48 200h162l-74 -262z" />
    <glyph glyph-name="uni04A0" unicode="&#x4a0;" horiz-adv-x="529" 
d="M9 532v168h271v-291l68 291h180l-91 -341l95 -359h-185l-67 285v-285h-178v532h-93z" />
    <glyph glyph-name="uni04A1" unicode="&#x4a1;" horiz-adv-x="502" 
d="M9 384v162h259v-218l59 218h177l-84 -265l86 -281h-181l-57 201v-201h-174v384h-85z" />
    <glyph glyph-name="uni04A2" unicode="&#x4a2;" horiz-adv-x="510" 
d="M343 -113v113h-72v267h-74v-267h-178v700h178v-263h74v263h178v-530h54v-283h-160z" />
    <glyph glyph-name="uni04A3" unicode="&#x4a3;" horiz-adv-x="474" 
d="M313 -100v100h-71v194h-50v-194h-174v546h174v-188h50v188h174v-386h51v-260h-154z" />
    <glyph glyph-name="uni04A4" unicode="&#x4a4;" horiz-adv-x="577" 
d="M269 0v267h-72v-267h-178v700h178v-263h72v263h301v-169h-123v-531h-178z" />
    <glyph glyph-name="uni04A5" unicode="&#x4a5;" horiz-adv-x="510" 
d="M191 546v-188h49v188h263v-164h-90v-382h-173v194h-49v-194h-173v546h173z" />
    <glyph glyph-name="uni04AA" unicode="&#x4aa;" horiz-adv-x="389" 
d="M142 -113l3 132q-62 36 -97.5 113.5t-35.5 193.5v46q0 171 74 254.5t182 83.5q56 0 103 -22v-176q-45 27 -84 27q-93 0 -93 -176v-26q0 -100 25 -138t68 -38q34 0 88 28v-167q-35 -23 -80 -29l3 -106h-156z" />
    <glyph glyph-name="uni04AB" unicode="&#x4ab;" horiz-adv-x="332" 
d="M115 -100l3 112q-107 57 -107 242v43q0 124 56.5 191.5t147.5 67.5q55 0 102 -21v-163q-36 21 -66 21q-66 0 -66 -107v-24q0 -109 67 -109q29 0 67 22v-161q-29 -15 -59 -20l3 -94h-148z" />
    <glyph glyph-name="uni04AE" unicode="&#x4ae;" horiz-adv-x="436" 
d="M129 0v245l-136 455h180l48 -231l46 231h176l-136 -455v-245h-178z" />
    <glyph glyph-name="uni04AF" unicode="&#x4af;" horiz-adv-x="408" 
d="M291 -130h-174v132l-125 544h177l36 -286l36 286h175l-125 -544v-132z" />
    <glyph glyph-name="uni04B0" unicode="&#x4b0;" horiz-adv-x="436" 
d="M129 0v147h-72v123h64l-128 430h180l48 -231l46 231h176l-129 -430h65v-123h-72v-147h-178z" />
    <glyph glyph-name="uni04B1" unicode="&#x4b1;" horiz-adv-x="408" 
d="M205 260l36 286h175l-103 -445h56v-101h-78v-130h-174v130h-78v101h55l-102 445h177z" />
    <glyph glyph-name="uni04B2" unicode="&#x4b2;" horiz-adv-x="460" 
d="M250 0l-38 199l-44 -199h-172l107 355l-103 345h181l34 -181l40 181h172l-103 -343l56 -187h73v-283h-160v113h-43z" />
    <glyph glyph-name="uni04B3" unicode="&#x4b3;" horiz-adv-x="432" 
d="M171 546l32 -132l37 132h172l-105 -269l45 -117h73v-260h-154v100h-30l-35 143l-40 -143h-172l108 277l-105 269h174z" />
    <glyph glyph-name="uni04B6" unicode="&#x4b6;" horiz-adv-x="504" 
d="M265 0v213q-20 -2 -54 -2q-103 0 -149 49.5t-46 164.5v275h178v-267q0 -29 10.5 -39.5t39.5 -10.5q13 0 21 1v316h178v-530h54v-283h-160v113h-72z" />
    <glyph glyph-name="uni04B7" unicode="&#x4b7;" horiz-adv-x="467" 
d="M235 0v155q-19 -2 -50 -2q-89 0 -129.5 41.5t-40.5 136.5v215h174v-198q0 -19 7 -26t24 -7q9 0 15 1v230h174v-386h51v-260h-154v100h-71z" />
    <glyph glyph-name="uni04B8" unicode="&#x4b8;" horiz-adv-x="485" 
d="M296 0v214q-20 -2 -28 -2l2 -128h-58l2 127q-100 2 -149 52.5t-49 161.5v275h170v-270q0 -42 29 -50l-3 183h58l-3 -187q14 0 29 3v321h170v-700h-170z" />
    <glyph glyph-name="uni04B9" unicode="&#x4b9;" horiz-adv-x="447" 
d="M248 65h-52l1 88h-7q-93 0 -134 47t-41 148v198h161v-194q0 -24 3.5 -33t17.5 -12l-1 144h52l-2 -146q8 0 22 2v239h161v-546h-161v155q-7 -1 -21 -1z" />
    <glyph glyph-name="uni04BA" unicode="&#x4ba;" horiz-adv-x="462" 
d="M197 700v-213q20 2 54 2q103 0 149 -49.5t46 -164.5v-275h-178v267q0 29 -10.5 39.5t-39.5 10.5q-13 0 -21 -1v-316h-178v700h178z" />
    <glyph glyph-name="uni04BB" unicode="&#x4bb;" horiz-adv-x="424" 
d="M18 0v715h174v-231q41 72 108 72q54 0 81.5 -35.5t27.5 -96.5v-424h-174v372q0 28 -21 28q-22 0 -22 -28v-372h-174z" />
    <glyph glyph-name="uni04C0" unicode="&#x4c0;" horiz-adv-x="220" 
d="M21 0v700h178v-700h-178z" />
    <glyph glyph-name="uni04C1" unicode="&#x4c1;" horiz-adv-x="670" 
d="M-2 700h182l70 -284l-3 284h176l-4 -285l71 285h178l-93 -345l97 -355h-182l-71 281l4 -281h-176l3 281l-70 -281h-178l92 340zM335 719q-121 0 -128 104h90q8 -26 38 -26t38 26h90q-7 -104 -128 -104z" />
    <glyph glyph-name="uni04C2" unicode="&#x4c2;" horiz-adv-x="628" 
d="M400 546l-3 -225l58 225h175l-80 -265l82 -281h-179l-56 208l3 -208h-170l3 208l-56 -208h-175l78 268l-84 278h179l58 -227l-3 227h170zM313 567q-57 0 -91.5 29.5t-40.5 89.5h90q6 -39 42 -39t42 39h90q-6 -60 -40.5 -89.5t-91.5 -29.5z" />
    <glyph glyph-name="uni04CF" unicode="&#x4cf;" horiz-adv-x="214" 
d="M20 0v715h174v-715h-174z" />
    <glyph glyph-name="uni04D0" unicode="&#x4d0;" horiz-adv-x="464" 
d="M-8 0l133 701h214l133 -701h-177l-16 113h-98l-16 -113h-173zM201 258h58l-29 209zM232 727q-121 0 -128 104h90q8 -26 38 -26t38 26h90q-7 -104 -128 -104z" />
    <glyph glyph-name="uni04D1" unicode="&#x4d1;" horiz-adv-x="402" 
d="M120 -10q-50 0 -82 42t-32 120v17q0 88 36 130t95 42q41 0 77 -19v9q0 66 -69 66q-57 0 -109 -29v161q69 27 154 27q95 0 145 -50q52 -52 52 -156v-350h-173v45q-36 -55 -94 -55zM188 110q27 0 27 42v74q-16 7 -26 7q-29 0 -29 -51v-25q0 -47 28 -47zM202 575
q-57 0 -91.5 29.5t-40.5 89.5h90q6 -39 42 -39t42 39h90q-6 -60 -40.5 -89.5t-91.5 -29.5z" />
    <glyph glyph-name="uni04D2" unicode="&#x4d2;" horiz-adv-x="464" 
d="M-8 0l133 701h214l133 -701h-177l-16 113h-98l-16 -113h-173zM201 258h58l-29 209zM245 729v113h125v-113h-125zM94 729v113h125v-113h-125z" />
    <glyph glyph-name="uni04D3" unicode="&#x4d3;" horiz-adv-x="402" 
d="M120 -10q-50 0 -82 42t-32 120v17q0 88 36 130t95 42q41 0 77 -19v9q0 66 -69 66q-57 0 -109 -29v161q69 27 154 27q95 0 145 -50q52 -52 52 -156v-350h-173v45q-36 -55 -94 -55zM188 110q27 0 27 42v74q-16 7 -26 7q-29 0 -29 -51v-25q0 -47 28 -47zM214 577v123h121
v-123h-121zM69 577v123h121v-123h-121z" />
    <glyph glyph-name="uni04D4" unicode="&#x4d4;" horiz-adv-x="619" 
d="M-13 0l151 700h465v-169h-161v-97h144v-164h-144v-101h164v-169h-342v113h-84l-20 -113h-173zM201 258h63v273h-13z" />
    <glyph glyph-name="uni04D5" unicode="&#x4d5;" horiz-adv-x="607" 
d="M141 -10q-58 0 -96.5 43t-38.5 124v17q0 85 36 126t95 41q41 0 77 -19v9q0 66 -69 66q-57 0 -109 -29v161q69 27 149 27q73 0 121 -42q43 45 107 45q84 0 133.5 -71t49.5 -203v-83h-220q11 -61 78 -61q59 0 120 39l9 -151q-70 -42 -157 -42q-105 0 -161 82
q-23 -37 -55.5 -58t-68.5 -21zM374 309h62q0 59 -7.5 81t-23.5 22q-10 0 -16 -6.5t-10.5 -30.5t-4.5 -66zM191 110q25 0 37 41q-10 37 -11 73q-16 9 -28 9q-29 0 -29 -51v-25q0 -47 31 -47z" />
    <glyph glyph-name="uni04D6" unicode="&#x4d6;" horiz-adv-x="374" 
d="M19 0v700h339v-169h-161v-97h144v-164h-144v-101h164v-169h-342zM190 719q-121 0 -128 104h90q8 -26 38 -26t38 26h90q-7 -104 -128 -104z" />
    <glyph glyph-name="uni04D7" unicode="&#x4d7;" horiz-adv-x="412" 
d="M228 -13q-102 0 -159.5 68.5t-57.5 198.5v35q0 128 55.5 199t146.5 71q87 0 137.5 -70.5t50.5 -203.5v-83h-220q6 -33 24.5 -47t53.5 -14q59 0 120 39l9 -151q-70 -42 -160 -42zM179 309h62q0 59 -7.5 81t-23.5 22q-10 0 -16 -6.5t-10.5 -30.5t-4.5 -66zM212 575
q-57 0 -91.5 29.5t-40.5 89.5h90q6 -39 42 -39t42 39h90q-6 -60 -40.5 -89.5t-91.5 -29.5z" />
    <glyph glyph-name="uni04D8" unicode="&#x4d8;" horiz-adv-x="452" 
d="M26 667q80 43 169 43q117 0 181.5 -82t64.5 -246v-35q0 -179 -61 -270.5t-162 -91.5q-97 0 -151 85.5t-54 254.5v100h252q-5 113 -92 113q-64 0 -137 -38zM221 152q43 0 44 141h-85q0 -141 41 -141z" />
    <glyph glyph-name="uni04D9" unicode="&#x4d9;" horiz-adv-x="412" 
d="M184 559q102 0 159.5 -68.5t57.5 -198.5v-35q0 -128 -55.5 -199t-146.5 -71q-87 0 -137.5 70.5t-50.5 203.5v83h220q-6 33 -24.5 47t-53.5 14q-59 0 -120 -39l-9 151q70 42 160 42zM233 237h-62q0 -59 7.5 -81t23.5 -22q10 0 16 6.5t10.5 30.5t4.5 66z" />
    <glyph glyph-name="uni04DC" unicode="&#x4dc;" horiz-adv-x="670" 
d="M-2 700h182l70 -284l-3 284h176l-4 -285l71 285h178l-93 -345l97 -355h-182l-71 281l4 -281h-176l3 281l-70 -281h-178l92 340zM348 721v113h125v-113h-125zM197 721v113h125v-113h-125z" />
    <glyph glyph-name="uni04DD" unicode="&#x4dd;" horiz-adv-x="628" 
d="M400 546l-3 -225l58 225h175l-80 -265l82 -281h-179l-56 206l3 -206h-170l3 208l-56 -208h-175l78 268l-84 278h179l58 -227l-3 227h170zM180 569v123h121v-123h-121zM325 569v123h121v-123h-121z" />
    <glyph glyph-name="uni04DE" unicode="&#x4de;" horiz-adv-x="382" 
d="M21 513v175q67 25 136 25q102 0 158 -48.5t56 -140.5v-6q0 -105 -89 -158q93 -48 93 -161v-6q0 -102 -60 -154t-161 -52q-81 0 -140 28v169q64 -29 114 -29q68 0 68 61v2q0 29 -18.5 43t-63.5 14h-52v154h53q45 0 64.5 14t19.5 44v2q0 56 -62 56q-49 0 -116 -32zM197 729
v113h125v-113h-125zM46 729v113h125v-113h-125z" />
    <glyph glyph-name="uni04DF" unicode="&#x4df;" horiz-adv-x="338" 
d="M11 7v154q59 -29 105 -29q53 0 53 38v2q0 36 -58 36h-70v132h64q64 0 64 36v2q0 36 -51 36q-50 0 -103 -28v151q63 22 130 22q92 0 139 -40.5t47 -109.5v-4q0 -85 -79 -127q82 -37 82 -128v-3q0 -75 -50.5 -117.5t-142.5 -42.5q-75 0 -130 20zM175 577v123h121v-123h-121
zM30 577v123h121v-123h-121z" />
    <glyph glyph-name="uni04E2" unicode="&#x4e2;" horiz-adv-x="477" 
d="M458 0h-172v316l-91 -316h-176v700h172v-299l83 299h184v-700zM100 723v105h276v-105h-276z" />
    <glyph glyph-name="uni04E3" unicode="&#x4e3;" horiz-adv-x="436" 
d="M18 0v546h164v-223l72 223h164v-546h-164v223l-72 -223h-164zM86 571v103h264v-103h-264z" />
    <glyph glyph-name="uni04E4" unicode="&#x4e4;" horiz-adv-x="477" 
d="M458 0h-172v316l-91 -316h-176v700h172v-299l83 299h184v-700zM251 721v113h125v-113h-125zM100 721v113h125v-113h-125z" />
    <glyph glyph-name="uni04E5" unicode="&#x4e5;" horiz-adv-x="436" 
d="M18 0v546h164v-223l72 223h164v-546h-164v223l-72 -223h-164zM230 569v123h121v-123h-121zM85 569v123h121v-123h-121z" />
    <glyph glyph-name="uni04E6" unicode="&#x4e6;" horiz-adv-x="478" 
d="M239 -15q-108 0 -167.5 86.5t-59.5 252.5v52q0 166 59.5 252.5t167.5 86.5t167.5 -86.5t59.5 -252.5v-52q0 -166 -59.5 -252.5t-167.5 -86.5zM239 149q16 0 25 11.5t14.5 50t5.5 110.5v58q0 72 -5.5 110.5t-14.5 50t-25 11.5t-25 -11.5t-14.5 -50t-5.5 -110.5v-58
q0 -72 5.5 -110.5t14.5 -50t25 -11.5zM252 729v113h125v-113h-125zM101 729v113h125v-113h-125z" />
    <glyph glyph-name="uni04E7" unicode="&#x4e7;" horiz-adv-x="426" 
d="M212 -13q-92 0 -146.5 67t-54.5 193v52q0 126 54.5 193t148.5 67q92 0 146.5 -67t54.5 -193v-52q0 -126 -54.5 -193t-148.5 -67zM213 140q17 0 23 23t6 85v50q0 62 -6 85t-23 23t-23 -23t-6 -85v-50q0 -62 6 -85t23 -23zM225 577v123h121v-123h-121zM80 577v123h121v-123
h-121z" />
    <glyph glyph-name="uni04E8" unicode="&#x4e8;" horiz-adv-x="470" 
d="M235 -15q-107 0 -165 86t-58 253v52q0 167 58 253t165 86t165 -86t58 -253v-52q0 -167 -58 -253t-165 -86zM235 143q24 0 35.5 28t13.5 107h-99q2 -79 14 -107t36 -28zM235 557q-23 0 -35 -27t-15 -104h99q-2 77 -13.5 104t-35.5 27z" />
    <glyph glyph-name="uni04E9" unicode="&#x4e9;" horiz-adv-x="420" 
d="M209 -13q-92 0 -145 67t-53 193v52q0 126 53 193t147 67q92 0 145 -67t53 -193v-52q0 -126 -53 -193t-147 -67zM210 132q18 0 26.5 19.5t9.5 70.5h-72q1 -51 9.5 -70.5t26.5 -19.5zM210 414q-18 0 -26.5 -18.5t-9.5 -65.5h72q-1 47 -10 65.5t-26 18.5z" />
    <glyph glyph-name="uni04EE" unicode="&#x4ee;" horiz-adv-x="445" 
d="M265 0h-178l51 178l-145 522h182l52 -245l49 245h178zM88 723v105h276v-105h-276z" />
    <glyph glyph-name="uni04EF" unicode="&#x4ef;" horiz-adv-x="404" 
d="M204 272l37 274h172l-162 -676h-172l34 138l-121 538h174zM70 571v103h264v-103h-264z" />
    <glyph glyph-name="uni04F0" unicode="&#x4f0;" horiz-adv-x="445" 
d="M265 0h-178l51 178l-145 522h182l52 -245l49 245h178zM88 721v113h125v-113h-125zM239 721v113h125v-113h-125z" />
    <glyph glyph-name="uni04F1" unicode="&#x4f1;" horiz-adv-x="404" 
d="M204 272l37 274h172l-162 -676h-172l34 138l-121 538h174zM69 569v123h121v-123h-121zM214 569v123h121v-123h-121z" />
    <glyph glyph-name="uni04F2" unicode="&#x4f2;" horiz-adv-x="445" 
d="M265 0h-178l51 178l-145 522h182l52 -245l49 245h178zM245 721l33 62l-77 -62h-103l58 109l134 -25l13 25l147 -27l-102 -82h-103z" />
    <glyph glyph-name="uni04F3" unicode="&#x4f3;" horiz-adv-x="404" 
d="M204 272l37 274h172l-162 -676h-172l34 138l-121 538h174zM90 569l69 129l109 -29l16 29l127 -33l-113 -96h-83l35 65l-77 -65h-83z" />
    <glyph glyph-name="uni04F4" unicode="&#x4f4;" horiz-adv-x="462" 
d="M265 0v213q-20 -2 -54 -2q-103 0 -149 49.5t-46 164.5v275h178v-267q0 -29 10.5 -39.5t39.5 -10.5q13 0 21 1v316h178v-700h-178zM242 721v113h125v-113h-125zM91 721v113h125v-113h-125z" />
    <glyph glyph-name="uni04F5" unicode="&#x4f5;" horiz-adv-x="427" 
d="M235 0v155q-19 -2 -50 -2q-89 0 -129.5 41.5t-40.5 136.5v215h174v-198q0 -19 7 -26t24 -7q9 0 15 1v230h174v-546h-174zM224 569v123h121v-123h-121zM79 569v123h121v-123h-121z" />
    <glyph glyph-name="uni04F8" unicode="&#x4f8;" horiz-adv-x="648" 
d="M19 0v700h176v-211q109 -2 172 -61.5t63 -175.5v-15q0 -121 -74 -179t-185 -58h-152zM451 0v700h178v-700h-178zM337 721v113h125v-113h-125zM186 721v113h125v-113h-125zM195 151h3q56 0 56 84v19q0 84 -56 84h-3v-187z" />
    <glyph glyph-name="uni04F9" unicode="&#x4f9;" horiz-adv-x="617" 
d="M190 546v-138h3q98 0 156 -48.5t58 -147.5v-6q0 -104 -65 -155t-178 -51h-146v546h172zM190 276v-144h3q46 0 46 66v13q0 65 -46 65h-3zM425 0v546h174v-546h-174zM320 569v123h121v-123h-121zM175 569v123h121v-123h-121z" />
    <glyph glyph-name="Wgrave" unicode="&#x1e80;" horiz-adv-x="668" 
d="M106 -1l-111 701h187l36 -376l45 376h145l45 -376l36 376h184l-111 -701h-185l-43 289l-43 -289h-185zM393 721h-118l-112 77l172 32z" />
    <glyph glyph-name="wgrave" unicode="&#x1e81;" horiz-adv-x="572" 
d="M97 -2l-102 548h172l28 -255l26 255h132l26 -255l28 255h170l-102 -548h-151l-38 219l-38 -219h-151zM245 569l-123 92l152 37l69 -129h-98z" />
    <glyph glyph-name="Wacute" unicode="&#x1e82;" horiz-adv-x="668" 
d="M106 -1l-111 701h187l36 -376l45 376h145l45 -376l36 376h184l-111 -701h-185l-43 289l-43 -289h-185zM275 721l58 109l172 -32l-112 -77h-118z" />
    <glyph glyph-name="wacute" unicode="&#x1e83;" horiz-adv-x="572" 
d="M97 -2l-102 548h172l28 -255l26 255h132l26 -255l28 255h170l-102 -548h-151l-38 219l-38 -219h-151zM229 569l69 129l152 -37l-123 -92h-98z" />
    <glyph glyph-name="Wdieresis" unicode="&#x1e84;" horiz-adv-x="668" 
d="M106 -1l-111 701h187l36 -376l45 376h145l45 -376l36 376h184l-111 -701h-185l-43 289l-43 -289h-185zM347 721v113h125v-113h-125zM196 721v113h125v-113h-125z" />
    <glyph glyph-name="wdieresis" unicode="&#x1e85;" horiz-adv-x="572" 
d="M97 -2l-102 548h172l28 -255l26 255h132l26 -255l28 255h170l-102 -548h-151l-38 219l-38 -219h-151zM298 569v123h121v-123h-121zM153 569v123h121v-123h-121z" />
    <glyph glyph-name="Ygrave" unicode="&#x1ef2;" horiz-adv-x="436" 
d="M129 0v245l-136 455h180l48 -231l46 231h176l-136 -455v-245h-178zM277 721h-118l-112 77l172 32z" />
    <glyph glyph-name="ygrave" unicode="&#x1ef3;" horiz-adv-x="404" 
d="M204 272l37 274h172l-162 -676h-172l34 138l-121 538h174zM161 569l-123 92l152 37l69 -129h-98z" />
    <glyph glyph-name="enspace" unicode="&#x2002;" 
 />
    <glyph glyph-name="emspace" unicode="&#x2003;" horiz-adv-x="1000" 
 />
    <glyph glyph-name="threeperemspace" unicode="&#x2004;" horiz-adv-x="333" 
 />
    <glyph glyph-name="fourperemspace" unicode="&#x2005;" horiz-adv-x="250" 
 />
    <glyph glyph-name="thinspace" unicode="&#x2009;" horiz-adv-x="100" 
 />
    <glyph glyph-name="hairspace" unicode="&#x200a;" horiz-adv-x="50" 
 />
    <glyph glyph-name="endash" unicode="&#x2013;" horiz-adv-x="440" 
d="M15 237v156h410v-156h-410z" />
    <glyph glyph-name="emdash" unicode="&#x2014;" horiz-adv-x="670" 
d="M15 237v156h640v-156h-640z" />
    <glyph glyph-name="quoteleft" unicode="&#x2018;" horiz-adv-x="212" 
d="M15 387v149q0 77 45 116.5t127 52.5l15 -66q-89 -21 -96 -68h91v-184h-182z" />
    <glyph glyph-name="quoteright" unicode="&#x2019;" horiz-adv-x="212" 
d="M25 382l-15 66q89 21 96 68h-91v184h182v-149q0 -77 -45 -116.5t-127 -52.5z" />
    <glyph glyph-name="quotesinglbase" unicode="&#x201a;" horiz-adv-x="212" 
d="M25 -134l-15 66q89 21 96 68h-91v184h182v-149q0 -77 -45 -116.5t-127 -52.5z" />
    <glyph glyph-name="quotedblleft" unicode="&#x201c;" horiz-adv-x="405" 
d="M217 387v149q0 142 163 169l15 -66q-88 -21 -95 -68h90v-184h-173zM15 387v149q0 142 163 169l15 -66q-88 -21 -95 -68h90v-184h-173z" />
    <glyph glyph-name="quotedblright" unicode="&#x201d;" horiz-adv-x="405" 
d="M227 382l-15 66q88 21 95 68h-90v184h173v-149q0 -142 -163 -169zM25 382l-15 66q88 21 95 68h-90v184h173v-149q0 -142 -163 -169z" />
    <glyph glyph-name="quotedblbase" unicode="&#x201e;" horiz-adv-x="405" 
d="M227 -134l-15 66q88 21 95 68h-90v184h173v-149q0 -142 -163 -169zM25 -134l-15 66q88 21 95 68h-90v184h173v-149q0 -142 -163 -169z" />
    <glyph glyph-name="dagger" unicode="&#x2020;" horiz-adv-x="280" 
d="M84 238l15 252l-79 -9v117l78 -9l-18 111h120l-18 -111l78 9v-117l-79 9l15 -252h-112z" />
    <glyph glyph-name="daggerdbl" unicode="&#x2021;" horiz-adv-x="280" 
d="M80 0l18 111l-78 -9v117l81 -9l-19 140l19 140l-81 -9v117l78 -9l-18 111h120l-18 -111l78 9v-117l-81 9l19 -140l-19 -140l81 9v-117l-78 9l18 -111h-120z" />
    <glyph glyph-name="bullet" unicode="&#x2022;" horiz-adv-x="376" 
d="M188 163q-59 0 -95 46.5t-36 133.5v22q0 87 36 133.5t95 46.5t95 -46.5t36 -133.5v-22q0 -87 -36 -133.5t-95 -46.5z" />
    <glyph glyph-name="ellipsis" unicode="&#x2026;" horiz-adv-x="636" 
d="M439 0v184h182v-184h-182zM227 0v184h182v-184h-182zM15 0v184h182v-184h-182z" />
    <glyph glyph-name="perthousand" unicode="&#x2030;" horiz-adv-x="842" 
d="M135 394q13 0 18 18.5t5 68.5v44q0 50 -5 68.5t-18 18.5t-18 -18.5t-5 -68.5v-44q0 -50 5 -68.5t18 -18.5zM135 299q-56 0 -88.5 48.5t-32.5 148.5v14q0 100 32.5 148.5t88.5 48.5t88.5 -48.5t32.5 -148.5v-14q0 -97 -33.5 -147t-87.5 -50zM504 700l-170 -351l-163 -349
h-89l169 349l164 351h89zM447 88q13 0 18 18.5t5 68.5v44q0 50 -5 68.5t-18 18.5t-18 -18.5t-5 -68.5v-44q0 -50 5 -68.5t18 -18.5zM447 -7q-56 0 -88.5 48.5t-32.5 148.5v14q0 97 33.5 147t87.5 50q56 0 88.5 -48.5t32.5 -148.5v-14q0 -100 -32.5 -148.5t-88.5 -48.5z
M707 88q13 0 18 18.5t5 68.5v44q0 50 -5 68.5t-18 18.5t-18 -18.5t-5 -68.5v-44q0 -50 5 -68.5t18 -18.5zM707 -7q-56 0 -88.5 48.5t-32.5 148.5v14q0 97 33.5 147t87.5 50q56 0 88.5 -48.5t32.5 -148.5v-14q0 -100 -32.5 -148.5t-88.5 -48.5z" />
    <glyph glyph-name="guilsinglleft" unicode="&#x2039;" horiz-adv-x="232" 
d="M121 45l-112 211v34l112 211l102 -39l-73 -188l73 -190z" />
    <glyph glyph-name="guilsinglright" unicode="&#x203a;" horiz-adv-x="232" 
d="M111 45l-102 39l73 188l-73 190l102 39l112 -211v-34z" />
    <glyph glyph-name="Euro" unicode="&#x20ac;" horiz-adv-x="413" 
d="M395 688v-173q-45 27 -86 27q-52 0 -76 -57h105v-112h-120v-43h120v-112h-107q21 -60 76 -60q39 0 92 28v-164q-56 -32 -122 -32q-80 0 -142 59t-82 166h-44v115h37v43h-37v115h45q21 108 87.5 165t142.5 57q64 0 111 -22z" />
    <glyph glyph-name="hryvnia" unicode="&#x20b4;" horiz-adv-x="429" 
d="M21 414l6 59l161 -26q37 37 37 60v2q0 39 -51 39q-47 0 -109 -31v169q66 27 133 27q100 0 151.5 -50t51.5 -134v-7q0 -51 -27 -105l44 -7l-6 -59l-73 11q-18 -22 -28 -32l-14 -15l109 -17l-6 -59l-153 25q-24 -25 -34 -39.5t-10 -30.5v-2q0 -40 52 -40q54 0 126 39v-169
q-71 -35 -148 -35q-98 0 -152 51.5t-54 141.5v4q0 57 29 110l-47 8l6 59l79 -13q10 14 24 27l19 20z" />
    <glyph glyph-name="numero" unicode="&#x2116;" horiz-adv-x="717" 
d="M19 0v700h164l69 -275v275h158v-700h-157l-76 292v-292h-158zM570 278q-63 0 -99.5 49t-36.5 144v45q0 96 37 145t101 49q63 0 99.5 -49.5t36.5 -144.5v-45q0 -96 -37 -144.5t-101 -48.5zM571 394q11 0 15 15.5t4 61.5v46q0 47 -4 62.5t-15 15.5t-15 -15.5t-4 -62.5v-46
q0 -46 4 -61.5t15 -15.5zM444 138v115h252v-115h-252z" />
    <glyph glyph-name="published" unicode="&#x2117;" horiz-adv-x="508" 
d="M254 -15q-110 0 -176 93.5t-66 254.5v34q0 161 66 254.5t176 93.5t176 -93.5t66 -254.5v-34q0 -161 -66 -254.5t-176 -93.5zM254 21q96 0 150 83.5t54 227.5v36q0 144 -54 227.5t-150 83.5t-150 -83.5t-54 -227.5v-36q0 -144 54 -227.5t150 -83.5zM147 142v420h100
q68 0 107.5 -36.5t39.5 -108.5v-9q0 -74 -42 -109.5t-95 -35.5h-4v-121h-106zM253 355h2q33 0 33 51v13q0 51 -33 51h-2v-115z" />
    <glyph glyph-name="servicemark" unicode="&#x2120;" horiz-adv-x="442" 
d="M195 385v315h78l38 -89l38 89h78v-315h-79v144l-36 -81h-2l-36 81v-144h-79zM85 381q-43 0 -74 18v79q37 -21 65 -21q22 0 22 17q0 11 -26 29q-36 28 -50.5 49t-14.5 55q0 42 25 69.5t69 27.5q39 0 68 -13v-79q-29 16 -58 16q-21 0 -21 -16q0 -12 26 -31
q36 -28 50.5 -48.5t14.5 -54.5q0 -46 -28.5 -71.5t-67.5 -25.5z" />
    <glyph glyph-name="trademark" unicode="&#x2122;" horiz-adv-x="447" 
d="M200 385v315h78l38 -89l38 89h78v-315h-79v144l-36 -81h-2l-36 81v-144h-79zM54 385v234h-48v81h179v-81h-48v-234h-83z" />
    <glyph glyph-name="Omega" unicode="&#x2126;" horiz-adv-x="492" 
d="M246 715q112 0 169.5 -72t57.5 -194v-13q0 -145 -75 -267h81v-169h-216v161q28 112 28 252v6q0 76 -10.5 104t-34.5 28t-34.5 -28t-10.5 -104v-6q0 -140 28 -252v-161h-216v169h81q-75 122 -75 267v13q0 122 57.5 194t169.5 72z" />
    <glyph glyph-name="Delta" unicode="&#x2206;" horiz-adv-x="478" 
d="M31 0l-23 153l114 548h234l114 -549l-23 -152h-416zM182 167h110l-55 350z" />
    <glyph glyph-name="minus" unicode="&#x2212;" horiz-adv-x="436" 
d="M416 274h-396v156h396v-156z" />
    <glyph glyph-name="Q.alt" horiz-adv-x="478" 
d="M282 -66l-26 54q-3 0 -9.5 -0.5t-10.5 -0.5q-104 0 -164 87t-60 252v50q0 166 59.5 252.5t167.5 86.5t167.5 -86.5t59.5 -252.5v-50q0 -166 -66 -257l73 -135h-191zM239 145q16 0 25 11.5t14.5 50t5.5 110.5v62q0 72 -5.5 110.5t-14.5 50t-25 11.5t-25 -11.5t-14.5 -50
t-5.5 -110.5v-62q0 -72 5.5 -110.5t14.5 -50t25 -11.5z" />
    <glyph glyph-name="a.alt" horiz-adv-x="437" 
d="M141 -10q-127 0 -127 254v58q0 254 127 254q35 0 58.5 -17.5t45.5 -54.5v62h174v-546h-174v62q-22 -37 -45.5 -54.5t-58.5 -17.5zM217 143q16 0 22.5 21t6.5 72v74q0 51 -6.5 72t-22.5 21t-22.5 -21t-6.5 -72v-74q0 -51 6.5 -72t22.5 -21z" />
    <glyph glyph-name="uni039E.alt" horiz-adv-x="421" 
d="M408 161v-161h-395v161h114v113h-95v156h95v109h-111v161h389v-161h-111v-109h95v-156h-95v-113h114z" />
    <glyph glyph-name="uni0424.bgr" horiz-adv-x="684" 
d="M252 -97v94q-112 16 -176.5 107t-64.5 238v16q0 146 64.5 237t176.5 107v96h180v-95q112 -17 176.5 -108t64.5 -237v-16q0 -146 -65 -237t-176 -107v-95h-180zM190 349q0 -155 68 -189v380q-68 -32 -68 -189v-2zM494 351q0 152 -68 188v-379q68 31 68 189v2z" />
    <glyph glyph-name="uni0432.bgr" horiz-adv-x="427" 
d="M218 -13q-203 0 -203 238v253q0 123 54 182.5t153 59.5q96 0 145 -53t49 -130v-4q0 -112 -96 -164q101 -40 101 -170v-7q0 -100 -56.5 -152.5t-146.5 -52.5zM219 136q34 0 34 75v6q0 39 -13.5 57t-45.5 18h-7v-87q0 -39 7.5 -54t24.5 -15zM187 515v-96h4q34 0 45.5 19.5
t11.5 69.5v6q0 62 -30 62q-31 0 -31 -61z" />
    <glyph glyph-name="uni0433.bgr" horiz-adv-x="341" 
d="M177 -13q-85 0 -127.5 44t-42.5 121v2q0 60 27.5 100.5t86.5 84.5q47 35 47 49v1q0 18 -24 18q-41 0 -109 -37v164q64 25 131 25q80 0 124 -42t44 -119v-2q0 -57 -26.5 -96.5t-82.5 -83.5q-52 -40 -52 -56v-1q0 -20 27 -20q43 0 122 42v-162q-76 -32 -145 -32z" />
    <glyph glyph-name="uni0434.bgr" horiz-adv-x="437" 
d="M188 -135q-78 0 -152 19v147q76 -23 142 -23q70 0 70 72v31q-46 -68 -107 -68q-127 0 -127 235v36q0 242 127 242q35 0 58.5 -17.5t45.5 -54.5v62h174v-456q0 -113 -55 -168q-57 -57 -176 -57zM217 191q16 0 22.5 20t6.5 69v34q0 49 -6.5 69t-22.5 20t-22.5 -20t-6.5 -69
v-34q0 -49 6.5 -69t22.5 -20z" />
    <glyph glyph-name="uni0436.bgr" horiz-adv-x="628" 
d="M400 715l-4 -396l59 227h175l-80 -265l82 -281h-179l-56 206l3 -206h-170l3 208l-56 -208h-175l78 268l-84 278h179l58 -228l-3 397h170z" />
    <glyph glyph-name="uni0438.bgr" horiz-adv-x="424" 
d="M124 -10q-54 0 -81.5 35.5t-27.5 96.5v424h174v-372q0 -28 21 -28q22 0 22 28v372h174v-546h-174v62q-41 -72 -108 -72z" />
    <glyph glyph-name="uni0439.bgr" horiz-adv-x="424" 
d="M124 -10q-54 0 -81.5 35.5t-27.5 96.5v424h174v-372q0 -28 21 -28q22 0 22 28v372h174v-546h-174v62q-41 -72 -108 -72zM210 564q-57 0 -91.5 29.5t-40.5 89.5h90q6 -39 42 -39t42 39h90q-6 -60 -40.5 -89.5t-91.5 -29.5z" />
    <glyph glyph-name="uni043A.bgr" horiz-adv-x="426" 
d="M430 0h-181l-57 201v-201h-174v715h174v-387l59 218h177l-84 -265z" />
    <glyph glyph-name="uni043F.bgr" horiz-adv-x="424" 
d="M18 0v546h174v-62q41 72 108 72q54 0 81.5 -36t27.5 -97v-423h-174v372q0 28 -21 28q-22 0 -22 -28v-372h-174z" />
    <glyph glyph-name="uni0442.bgr" horiz-adv-x="635" 
d="M18 0v546h172v-62q43 72 107 72q74 0 100 -72q41 72 113 72q53 0 81.5 -36t28.5 -96v-424h-172v372q0 28 -21 28q-22 0 -22 -28v-372h-172v372q0 28 -21 28q-22 0 -22 -28v-372h-172z" />
    <glyph glyph-name="uni0446.bgr" horiz-adv-x="464" 
d="M303 -100v100h-71v62q-41 -72 -108 -72q-54 0 -81.5 35.5t-27.5 96.5v424h174v-372q0 -28 21 -28q22 0 22 28v372h174v-386h51v-260h-154z" />
    <glyph glyph-name="uni0448.bgr" horiz-adv-x="635" 
d="M617 546v-546h-172v62q-43 -72 -107 -72q-74 0 -100 72q-41 -72 -113 -72q-53 0 -81.5 36t-28.5 96v424h172v-372q0 -28 21 -28q22 0 22 28v372h172v-372q0 -28 21 -28q22 0 22 28v372h172z" />
    <glyph glyph-name="uni0449.bgr" horiz-adv-x="675" 
d="M617 546v-386h51v-260h-154v100h-69v62q-43 -72 -107 -72q-74 0 -100 72q-41 -72 -113 -72q-53 0 -81.5 36t-28.5 96v424h172v-372q0 -28 21 -28q22 0 22 28v372h172v-372q0 -28 21 -28q22 0 22 28v372h172z" />
    <glyph glyph-name="uni044E.bgr" horiz-adv-x="629" 
d="M192 195v-195h-174v715h174v-359h32q12 99 64 151t132 52q90 0 144 -67t54 -193v-52q0 -126 -54 -193t-145 -67q-81 0 -132.5 53.5t-62.5 154.5h-32zM419 140q16 0 22 22t6 86v50q0 64 -6 86t-22 22q-15 0 -21 -22t-6 -86v-50q0 -64 6 -86t21 -22z" />
    <glyph glyph-name="aacute.alt" horiz-adv-x="437" 
d="M141 -10q-127 0 -127 254v58q0 254 127 254q35 0 58.5 -17.5t45.5 -54.5v62h174v-546h-174v62q-22 -37 -45.5 -54.5t-58.5 -17.5zM217 143q16 0 22.5 21t6.5 72v74q0 51 -6.5 72t-22.5 21t-22.5 -21t-6.5 -72v-74q0 -51 6.5 -72t22.5 -21zM172 577l69 129l152 -37
l-123 -92h-98z" />
    <glyph glyph-name="abreve.alt" horiz-adv-x="437" 
d="M141 -10q-127 0 -127 254v58q0 254 127 254q35 0 58.5 -17.5t45.5 -54.5v62h174v-546h-174v62q-22 -37 -45.5 -54.5t-58.5 -17.5zM217 143q16 0 22.5 21t6.5 72v74q0 51 -6.5 72t-22.5 21t-22.5 -21t-6.5 -72v-74q0 -51 6.5 -72t22.5 -21zM229 575q-57 0 -91.5 29.5
t-40.5 89.5h90q6 -39 42 -39t42 39h90q-6 -60 -40.5 -89.5t-91.5 -29.5z" />
    <glyph glyph-name="acircumflex.alt" horiz-adv-x="437" 
d="M141 -10q-127 0 -127 254v58q0 254 127 254q35 0 58.5 -17.5t45.5 -54.5v62h174v-546h-174v62q-22 -37 -45.5 -54.5t-58.5 -17.5zM217 143q16 0 22.5 21t6.5 72v74q0 51 -6.5 72t-22.5 21t-22.5 -21t-6.5 -72v-74q0 -51 6.5 -72t22.5 -21zM90 577l79 117h121l79 -117h-94
l-46 39l-46 -39h-93z" />
    <glyph glyph-name="adieresis.alt" horiz-adv-x="437" 
d="M141 -10q-127 0 -127 254v58q0 254 127 254q35 0 58.5 -17.5t45.5 -54.5v62h174v-546h-174v62q-22 -37 -45.5 -54.5t-58.5 -17.5zM217 143q16 0 22.5 21t6.5 72v74q0 51 -6.5 72t-22.5 21t-22.5 -21t-6.5 -72v-74q0 -51 6.5 -72t22.5 -21zM241 577v123h121v-123h-121z
M96 577v123h121v-123h-121z" />
    <glyph glyph-name="agrave.alt" horiz-adv-x="437" 
d="M141 -10q-127 0 -127 254v58q0 254 127 254q35 0 58.5 -17.5t45.5 -54.5v62h174v-546h-174v62q-22 -37 -45.5 -54.5t-58.5 -17.5zM217 143q16 0 22.5 21t6.5 72v74q0 51 -6.5 72t-22.5 21t-22.5 -21t-6.5 -72v-74q0 -51 6.5 -72t22.5 -21zM188 577l-123 92l152 37
l69 -129h-98z" />
    <glyph glyph-name="amacron.alt" horiz-adv-x="437" 
d="M141 -10q-127 0 -127 254v58q0 254 127 254q35 0 58.5 -17.5t45.5 -54.5v62h174v-546h-174v62q-22 -37 -45.5 -54.5t-58.5 -17.5zM217 143q16 0 22.5 21t6.5 72v74q0 51 -6.5 72t-22.5 21t-22.5 -21t-6.5 -72v-74q0 -51 6.5 -72t22.5 -21zM97 579v103h264v-103h-264z" />
    <glyph glyph-name="aogonek.alt" horiz-adv-x="437" 
d="M430 -52v-86q-27 -4 -66 -4q-125 0 -125 63q0 38 41 79h-35v62q-22 -37 -45.5 -54.5t-58.5 -17.5q-127 0 -127 254v58q0 254 127 254q35 0 58.5 -17.5t45.5 -54.5v62h174v-546h-25q-13 -18 -13 -29q0 -9 9.5 -14t39.5 -9zM217 143q16 0 22.5 21t6.5 72v74q0 51 -6.5 72
t-22.5 21t-22.5 -21t-6.5 -72v-74q0 -51 6.5 -72t22.5 -21z" />
    <glyph glyph-name="aring.alt" horiz-adv-x="437" 
d="M141 -10q-127 0 -127 254v58q0 254 127 254q35 0 58.5 -17.5t45.5 -54.5v62h174v-546h-174v62q-22 -37 -45.5 -54.5t-58.5 -17.5zM217 143q16 0 22.5 21t6.5 72v74q0 51 -6.5 72t-22.5 21t-22.5 -21t-6.5 -72v-74q0 -51 6.5 -72t22.5 -21zM229 573q-42 0 -70.5 28.5
t-28.5 70.5q0 40 29 68.5t70 28.5q42 0 70.5 -28.5t28.5 -70.5q0 -40 -29 -68.5t-70 -28.5zM229 623q19 0 31 13.5t12 34.5t-12 34.5t-31 13.5t-31 -13.5t-12 -34.5t12 -34.5t31 -13.5z" />
    <glyph glyph-name="aring.alt2" horiz-adv-x="402" 
d="M120 -10q-50 0 -82 42t-32 120v17q0 88 36 130t95 42q41 0 77 -19v9q0 66 -69 66q-57 0 -109 -29v161q42 17 86 22q-19 25 -19 58q0 40 29 68t70 28q42 0 70.5 -28t28.5 -70q0 -37 -26 -65q36 -12 60 -36q52 -52 52 -156v-350h-173v45q-36 -55 -94 -55zM188 110
q27 0 27 42v74q-16 7 -26 7q-29 0 -29 -51v-25q0 -47 28 -47zM159 607q0 -21 12 -34.5t31 -13.5t31 13.5t12 34.5t-12 34.5t-31 13.5t-31 -13.5t-12 -34.5z" />
    <glyph glyph-name="aringacute.alt" horiz-adv-x="437" 
d="M169 787l69 104l158 -27l-123 -77h-104zM141 -10q-127 0 -127 254v58q0 254 127 254q35 0 58.5 -17.5t45.5 -54.5v62h174v-546h-174v62q-22 -37 -45.5 -54.5t-58.5 -17.5zM217 143q16 0 22.5 21t6.5 72v74q0 51 -6.5 72t-22.5 21t-22.5 -21t-6.5 -72v-74q0 -51 6.5 -72
t22.5 -21zM229 573q-42 0 -70.5 28.5t-28.5 70.5q0 40 29 68.5t70 28.5q42 0 70.5 -28.5t28.5 -70.5q0 -40 -29 -68.5t-70 -28.5zM229 623q19 0 31 13.5t12 34.5t-12 34.5t-31 13.5t-31 -13.5t-12 -34.5t12 -34.5t31 -13.5z" />
    <glyph glyph-name="aringacute.alt2" horiz-adv-x="402" 
d="M142 723l69 104l158 -27l-123 -77h-104zM120 -10q-50 0 -82 42t-32 120v17q0 88 36 130t95 42q41 0 77 -19v9q0 66 -69 66q-57 0 -109 -29v161q42 17 86 22q-19 25 -19 58q0 40 29 68t70 28q42 0 70.5 -28t28.5 -70q0 -37 -26 -65q36 -12 60 -36q52 -52 52 -156v-350
h-173v45q-36 -55 -94 -55zM188 110q27 0 27 42v74q-16 7 -26 7q-29 0 -29 -51v-25q0 -47 28 -47zM159 607q0 -21 12 -34.5t31 -13.5t31 13.5t12 34.5t-12 34.5t-31 13.5t-31 -13.5t-12 -34.5z" />
    <glyph glyph-name="atilde.alt" horiz-adv-x="437" 
d="M141 -10q-127 0 -127 254v58q0 254 127 254q35 0 58.5 -17.5t45.5 -54.5v62h174v-546h-174v62q-22 -37 -45.5 -54.5t-58.5 -17.5zM217 143q16 0 22.5 21t6.5 72v74q0 51 -6.5 72t-22.5 21t-22.5 -21t-6.5 -72v-74q0 -51 6.5 -72t22.5 -21zM304 573q-20 0 -64 15t-57 15
q-22 0 -28 -33l-75 12q1 59 21 91t54 32q20 0 64 -15t57 -15q22 0 28 33l75 -12q-1 -59 -21 -91t-54 -32z" />
    <glyph glyph-name="i.dot" horiz-adv-x="214" 
d="M19 576v139h176v-139h-176zM20 0v546h174v-546h-174z" />
    <glyph glyph-name="uni0386.calt" horiz-adv-x="464" 
d="M-8 0l133 701h214l133 -701h-177l-16 113h-98l-16 -113h-173zM201 258h58l-29 209z" />
    <glyph glyph-name="uni0388.calt" horiz-adv-x="374" 
d="M19 0v700h339v-169h-161v-97h144v-164h-144v-101h164v-169h-342z" />
    <glyph glyph-name="uni0389.calt" horiz-adv-x="468" 
d="M19 0v700h178v-263h74v263h178v-700h-178v267h-74v-267h-178z" />
    <glyph glyph-name="uni038A.calt" horiz-adv-x="220" 
d="M21 0v700h178v-700h-178z" />
    <glyph glyph-name="uni038C.calt" horiz-adv-x="478" 
d="M239 -15q-108 0 -167.5 86.5t-59.5 252.5v52q0 166 59.5 252.5t167.5 86.5t167.5 -86.5t59.5 -252.5v-52q0 -166 -59.5 -252.5t-167.5 -86.5zM239 149q16 0 25 11.5t14.5 50t5.5 110.5v58q0 72 -5.5 110.5t-14.5 50t-25 11.5t-25 -11.5t-14.5 -50t-5.5 -110.5v-58
q0 -72 5.5 -110.5t14.5 -50t25 -11.5z" />
    <glyph glyph-name="uni038E.calt" horiz-adv-x="436" 
d="M129 0v245l-136 455h180l48 -231l46 231h176l-136 -455v-245h-178z" />
    <glyph glyph-name="uni038F.calt" horiz-adv-x="492" 
d="M246 715q112 0 169.5 -72t57.5 -194v-13q0 -145 -75 -267h81v-169h-216v161q28 112 28 252v6q0 76 -10.5 104t-34.5 28t-34.5 -28t-10.5 -104v-6q0 -140 28 -252v-161h-216v169h81q-75 122 -75 267v13q0 122 57.5 194t169.5 72z" />
    <glyph glyph-name="uni0399.calt" horiz-adv-x="220" 
d="M21 0v700h178v-700h-178zM123 721v113h125v-113h-125zM-28 721v113h125v-113h-125z" />
    <glyph glyph-name="uni03A5.calt" horiz-adv-x="436" 
d="M129 0v245l-136 455h180l48 -231l46 231h176l-136 -455v-245h-178zM231 721v113h125v-113h-125zM80 721v113h125v-113h-125z" />
    <glyph glyph-name="uni0431.srb" horiz-adv-x="426" 
d="M212 -13q-97 0 -149 66t-52 193v9q0 195 142 238l-51 51q-49 49 -49 92q0 33 22 56t71 23h231v-148l-128 3q-10 0 -10 -6q0 -4 14 -16l50 -42q61 -51 86.5 -106t25.5 -140v-9q0 -129 -53 -196.5t-150 -67.5zM213 132q10 0 16 7.5t9.5 32t3.5 69.5v26q0 45 -4 69.5t-10 32
t-15 7.5q-10 0 -16 -7.5t-9.5 -32t-3.5 -69.5v-26q0 -45 4 -69.5t10 -32t15 -7.5z" />
    <glyph glyph-name="three.alt" horiz-adv-x="379" 
d="M150 -12q-69 0 -132 22v167q58 -21 104 -21q35 0 54 15t19 39v2q0 32 -28 48t-98 19v150q125 5 125 65v3q0 21 -17 33.5t-46 12.5q-45 0 -107 -23v165q70 27 144 27q96 0 148.5 -47t52.5 -130v-7q0 -56 -28.5 -101t-76.5 -68q107 -53 107 -171v-7q0 -88 -60.5 -140.5
t-160.5 -52.5z" />
    <glyph glyph-name="registered.alt" horiz-adv-x="508" 
d="M254 -15q-110 0 -176 93.5t-66 254.5v34q0 161 66 254.5t176 93.5t176 -93.5t66 -254.5v-34q0 -161 -66 -254.5t-176 -93.5zM254 21q96 0 150 83.5t54 227.5v36q0 144 -54 227.5t-150 83.5t-150 -83.5t-54 -227.5v-36q0 -144 54 -227.5t150 -83.5zM137 144v420h105
q73 0 111 -38q36 -36 36 -101v-6q0 -75 -49 -113l55 -162h-114l-37 127h-1v-127h-106zM243 357h3q33 0 33 51v13q0 51 -33 51h-3v-115z" />
    <glyph glyph-name="hcoslug" horiz-adv-x="694" 
d="M273 18h-26q0 -12 10 -12q8 0 9 7h7q-3 -14 -18 -14q-21 0 -21 20q0 9 6 15t14 6q21 0 19 -22zM254 35q-7 0 -7 -12h14q0 12 -7 12zM195 78q8 0 8 16q0 15 -8 15t-8 -15q0 -16 8 -16zM210 4q8 0 8 16q0 15 -8 15t-8 -15q0 -16 8 -16zM210 -1q-21 0 -21 21q0 20 21 20
t21 -20q0 -9 -6 -15t-15 -6zM546 4q8 0 8 16q0 15 -8 15t-8 -15q0 -16 8 -16zM546 -1q-21 0 -21 21q0 20 21 20t21 -20q0 -9 -6 -15t-15 -6zM125 74v7h7v41h-7v7h51v-20h-8q-2 13 -11 13h-12v-18h4q5 0 6 8h7v-23h-7q-1 8 -6 8h-4v-16h10v-7h-30zM195 73q-21 0 -21 21
q0 20 21 20t21 -20q0 -9 -6 -15t-15 -6zM644 -100v800h-594v-800h594zM498 -1q-29 0 -29 28q0 13 8 21.5t19 8.5q9 0 16 -7l1 6h8v-22h-8q-5 16 -15 16q-14 0 -14 -22t16 -22q12 0 14 16h8q-2 -23 -24 -23zM372 80q7 0 7 13t-7 13q-8 0 -8 -13t8 -13zM276 0v7h6v25h-7v7h7v1
q0 19 19 19q5 0 9 -2l10 2v-52h6v-7h-23v7h5v25h-14v-25h5v-7h-23zM368 0v7h6v25h-6v7h18v-10q4 11 12 11t8 -8q0 -7 -7 -7q-6 0 -6 6v1q-3 0 -7 -9v-16h8v-7h-26zM352 73v52h-6v7h18v-27q3 9 13 9q15 0 15 -20q0 -21 -16 -21q-9 0 -14 8l-4 -8h-6zM400 75q5 0 6.5 -4
t-1.5 -6q6 0 8 8l-16 33h-5v7h25v-7h-6l9 -20l8 20h-5v7h17v-7h-5l-13 -31q-6 -16 -18 -16q-11 0 -11 9q0 7 7 7zM247 428q0 13 7.5 21t19.5 8q13 0 21 -10.5t8 -27.5q0 -22 -18 -50q-15 14 -21 20.5t-11.5 17t-5.5 21.5zM302 74v14h7q6 -9 12 -9q5 0 5 4q0 3 -12 6.5
t-12 12.5q0 12 14 12q8 0 11 -5l2 5h6v-13h-7q-5 7 -10 7t-5 -4q0 -3 12 -6t12 -12q0 -13 -14 -13q-5 0 -13 5l-1 -4h-7zM261 219q-22 0 -37 15.5t-15 38.5q0 24 16 40q34 -32 74 -82q-15 -12 -38 -12zM274 122l12 2v-11h13v-7h-13v-20q0 -5 4 -5t5 7l5 -2q-3 -13 -14 -13
q-12 0 -12 13v20h-7v7h7v9zM428 306q-26 -16 -46 -42q35 -41 62 -41q26 0 43 29l7 -2q-1 -43 -24 -68.5t-56 -25.5q-41 0 -85 45q-41 -45 -104 -45q-45 0 -77 27t-32 66q0 63 82 91q-31 32 -31 69q0 34 30.5 59.5t78.5 25.5q44 0 69.5 -22.5t25.5 -51.5q0 -19 -9 -34
q46 2 49 -37q25 38 60 38q21 0 35.5 -14.5t14.5 -37.5t-14.5 -38.5t-35.5 -15.5q-28 0 -43 25zM219 74v7h6v25h-6v7h17v-10q5 11 14 11q12 0 12 -14v-19h6v-7h-22v7h4v18q0 7 -6 7q-7 0 -7 -10v-15h4v-7h-22zM446 33h18v-7h-5q-3 -6 -9 -14q3 -5 6 -5t4 5l5 -1
q-3 -12 -13 -12q-7 0 -12 6q-6 -6 -15 -6q-18 0 -18 14q0 11 13 15q-6 6 -6 12q0 14 17 14q14 0 14 -12q0 -7 -11 -12q3 -3 6.5 -7t5.5 -6q4 5 6 9h-6v7zM429 6q3 0 8 3q-10 12 -14 16q-4 -4 -4 -9q0 -10 10 -10zM294 42v-3h14v5q-6 0 -6 6l1 3q-1 1 -3 1q-6 0 -6 -12z
M425 43q0 -4 6 -10q5 3 5 9t-6 6q-5 0 -5 -5zM312 342q30 20 42 34q29 -29 -1 -80q-33 38 -41 46zM366 18h-26q0 -12 10 -12q8 0 9 7h7q-4 -14 -18 -14q-21 0 -21 20q0 9 6 15t14 6q21 0 19 -22zM347 35q-7 0 -7 -12h14q0 12 -7 12zM124 0v7h8v41h-8v7h29v-7h-8v-16h22v16
h-8v7h29v-7h-8v-41h8v-7h-29v7h8v18h-22v-18h8v-7h-29zM576 13q7 0 7 -7t-7 -7t-7 7t7 7z" />
    <glyph glyph-name="NUL" horiz-adv-x="0" 
 />
    <glyph glyph-name="caron.alt" 
d="M201 566l7 149h92l-40 -149h-59z" />
    <glyph glyph-name="descendercyrillic" 
d="M176 -100l5 173h138l5 -173h-148z" />
    <glyph glyph-name="descendercyrillic.cap" 
d="M172 -113l4 186h148l4 -186h-156z" />
    <glyph glyph-name="straightdescendercyrillic" 
d="M173 -100v260h154v-260h-154z" />
    <glyph glyph-name="straightdescendercyrillic.cap" 
d="M170 -113v283h160v-283h-160z" />
    <glyph glyph-name="acute.cap" 
d="M140 721l58 109l172 -32l-112 -77h-118z" />
    <glyph glyph-name="hungarumlaut.cap" 
d="M287 721l33 62l-77 -62h-103l58 109l134 -25l13 25l147 -27l-102 -82h-103z" />
    <glyph glyph-name="grave.cap" 
d="M370 721h-118l-112 77l172 32z" />
    <glyph glyph-name="circumflex.cap" 
d="M110 721l74 102h131l74 -102h-100l-40 33l-40 -33h-99z" />
    <glyph glyph-name="caron.cap" 
d="M389 823l-74 -102h-131l-74 102h100l40 -33l40 33h99z" />
    <glyph glyph-name="breve.cap" 
d="M250 719q-121 0 -128 104h90q8 -26 38 -26t38 26h90q-7 -104 -128 -104z" />
    <glyph glyph-name="tilde.cap" 
d="M324 717q-20 0 -64 15t-57 15q-22 0 -28 -33l-75 12q1 59 21 91t54 32q20 0 64 -15t57 -15q22 0 28 33l75 -12q-1 -59 -21 -91t-54 -32z" />
    <glyph glyph-name="macron.cap" 
d="M112 723v105h276v-105h-276z" />
    <glyph glyph-name="dieresis.cap" 
d="M263 721v113h125v-113h-125zM112 721v113h125v-113h-125z" />
    <glyph glyph-name="dotaccent.cap" 
d="M183 721v113h134v-113h-134z" />
    <glyph glyph-name="ring.cap" 
d="M250 718q-47 0 -76 27.5t-29 70.5t29 70.5t76 27.5t76 -27.5t29 -70.5t-29 -70.5t-76 -27.5zM250 768q22 0 35.5 14t13.5 34t-13.5 34t-35.5 14t-35.5 -14t-13.5 -34t13.5 -34t35.5 -14z" />
    <glyph glyph-name="uni0384.cap" 
d="M188 546l7 154h121l-52 -154h-76z" />
    <glyph glyph-name="commaaccent.rot" 
d="M307 758l10 -44q-62 -12 -67 -42h63v-103h-127v82q0 88 121 107z" />
    </font>
</defs>
</svg>
